<svg xmlns="http://www.w3.org/2000/svg" xmlns:xlink="http://www.w3.org/1999/xlink" width="340" height="76" viewBox="0 0 340 76">
    <defs>
        <rect id="a" width="340" height="76" rx="15"/>
        <path id="c" d="M0 .155h56.034v10.043H0z"/>
        <path id="e" d="M.446.258h24.64v34.817H.447z"/>
        <path id="g" d="M.467.262h25.801v35.33H.468z"/>
        <path id="i" d="M.467.262h25.801v35.33H.468z"/>
        <path id="k" d="M.446.258h24.64v34.817H.447z"/>
        <path id="m" d="M.446.258h24.64v34.817H.447z"/>
        <path id="o" d="M0 .224h80.755v14.474H0z"/>
        <path id="q" d="M0 .11h39.553v7.089H0z"/>
    </defs>
    <g fill="none" fill-rule="evenodd" opacity=".15">
        <mask id="b" fill="#fff">
            <use xlink:href="#a"/>
        </mask>
        <use fill="#000" style="mix-blend-mode:luminosity" xlink:href="#a"/>
        <g mask="url(#b)" style="mix-blend-mode:luminosity">
            <path fill="#FF7900" d="M225.532.618l14.6-40.2a.727.727 0 0 0-.433-.931l-46.38-16.844a.727.727 0 0 0-.931.435l-14.6 40.2L225.532.619zM94.88 58.823c-3.788 13.034 16.358 14.876 16.358 14.876 2.144-13.645-12.57-27.91-16.358-14.876m8.736 9.103c-2.366-.967-4.066-2.185-4.915-3.525-.501-.79-1.085-2.122-.373-4.576.488-1.673 1.244-2.156 2.296-2.344 1.306-.236 3.155 1.591 4.95 4.688 1.279 2.207 2.063 4.654 2.29 7.055-1.305-.29-2.797-.708-4.248-1.298"/>
            <path fill="#FF7900" d="M110.044 73.375s16.922 10.875 22.382-1.553c5.458-12.426-15.271-10.288-22.382 1.553m19.093-2.997c-1.026 2.34-2.332 2.987-3.22 3.271-1.512.482-3.598.326-6.031-.45-1.493-.479-2.906-1.116-4.092-1.731 1.715-1.696 3.885-3.07 6.283-3.941 3.366-1.223 5.954-1.438 6.806-.42.684.82.956 1.676.254 3.27"/>
            <path fill="#FFF" d="M114.76 75.046c-.681 1.876-3.089 2.724-5.376 1.894-2.286-.83-3.587-3.025-2.905-4.902"/>
            <path fill="#FF7900" d="M118.759 125.643l14.6-40.2a.727.727 0 0 0-.434-.93l-46.38-16.844a.727.727 0 0 0-.93.435l-14.6 40.2 47.744 17.34z"/>
            <g transform="rotate(20 -138.298 271.25)">
                <mask id="d" fill="#fff">
                    <use xlink:href="#c"/>
                </mask>
                <path fill="#FFD203" d="M56.034 9.186a.975.975 0 0 1-.975.974L.98 10.198a.973.973 0 0 1-.975-.972L0 1.17A.972.972 0 0 1 .973.193L55.052.155c.539 0 .976.435.976.975l.006 8.056z" mask="url(#d)"/>
            </g>
            <path fill="#FF7900" d="M113.673 74.375l-3.45 9.501-5.932-2.154 3.45-9.5z"/>
            <path fill="#FFF" d="M62.488 55.55a.786.786 0 0 0 1 .488l11.496-4.184-6.155-16.91-12.222 4.449 5.881 16.158zM79.71 50.134l11.494-4.184a.786.786 0 0 0 .454-1.016l-5.881-16.158-12.222 4.448 6.155 16.91zM52.641 34.016l1.426 3.919c.14.41.59.628 1.001.487l13.269-4.83-1.974-5.422L53.094 33a.786.786 0 0 0-.453 1.016M84.358 21.62L71.09 26.45l1.974 5.422 13.269-4.83a.787.787 0 0 0 .453-1.016l-1.426-3.919a.786.786 0 0 0-1-.487"/>
            <g transform="rotate(-20 90.196 -140.091)">
                <mask id="f" fill="#fff">
                    <use xlink:href="#e"/>
                </mask>
                <path fill="#FF7900" d="M24.775 5.412a3.188 3.188 0 0 0-.398-3.38c-1.236-1.705-4.143-2.492-6.5-.94-2.328 1.531-4.119 4.034-5.11 5.64-.992-1.608-2.783-4.11-5.11-5.64-2.356-1.552-5.263-.765-6.5.94a3.188 3.188 0 0 0-.4 3.38C2.07 8.124 7.236 9.669 11.8 9.865v25.21h1.935V9.865c4.564-.193 9.73-1.74 11.041-4.453zM2.488 4.518c-.14-.295-.227-.678.216-1.288v.002a2.681 2.681 0 0 1 2.162-.98 3.17 3.17 0 0 1 1.753.529c2.015 1.325 3.629 3.596 4.522 5.043-4.057-.31-7.887-1.723-8.653-3.306zm20.559 0C22.28 6.1 18.45 7.51 14.394 7.822c.893-1.447 2.507-3.716 4.522-5.043l-.002.002a3.17 3.17 0 0 1 1.753-.528 2.681 2.681 0 0 1 2.162.98c.443.61.359.992.216 1.285h.002z" mask="url(#f)"/>
            </g>
            <g>
                <path fill="#FFF" d="M192.468 52.193c-.084.433.212.852.661.94l12.68 2.236 3.169-17.975-13.481-2.377-3.029 17.176zM210.58 56.642l12.678 2.236c.453.07.874-.222.943-.658l3.029-17.176-13.481-2.377-3.17 17.975zM195.182 28.208l-.687 3.897c-.08.404.216.802.662.888l14.484 2.554.951-5.392-14.484-2.554c-.448-.072-.863.199-.926.607M229.876 33.665l-14.485-2.554-.95 5.392 14.484 2.554c.448.072.862-.2.925-.607l.687-3.897c.08-.406-.216-.802-.661-.888"/>
                <g transform="rotate(10 -5.041 1161.767)">
                    <mask id="h" fill="#fff">
                        <use xlink:href="#g"/>
                    </mask>
                    <path fill="#FF7900" d="M25.942 5.492a3.154 3.154 0 0 0-.417-3.43c-1.294-1.73-4.338-2.528-6.807-.954-2.436 1.554-4.312 4.094-5.35 5.723-1.038-1.632-2.914-4.171-5.35-5.723C5.55-.466 2.507.331 1.21 2.061a3.154 3.154 0 0 0-.417 3.43c1.373 2.753 6.782 4.32 11.561 4.519v25.581h2.026V10.01c4.778-.196 10.188-1.766 11.561-4.518zM2.606 4.584c-.148-.298-.239-.687.225-1.306v.002a2.846 2.846 0 0 1 2.265-.994c.654 0 1.29.186 1.835.536 2.11 1.345 3.8 3.649 4.734 5.117-4.247-.315-8.257-1.748-9.06-3.355zm21.526 0c-.802 1.607-4.812 3.038-9.06 3.353.935-1.468 2.625-3.77 4.735-5.117l-.002.002a3.395 3.395 0 0 1 1.835-.536 2.846 2.846 0 0 1 2.264.994c.464.619.376 1.007.226 1.304h.002z" mask="url(#h)"/>
                </g>
            </g>
            <g>
                <path fill="#FFF" d="M-7.806 55.843c-.085.433.211.853.66.94l12.68 2.236 3.17-17.975-13.482-2.377-3.028 17.176zM10.305 60.292l12.679 2.236c.452.071.874-.221.942-.658l3.03-17.175-13.482-2.377-3.17 17.974zM-5.092 31.859l-.688 3.897c-.08.403.217.801.662.887l14.485 2.554.95-5.392-14.484-2.554c-.448-.071-.862.2-.925.608M29.601 37.315l-14.485-2.554-.95 5.393 14.484 2.554c.448.071.863-.201.926-.608l.687-3.897c.08-.405-.217-.802-.662-.888"/>
                <g transform="rotate(10 -126.04 19.018)">
                    <mask id="j" fill="#fff">
                        <use xlink:href="#i"/>
                    </mask>
                    <path fill="#FF7900" d="M25.942 5.492a3.154 3.154 0 0 0-.417-3.43c-1.294-1.73-4.338-2.528-6.807-.954-2.436 1.554-4.312 4.094-5.35 5.723-1.038-1.632-2.914-4.171-5.35-5.723C5.55-.466 2.507.331 1.21 2.061a3.154 3.154 0 0 0-.417 3.43c1.373 2.753 6.782 4.32 11.561 4.519v25.581h2.026V10.01c4.778-.196 10.188-1.766 11.561-4.518zM2.606 4.584c-.148-.298-.239-.687.225-1.306v.002a2.846 2.846 0 0 1 2.265-.994c.654 0 1.29.186 1.835.536 2.11 1.345 3.8 3.649 4.734 5.117-4.247-.315-8.257-1.748-9.06-3.355zm21.526 0c-.802 1.607-4.812 3.038-9.06 3.353.935-1.468 2.625-3.77 4.735-5.117l-.002.002a3.395 3.395 0 0 1 1.835-.536 2.846 2.846 0 0 1 2.264.994c.464.619.376 1.007.226 1.304h.002z" mask="url(#j)"/>
                </g>
            </g>
            <g>
                <g transform="rotate(10 -270.796 1352.134)">
                    <mask id="l" fill="#fff">
                        <use xlink:href="#k"/>
                    </mask>
                    <path fill="#FF7900" d="M24.775 5.412a3.188 3.188 0 0 0-.398-3.38c-1.236-1.705-4.143-2.492-6.5-.94-2.328 1.531-4.119 4.034-5.11 5.64-.992-1.608-2.783-4.11-5.11-5.64-2.356-1.552-5.263-.765-6.5.94a3.188 3.188 0 0 0-.4 3.38C2.07 8.124 7.236 9.669 11.8 9.865v25.21h1.935V9.865c4.564-.193 9.73-1.74 11.041-4.453zM2.488 4.518c-.14-.295-.227-.678.216-1.288v.002a2.681 2.681 0 0 1 2.162-.98 3.17 3.17 0 0 1 1.753.529c2.015 1.325 3.629 3.596 4.522 5.043-4.057-.31-7.887-1.723-8.653-3.306zm20.559 0C22.28 6.1 18.45 7.51 14.394 7.822c.893-1.447 2.507-3.716 4.522-5.043l-.002.002a3.17 3.17 0 0 1 1.753-.528 2.681 2.681 0 0 1 2.162.98c.443.61.359.992.216 1.285h.002z" mask="url(#l)"/>
                </g>
            </g>
            <g>
                <g transform="rotate(10 -377.758 129.551)">
                    <mask id="n" fill="#fff">
                        <use xlink:href="#m"/>
                    </mask>
                    <path fill="#FF7900" d="M24.775 5.412a3.188 3.188 0 0 0-.398-3.38c-1.236-1.705-4.143-2.492-6.5-.94-2.328 1.531-4.119 4.034-5.11 5.64-.992-1.608-2.783-4.11-5.11-5.64-2.356-1.552-5.263-.765-6.5.94a3.188 3.188 0 0 0-.4 3.38C2.07 8.124 7.236 9.669 11.8 9.865v25.21h1.935V9.865c4.564-.193 9.73-1.74 11.041-4.453zM2.488 4.518c-.14-.295-.227-.678.216-1.288v.002a2.681 2.681 0 0 1 2.162-.98 3.17 3.17 0 0 1 1.753.529c2.015 1.325 3.629 3.596 4.522 5.043-4.057-.31-7.887-1.723-8.653-3.306zm20.559 0C22.28 6.1 18.45 7.51 14.394 7.822c.893-1.447 2.507-3.716 4.522-5.043l-.002.002a3.17 3.17 0 0 1 1.753-.528 2.681 2.681 0 0 1 2.162.98c.443.61.359.992.216 1.285h.002z" mask="url(#n)"/>
                </g>
            </g>
            <g>
                <path fill="#FF7900" d="M262.592-7.867c4.665 18.998 31.136 6.78 31.136 6.78-7.157-18.576-35.801-25.776-31.136-6.78m17.462 5.066c-3.65.498-6.648.203-8.674-.857-1.195-.625-2.883-1.868-3.763-5.444-.596-2.438 0-3.586 1.177-4.58 1.46-1.234 5.084-.287 9.555 2.286 3.187 1.832 5.93 4.32 7.943 7.154-1.838.579-4.001 1.132-6.238 1.441"/>
                <path fill="#FF7900" d="M292.004-.632S320.96.748 318.82-18.698c-2.142-19.443-26.474-1.837-26.816 18.066m21.67-17.5c.405 3.66-.758 5.409-1.662 6.405-1.54 1.69-4.255 2.999-7.851 3.784-2.209.478-4.43.7-6.355.788.92-3.353 2.637-6.631 5.002-9.447 3.32-3.951 6.395-6.084 8.192-5.427 1.444.529 2.402 1.402 2.674 3.898"/>
                <path fill="#FFF" d="M299.093-1.944c.503 2.832-1.891 5.626-5.344 6.237-3.451.61-6.656-1.19-7.157-4.024"/>
                <path fill="#FF7900" d="M340.544 58.324L329.798-2.37a1.047 1.047 0 0 0-1.211-.85l-70.024 12.4c-.567.1-.95.643-.848 1.213l10.746 60.695 72.083-12.764z"/>
                <g transform="rotate(-10 159.076 -1443.266)">
                    <mask id="p" fill="#fff">
                        <use xlink:href="#o"/>
                    </mask>
                    <path fill="#FFD203" d="M80.755 13.238c0 .774-.629 1.405-1.405 1.405l-77.937.055a1.402 1.402 0 0 1-1.406-1.402L0 1.686A1.401 1.401 0 0 1 1.402.279L79.339.224c.777-.001 1.407.627 1.407 1.404l.009 11.61z" mask="url(#p)"/>
                </g>
                <path fill="#FF7900" d="M297.254-1.998l2.54 14.344-8.955 1.586-2.54-14.344z"/>
            </g>
            <g>
                <path fill="#FF7900" d="M170.883 24.558l-10.746-60.694a1.047 1.047 0 0 0-1.212-.85l-70.023 12.4c-.567.1-.95.643-.849 1.213L98.8 37.322l72.083-12.764z"/>
            </g>
            <g>
                <path fill="#FF7900" d="M144.411 45.517c2.285 9.306 15.25 3.321 15.25 3.321-3.505-9.098-17.535-12.625-15.25-3.32m8.553 2.481c-1.788.244-3.257.1-4.249-.42-.585-.306-1.412-.915-1.843-2.666-.292-1.195 0-1.757.577-2.243.715-.605 2.49-.141 4.68 1.119a12.328 12.328 0 0 1 3.89 3.504c-.9.283-1.96.555-3.055.706"/>
                <path fill="#FF7900" d="M158.817 49.061s14.183.676 13.134-8.848c-1.049-9.523-12.966-.9-13.134 8.848m10.614-8.57c.198 1.792-.371 2.648-.814 3.136-.754.828-2.084 1.469-3.846 1.853-1.082.234-2.17.344-3.112.386a12.343 12.343 0 0 1 2.45-4.627c1.625-1.935 3.132-2.98 4.012-2.658.707.259 1.176.687 1.31 1.91"/>
                <path fill="#FFF" d="M162.29 48.418c.245 1.388-.927 2.756-2.618 3.056-1.69.299-3.26-.584-3.506-1.972"/>
                <path fill="#FF7900" d="M182.592 77.938l-5.264-29.728a.513.513 0 0 0-.593-.416l-34.297 6.073a.513.513 0 0 0-.416.594l5.264 29.728 35.306-6.251z"/>
                <g transform="rotate(-10 367.968 -772.487)">
                    <mask id="r" fill="#fff">
                        <use xlink:href="#q"/>
                    </mask>
                    <path fill="#FFD203" d="M39.553 6.484c0 .379-.307.688-.688.688L.692 7.199a.687.687 0 0 1-.688-.687L0 .826c0-.381.306-.69.687-.69L38.86.11c.38 0 .689.307.689.688l.004 5.686z" mask="url(#r)"/>
                </g>
                <path fill="#FF7900" d="M161.388 48.392l1.244 7.026-4.386.777-1.244-7.026z"/>
            </g>
            <g>
                <path fill="#FF7900" d="M66.692 2.192l-5.263-29.727a.513.513 0 0 0-.594-.416L26.538-21.88a.513.513 0 0 0-.416.595l5.264 29.728 35.306-6.252z"/>
            </g>
        </g>
    </g>
</svg>
