<svg xmlns="http://www.w3.org/2000/svg" xmlns:xlink="http://www.w3.org/1999/xlink" width="48" height="50" viewBox="0 0 48 50">
    <defs>
        <path id="a" d="M.042.044h27.215V12.81H.042z"/>
        <path id="c" d="M7.24.187L1.736 1.859a2.387 2.387 0 0 0-1.59 2.977l2.927 9.638a2.387 2.387 0 0 0 2.977 1.59l5.505-1.671a2.387 2.387 0 0 0 1.59-2.977l-2.928-9.639A2.387 2.387 0 0 0 7.24.187z"/>
    </defs>
    <g fill="none" fill-rule="evenodd">
        <path fill="#FFF" d="M25.564 49.48l.66-.352c.313-.167.436-.628.242-.928a.693.693 0 0 0-.928-.243l-.659.35c-.314.168-.436.63-.243.929a.693.693 0 0 0 .928.243"/>
        <path fill="#D6D6D6" d="M45.987 25.974c0 12.683-10.282 22.965-22.965 22.965S.057 38.657.057 25.974C.057 13.29 10.34 3.009 23.022 3.009S45.987 13.29 45.987 25.974"/>
        <path fill="#714F47" d="M13.872 27.04c1.053-.313 2.494-.17 3.416-.777 2.734-1.804 5.38-3.74 7.74-5.921.513.902 1.035 1.813 1.471 2.564.588 1.01 1.265 1.976 1.864 2.98.495.83.355 1.663 1.072 2.422.915.969 2.64 1.174 3.42 2.164.519.66.352 1.45.452 2.263.462 3.74 6.306 7.556 1.875 10.91-1.765 1.337-3.948 2.182-5.984 3.012-1.644.671-3.412.738-4.29-.99-.748-1.473-.824-3.068-2.106-4.269-1.152-1.08-2.827-1.368-3.97-2.398-1.629-1.47-2.942-3.57-4.052-5.449-.986-1.67-2.202-3.545-2.11-5.572.025-.552.71-.792 1.202-.938"/>
        <g transform="translate(22.743 37.014)">
            <mask id="b" fill="#fff">
                <use xlink:href="#a"/>
            </mask>
            <path fill="#FF7900" d="M.158 8.022C.416 7.569 11.826.128 13.27.046c.96-.055 1.91 1.444 2.343 1.963 1.753 2.098 18.709 22.458 19.123 26.664h-22.3C8.254 24.837 2.109 12.78.34 9.407.012 8.782-.04 8.37.158 8.022" mask="url(#b)"/>
        </g>
        <path fill="#714F47" d="M10.022 23.545a1.69 1.69 0 0 0-.85.347c-.13.097 2.385 4.509 3.496 3.582 1.41-1.177-1.25-4.07-2.646-3.93"/>
        <path fill="#714F47" d="M12.523 20.089c.65.267 1.41.769 1.814.54.585-.33-1.048-1.57-1.342-1.852-.481-.461-1.037-.888-1.488-1.383-.286-.314-.633-.782-.354-1.212.292-.45.802-.053 1.134.148 1.634.988 3.137 2.2 4.647 3.364.807.622 1.652 1.227 2.474 1.822.568.411 1.129 1.042 1.836.868.519-.127 1.13-.778 1.51-.046.22.423.32.958.394 1.497.066.48.111.963.202 1.375.15.684.067 1.371-.023 2.056-.1.76.341 3.156.341 3.156-.324 1.101-.263 2.1-1.543 2.234-1.086.113-2.347-.213-3.265-.807-.538-.348-.633-.775-1.321-.636-.562.113-1.074.553-1.675.45-.492-.083-.837-.839-1.104-1.217-.666-.946-2.612-2.828-2.094-4.078.445-1.072.668-1.105.195-2.329-.4-1.038-1.504-2.03-1.495-3.206.008-1.04.532-1 1.157-.744M12.439 13.424c.183.227.344.457.473.663.31.497.448 1.447 1.107 1.634.701.197 1.04-1.093 1.153-1.582.268-1.152-.795-1.959-1.687-2.498-.985-.595-1.882-.43-2.385.608.47.224.953.695 1.339 1.175"/>
        <path fill="#714F47" d="M12.09 20.021l.297.53c-.01.12-.289 1.544-.381 1.507-.773-.313-1.585-1.29-1.264-2.14.142-.38.847-1.314 1.312-.804.231.253-.106.65.036.907"/>
        <path fill="#000" d="M15.388 8.393c.856-.507 1.793-.367 2.873-.237 1.104.134 2.557.286 3.663.4 1.068.112 2.203.223 3.27.357.948.119 2.558.277 3.303.93.664.58.903 1.738.922 2.603.037 1.75-.392 3.469-.615 5.196-.275 2.128-.472 4.108-.698 6.242-.168 1.588-.416 3.678-.662 5.255-.207 1.336-.234 2.349-.453 3.683-.16.963-.061 2.224-1.068 2.85-.63.392-1.57.449-2.279.424-1.123-.04-2.23-.265-3.347-.372-1.303-.123-2.59-.338-3.877-.576-1.13-.209-2.557-.109-3.582-.63-1.165-.591-1.367-1.835-1.244-3.195.467-5.176 1.362-10.342 1.763-15.492.11-1.42.423-2.884.662-4.314.2-1.193.182-2.421 1.37-3.124"/>
        <path fill="#FFF" d="M16.824 8.725c1.95.284 3.931.384 5.876.7 1.473.24 3.05.043 4.47.576 1.81.678 1.574 3.988 1.372 5.691l-.363 3.06-.856 7.21-.475 4.005c-.13 1.093-.162 3.905-.83 4.857-.08.113-.166.207-.258.284-.715.595-1.778.175-2.677.068-2.408-.285-4.833-.42-7.241-.706-1.28-.152-2.172-.247-3.452-.399.001-.005-.37-.218-.37-.224.374-3.15.976-7.748 1.35-10.898.43-3.63.839-7.25 1.153-10.888.115-1.33.931-3.535 2.3-3.336"/>
        <path fill="#000" d="M19.998 9.145c1.591.188 3.119.064 4.71.254.739.089 1.368.158 2.107.248.647.078 2.012.695 1.819 2.22-.105.823-1.3 8.77-1.398 9.594l-.165 1.39-.146 1.226-.665 5.605c-.062.513-.21 3.209-.286 3.858-.04.342.083 2.201-2.423 1.896-.919-.113-8.614-1.047-9.375-1.132-1.8-.201-1.601-1.47-1.563-1.779.112-.917 1.998-18.27 2.125-19.293.065-.532.554-2.478.617-3.01.175-1.465 1-1.813 1.912-1.704m-3.254 3.913c-.019.22-.037.443-.063.66-.193 1.622-.677 5.895-1.132 9.93-.453 4.01-.878 7.783-.961 8.484-.26 2.178-.39 3.174 3.171 3.599l8.52 1.016c1.583.188 2.841-.072 3.119-2.497l.695-5.822c.678-5.68 1.612-13.51 1.636-13.808.066-.819.507-3.76-1.848-4.042-1.779-.212-7.747-.866-9.972-1.131-2.777-.33-3.039 2.061-3.165 3.61"/>
        <path fill="#000" d="M19.072 8.845c.687.092 1.024.173 1.539.217.5.043 1.883.222 2.945.357.245.032 2.727.123 1.816.789-.261.191-.829.027-1.124.008-.737-.05-1.737-.193-2.624-.295-.978-.113-1.514-.178-2.674-.318-.979-.12-.659-.862.122-.758"/>
        <path fill="#81C8A6" d="M26.318 30.043l-.016.132H26.3a.439.439 0 0 0 .012-.1v-.033h.007"/>
        <path fill="#714F47" d="M14.592 15.604a1.856 1.856 0 0 0-.012-.997c-1.054.098-4.36.653-3.418 2.41.787 1.469 3.16-.362 3.43-1.413M14.238 19.301a1.857 1.857 0 0 0-.012-.997c-1.054.098-4.36.654-3.418 2.411.787 1.468 3.16-.363 3.43-1.414"/>
        <path fill="#66413E" d="M12.992 15.303c.385.703 1.159-.187 1.436-.552.11-.144.334.025.224.17-.248.327-.546.644-.914.834a.77.77 0 0 1-.552.076c-.212-.06-.35-.23-.452-.415-.087-.16.172-.27.258-.113M12.848 19.232c.316.377.945-.137 1.182-.383.125-.128.351.04.225.17-.377.39-1.16.946-1.628.388-.117-.14.104-.313.22-.175"/>
        <path fill="#714F47" d="M27.11 16.294c.423 1.215 1.329 2.159 2.224 3.062.68.684 1.762 1.297 2.302 2.112.198 1.986 1.141 3.861 2.374 5.448a2.164 2.164 0 0 1 .144.9c-.038 2.055-.013 5.184-.134 7.242-1.522.793-1.607.884-2.925 1.666-.18-.114-.267-1.143-.44-1.27-.53-.391-.962-.878-1.529-1.22-.345-.208-.832-.33-1.1-.648-.685-.809-.23-2.493-.189-3.456.068-1.563-.185-3.207 0-4.756.147-1.218.02-2.114-.686-3.2a1.219 1.219 0 0 0-.274-.27c-.125-.099-.259-.195-.352-.304-.408-.475-.662-1.144-.742-1.777-.14-1.104.012-3.112 1.328-3.529"/>
        <path fill="#66413E" d="M26.679 18.014c.091.345.328.622.672.73.323.103.671-.031.885-.281.118-.137.343.031.225.17-.286.334-.718.5-1.152.39-.473-.12-.787-.508-.908-.967-.047-.175.232-.215.278-.042"/>
        <path fill="#000" d="M24.532 47.115l.167-.168c.25-.252.27-.711 0-.96-.27-.247-.692-.268-.96 0l-.166.168c-.25.252-.27.711 0 .96.27.248.692.269.96 0M25.734 46.375a1.89 1.89 0 0 0 .985-.74c.204-.292.062-.767-.244-.929-.347-.183-.71-.068-.928.244a.63.63 0 0 0 .032-.04 1.071 1.071 0 0 1-.115.115.964.964 0 0 0 .057-.043c-.04.026-.081.05-.121.075-.065.032-.048.026.05-.017-.025.01-.05.02-.076.027-.337.11-.59.474-.474.835.109.335.473.592.834.473M28.146 45.04l.495-.342c.29-.202.452-.604.243-.928-.186-.29-.616-.46-.928-.244l-.495.343c-.291.202-.453.604-.243.928.186.29.616.46.928.244M30.624 43.301c-.047.096-.058.122-.032.076.027-.044.011-.022-.048.065l-.077.061c-.107.038-.126.048-.058.03.345-.085.585-.493.474-.835a.692.692 0 0 0-.834-.474c-.361.088-.624.37-.733.716-.106.339.126.756.474.835.37.084.72-.111.834-.474M32.395 42.292c-.016.022-.096.108-.03.05a8.015 8.015 0 0 0-.029.025c.05-.044-.121.034-.056.02.05-.01.145-.027-.048-.004.187-.022.342-.06.48-.199a.69.69 0 0 0 .199-.48c-.015-.33-.301-.723-.679-.678-.212.026-.392.06-.58.17-.182.104-.305.246-.428.411-.099.132-.11.372-.069.523a.692.692 0 0 0 .312.405.685.685 0 0 0 .523.069.79.79 0 0 0 .405-.312M34.327 41.285l.673-.326c.32-.154.431-.637.243-.928-.212-.328-.585-.409-.928-.243l-.672.325c-.32.155-.431.637-.244.928.212.329.586.41.928.244M36.33 40.196l.5-.252c.318-.16.434-.634.244-.929-.21-.324-.589-.414-.928-.243l-.5.252c-.318.16-.434.634-.244.928.21.325.588.415.928.244"/>
        <path fill="#000" d="M37.744 39.542c.873 0 .875-1.357 0-1.357-.873 0-.874 1.357 0 1.357"/>
        <path fill="#FFF" d="M27.873 47.95l.167-.168c.25-.252.27-.71 0-.959-.27-.248-.692-.269-.96 0l-.166.167c-.251.252-.27.711 0 .96.27.248.692.269.959 0M29.565 46.96l.501-.251c.318-.16.433-.634.244-.928-.21-.326-.588-.414-.929-.244l-.5.25c-.319.16-.434.635-.244.929.21.325.588.413.928.243M31.902 45.624l.426-.324c.146-.112.26-.22.311-.406a.694.694 0 0 0-.068-.522c-.18-.278-.626-.474-.928-.244l-.425.324c-.147.112-.261.22-.312.406a.693.693 0 0 0 .068.522c.18.278.627.474.928.244M33.4 44.444l.423-.243c.307-.177.44-.621.243-.928-.2-.31-.6-.433-.928-.243l-.422.243c-.308.177-.441.621-.243.928.2.31.599.433.928.243M35.318 43.352l.942-.543c.308-.178.441-.622.243-.929-.2-.31-.599-.433-.928-.243l-.942.544c-.307.177-.441.621-.243.928.2.31.599.433.928.243"/>
        <path fill="#FFF" d="M37.327 42.193l.248-.17c.292-.2.452-.605.243-.928-.187-.29-.615-.459-.928-.244l-.248.17c-.292.202-.452.606-.243.93.187.29.615.458.928.242M39.005 41.203l.167-.084c.318-.159.433-.634.244-.928-.21-.325-.588-.413-.929-.243l-.167.083c-.318.16-.433.634-.243.928.21.326.588.414.928.244"/>
        <g>
            <path fill="#D6D6D6" d="M23.593 28.82a.45.45 0 0 1-.052-.003l-7.704-.911a.438.438 0 1 1 .103-.87l7.704.912a.437.437 0 0 1-.05.872M23.145 30.915a.45.45 0 0 1-.052-.003L15.39 30a.438.438 0 1 1 .103-.869l7.704.911a.437.437 0 0 1-.05.873M23.381 33.275a.45.45 0 0 1-.052-.004l-7.704-.91a.438.438 0 1 1 .103-.87l7.704.911a.437.437 0 0 1-.05.873M22.21 26.429l-4.624-.638a1.295 1.295 0 0 1-1.105-1.46l.633-4.586a1.295 1.295 0 0 1 1.46-1.106l4.623.638a1.295 1.295 0 0 1 1.105 1.46l-.633 4.586a1.295 1.295 0 0 1-1.46 1.106"/>
            <path fill="#FFF" d="M34.268 20.19c.95-.755 2.09-1.245 2.984-2.072.294-.272-.097-.76-.393-.485-.895.826-2.034 1.316-2.984 2.071-.315.251.078.737.393.486"/>
            <path fill="#FFF" d="M37.049 17.811l-.014.012c-.52.48-1.118.85-1.697 1.208-.44.272-.896.553-1.301.876-.02.016-.02.022-.018.028a.093.093 0 0 0 .051.063c.008.003.015.006.037-.011.43-.341.897-.63 1.35-.91.584-.362 1.136-.703 1.619-1.149.02-.019.025-.033.018-.057a.097.097 0 0 0-.045-.06M34.08 20.52a.545.545 0 0 1-.2-.039.61.61 0 0 1-.374-.468.539.539 0 0 1 .208-.51c.43-.343.898-.632 1.351-.912.584-.36 1.135-.702 1.618-1.148a.526.526 0 0 1 .768.034c.198.215.244.585-.024.833-.52.48-1.118.85-1.698 1.208-.44.272-.894.553-1.3.875a.558.558 0 0 1-.349.127M36.798 23.032c.381-.121.235-.729-.15-.607-.466.148-.91.35-1.388.464-.391.093-.242.7.15.606.477-.113.922-.316 1.388-.463"/>
            <path fill="#FFF" d="M36.744 22.667l-.018.005c-.172.055-.347.12-.516.182-.285.105-.58.213-.89.287-.024.005-.026.011-.028.017a.093.093 0 0 0 .02.08c.006.006.012.011.039.005.279-.066.546-.164.828-.268.175-.065.356-.132.54-.19.027-.008.037-.02.041-.044a.096.096 0 0 0-.016-.074m-1.414 1.097c-.15 0-.29-.059-.395-.17a.61.61 0 0 1-.139-.584.538.538 0 0 1 .405-.373c.28-.067.547-.165.83-.27.174-.064.355-.13.538-.189a.526.526 0 0 1 .681.357c.089.28-.027.634-.374.744-.173.055-.348.12-.518.182-.284.104-.578.213-.888.286a.603.603 0 0 1-.14.017M9.015 17.2c-.811-.902-1.853-1.574-2.598-2.538-.245-.317.221-.733.468-.413.745.963 1.787 1.635 2.598 2.538.27.3-.2.713-.468.413"/>
            <path fill="#FFF" d="M6.665 14.392a.116.116 0 0 0-.052.052c-.01.023-.008.038.009.06.402.52.89.948 1.405 1.401.4.351.814.714 1.18 1.122.019.021.027.02.035.018a.093.093 0 0 0 .061-.054c.002-.006.004-.012-.013-.031-.346-.386-.749-.739-1.137-1.08-.512-.45-1.04-.914-1.473-1.473a.058.058 0 0 0-.015-.015m2.568 3.172a.548.548 0 0 1-.411-.19c-.346-.385-.748-.738-1.137-1.08-.511-.449-1.04-.914-1.473-1.473-.223-.289-.117-.646.115-.825a.526.526 0 0 1 .763.094c.402.52.889.948 1.404 1.4.4.352.814.715 1.181 1.124.138.153.182.35.12.538a.61.61 0 0 1-.562.412M6.716 20.554c-.38-.121-.234-.729.15-.607.466.148.91.35 1.388.464.391.093.242.7-.15.606-.477-.113-.922-.315-1.388-.463"/>
            <path fill="#FFF" d="M6.795 20.307c.184.058.365.125.54.19.282.104.55.202.828.268.028.007.033 0 .039-.005a.093.093 0 0 0 .02-.08c-.002-.005-.004-.011-.028-.017a7.746 7.746 0 0 1-.89-.287c-.169-.063-.344-.127-.516-.182-.014-.004-.02-.004-.02-.004a.115.115 0 0 0-.014.073c.004.025.014.036.04.044m1.39.98a.603.603 0 0 1-.14-.018c-.31-.073-.604-.181-.888-.286-.17-.063-.345-.127-.518-.182-.347-.11-.463-.464-.374-.743a.526.526 0 0 1 .681-.358c.184.059.364.125.538.19a7.2 7.2 0 0 0 .83.269c.2.047.348.183.405.373a.61.61 0 0 1-.14.583.535.535 0 0 1-.394.171"/>
            <path fill="#FF7900" d="M22.07 21.27l1.035-4.473c.034-.208-.088-.402-.255-.407l-4.764-.138c-.166-.005-.298.18-.278.388l.781 4.532c.02.208-.112.393-.278.388l-.841-.025c-.234-.007-.367.34-.218.564l2.71 4.07c.102.152.286.16.399.015l3.027-3.902c.166-.215.054-.573-.182-.58l-.882-.025c-.167-.005-.288-.2-.254-.407M18.546 14.416l-5.505 1.672a2.387 2.387 0 0 1-2.977-1.59l-2.927-9.64a2.387 2.387 0 0 1 1.59-2.976L14.23.21A2.387 2.387 0 0 1 17.21 1.8l2.927 9.639a2.387 2.387 0 0 1-1.59 2.977"/>
        </g>
        <g transform="translate(6.991 .023)">
            <mask id="d" fill="#fff">
                <use xlink:href="#c"/>
            </mask>
            <path fill="#000" d="M12.533 7.817C7.056 9.48 6.313 7.032.837 8.696l2.89 9.515 10.952-3.327-2.146-7.067z" mask="url(#d)"/>
        </g>
        <g fill="#FF7900">
            <path d="M31.718 10.335c.16.366.449.608.864.727.29.083.566.105.83.065a1.987 1.987 0 0 0 1.298-.752c.16-.205.277-.435.35-.686.126-.441.093-.838-.098-1.193-.192-.354-.514-.596-.966-.726a1.59 1.59 0 0 0-.757-.033c-.253.05-.484.144-.694.282-.21.137-.395.308-.556.514a1.903 1.903 0 0 0-.34.648c-.115.404-.092.788.069 1.154zm4.848.725l-.22.448a2.586 2.586 0 0 0-.161.382c-.08.278-.012.447.202.508.164.046.356.04.577-.019.221-.058.45-.18.687-.365.236-.184.466-.448.687-.793.222-.345.409-.783.56-1.31.195-.68.244-1.316.148-1.909a3.827 3.827 0 0 0-.66-1.62 4.94 4.94 0 0 0-1.35-1.275 7 7 0 0 0-1.91-.854c-.793-.227-1.548-.303-2.263-.23a4.833 4.833 0 0 0-1.957.625 5.12 5.12 0 0 0-1.526 1.37c-.429.572-.756 1.247-.98 2.028-.234.818-.309 1.59-.224 2.316.085.725.308 1.385.67 1.978.36.594.846 1.109 1.457 1.542.611.434 1.32.766 2.125.997a6.79 6.79 0 0 0 2.075.278 5.842 5.842 0 0 0 1.869-.353l2.076.596c-.95.748-1.991 1.21-3.123 1.382-1.132.172-2.46.041-3.983-.396a7.327 7.327 0 0 1-2.576-1.31 7.141 7.141 0 0 1-2.671-4.76 7.107 7.107 0 0 1 .235-2.884 7.11 7.11 0 0 1 1.328-2.571 7.353 7.353 0 0 1 2.14-1.798 7.354 7.354 0 0 1 2.657-.862 7.102 7.102 0 0 1 2.885.234c.932.267 1.781.654 2.549 1.16a7.463 7.463 0 0 1 1.902 1.77c.502.675.843 1.42 1.025 2.235.182.815.149 1.656-.1 2.524-.227.794-.59 1.463-1.087 2.008a5.62 5.62 0 0 1-1.64 1.267 5.428 5.428 0 0 1-1.843.554c-.634.07-1.202.034-1.705-.11a1.273 1.273 0 0 1-.674-.429.903.903 0 0 1-.183-.716l-.076-.021c-.286.19-.623.31-1.013.362-.39.052-.798.017-1.225-.105a2.956 2.956 0 0 1-1.808-1.499 3.355 3.355 0 0 1-.347-1.213 3.713 3.713 0 0 1 .146-1.398 4.968 4.968 0 0 1 .732-1.526c.331-.465.72-.85 1.17-1.157a3.896 3.896 0 0 1 1.484-.616c.54-.104 1.1-.073 1.679.093.478.137.89.354 1.234.65.344.295.616.69.815 1.183l.351-.656 1.737.498-1.897 3.767zM22.964.925l-.36 4.923c-.047.646.96.643 1.006 0l.36-4.923c.047-.646-.959-.643-1.006 0"/>
            <path d="M21.227 3.883a38.87 38.87 0 0 1 4.125.06c.646.043.644-.963 0-1.006a38.87 38.87 0 0 0-4.125-.06c-.645.026-.648 1.031 0 1.006"/>
        </g>
    </g>
</svg>
