<svg xmlns="http://www.w3.org/2000/svg" xmlns:xlink="http://www.w3.org/1999/xlink" width="40" height="40" viewBox="0 0 40 40">
    <defs>
        <path id="a" d="M.055 19.937c0 10.985 8.936 19.89 19.958 19.89 11.023 0 19.958-8.905 19.958-19.89 0-10.985-8.935-19.89-19.958-19.89C8.991.047.055 8.952.055 19.937"/>
        <path id="c" d="M.055 19.937c0 10.985 8.936 19.89 19.958 19.89 11.023 0 19.958-8.905 19.958-19.89 0-10.985-8.935-19.89-19.958-19.89C8.991.047.055 8.952.055 19.937z"/>
        <path id="e" d="M.055 19.937c0 10.985 8.936 19.89 19.958 19.89 11.023 0 19.958-8.905 19.958-19.89 0-10.985-8.935-19.89-19.958-19.89C8.991.047.055 8.952.055 19.937z"/>
        <path id="g" d="M.055 19.937c0 10.985 8.936 19.89 19.958 19.89 11.023 0 19.958-8.905 19.958-19.89 0-10.985-8.935-19.89-19.958-19.89C8.991.047.055 8.952.055 19.937z"/>
        <path id="i" d="M.055 19.937c0 10.985 8.936 19.89 19.958 19.89 11.023 0 19.958-8.905 19.958-19.89 0-10.985-8.935-19.89-19.958-19.89C8.991.047.055 8.952.055 19.937"/>
        <path id="k" d="M.055 19.937c0 10.985 8.936 19.89 19.958 19.89 11.023 0 19.958-8.905 19.958-19.89 0-10.985-8.935-19.89-19.958-19.89C8.991.047.055 8.952.055 19.937"/>
        <path id="m" d="M.055 19.937c0 10.985 8.936 19.89 19.958 19.89 11.023 0 19.958-8.905 19.958-19.89 0-10.985-8.935-19.89-19.958-19.89C8.991.047.055 8.952.055 19.937"/>
        <path id="o" d="M.055 19.937c0 10.985 8.936 19.89 19.958 19.89 11.023 0 19.958-8.905 19.958-19.89 0-10.985-8.935-19.89-19.958-19.89C8.991.047.055 8.952.055 19.937"/>
        <path id="q" d="M.055 19.937c0 10.985 8.936 19.89 19.958 19.89 11.023 0 19.958-8.905 19.958-19.89 0-10.985-8.935-19.89-19.958-19.89C8.991.047.055 8.952.055 19.937z"/>
        <path id="s" d="M.055 19.937c0 10.985 8.936 19.89 19.958 19.89 11.023 0 19.958-8.905 19.958-19.89 0-10.985-8.935-19.89-19.958-19.89C8.991.047.055 8.952.055 19.937"/>
        <path id="u" d="M.055 19.937c0 10.985 8.936 19.89 19.958 19.89 11.023 0 19.958-8.905 19.958-19.89 0-10.985-8.935-19.89-19.958-19.89C8.991.047.055 8.952.055 19.937"/>
        <path id="w" d="M.055 19.937c0 10.985 8.936 19.89 19.958 19.89 11.023 0 19.958-8.905 19.958-19.89 0-10.985-8.935-19.89-19.958-19.89C8.991.047.055 8.952.055 19.937"/>
        <path id="y" d="M.055 19.937c0 10.985 8.936 19.89 19.958 19.89 11.023 0 19.958-8.905 19.958-19.89 0-10.985-8.935-19.89-19.958-19.89C8.991.047.055 8.952.055 19.937"/>
        <path id="A" d="M.055 19.937c0 10.985 8.936 19.89 19.958 19.89 11.023 0 19.958-8.905 19.958-19.89 0-10.985-8.935-19.89-19.958-19.89C8.991.047.055 8.952.055 19.937"/>
        <path id="C" d="M.055 19.937c0 10.985 8.936 19.89 19.958 19.89 11.023 0 19.958-8.905 19.958-19.89 0-10.985-8.935-19.89-19.958-19.89C8.991.047.055 8.952.055 19.937"/>
        <path id="E" d="M.055 19.937c0 10.985 8.936 19.89 19.958 19.89 11.023 0 19.958-8.905 19.958-19.89 0-10.985-8.935-19.89-19.958-19.89C8.991.047.055 8.952.055 19.937"/>
        <path id="G" d="M.055 19.937c0 10.985 8.936 19.89 19.958 19.89 11.023 0 19.958-8.905 19.958-19.89 0-10.985-8.935-19.89-19.958-19.89C8.991.047.055 8.952.055 19.937"/>
        <path id="I" d="M.055 19.937c0 10.985 8.936 19.89 19.958 19.89 11.023 0 19.958-8.905 19.958-19.89 0-10.985-8.935-19.89-19.958-19.89C8.991.047.055 8.952.055 19.937"/>
        <path id="K" d="M.055 19.937c0 10.985 8.936 19.89 19.958 19.89 11.023 0 19.958-8.905 19.958-19.89 0-10.985-8.935-19.89-19.958-19.89C8.991.047.055 8.952.055 19.937"/>
        <path id="M" d="M.055 19.937c0 10.985 8.936 19.89 19.958 19.89 11.023 0 19.958-8.905 19.958-19.89 0-10.985-8.935-19.89-19.958-19.89C8.991.047.055 8.952.055 19.937"/>
        <path id="O" d="M.055 19.937c0 10.985 8.936 19.89 19.958 19.89 11.023 0 19.958-8.905 19.958-19.89 0-10.985-8.935-19.89-19.958-19.89C8.991.047.055 8.952.055 19.937z"/>
        <path id="Q" d="M.055 19.937c0 10.985 8.936 19.89 19.958 19.89 11.023 0 19.958-8.905 19.958-19.89 0-10.985-8.935-19.89-19.958-19.89C8.991.047.055 8.952.055 19.937z"/>
        <path id="S" d="M.055 19.937c0 10.985 8.936 19.89 19.958 19.89 11.023 0 19.958-8.905 19.958-19.89 0-10.985-8.935-19.89-19.958-19.89C8.991.047.055 8.952.055 19.937z"/>
        <path id="U" d="M.055 19.937c0 10.985 8.936 19.89 19.958 19.89 11.023 0 19.958-8.905 19.958-19.89 0-10.985-8.935-19.89-19.958-19.89C8.991.047.055 8.952.055 19.937"/>
        <path id="W" d="M.055 19.937c0 10.985 8.936 19.89 19.958 19.89 11.023 0 19.958-8.905 19.958-19.89 0-10.985-8.935-19.89-19.958-19.89C8.991.047.055 8.952.055 19.937"/>
        <path id="Y" d="M.055 19.937c0 10.985 8.936 19.89 19.958 19.89 11.023 0 19.958-8.905 19.958-19.89 0-10.985-8.935-19.89-19.958-19.89C8.991.047.055 8.952.055 19.937"/>
        <path id="aa" d="M.055 19.937c0 10.985 8.936 19.89 19.958 19.89 11.023 0 19.958-8.905 19.958-19.89 0-10.985-8.935-19.89-19.958-19.89C8.991.047.055 8.952.055 19.937"/>
        <path id="ac" d="M.055 19.937c0 10.985 8.936 19.89 19.958 19.89 11.023 0 19.958-8.905 19.958-19.89 0-10.985-8.935-19.89-19.958-19.89C8.991.047.055 8.952.055 19.937"/>
        <path id="ae" d="M.055 19.937c0 10.985 8.936 19.89 19.958 19.89 11.023 0 19.958-8.905 19.958-19.89 0-10.985-8.935-19.89-19.958-19.89C8.991.047.055 8.952.055 19.937"/>
        <path id="ag" d="M.055 19.937c0 10.985 8.936 19.89 19.958 19.89 11.023 0 19.958-8.905 19.958-19.89 0-10.985-8.935-19.89-19.958-19.89C8.991.047.055 8.952.055 19.937"/>
        <path id="ai" d="M.055 19.937c0 10.985 8.936 19.89 19.958 19.89 11.023 0 19.958-8.905 19.958-19.89 0-10.985-8.935-19.89-19.958-19.89C8.991.047.055 8.952.055 19.937"/>
        <path id="ak" d="M.055 19.937c0 10.985 8.936 19.89 19.958 19.89 11.023 0 19.958-8.905 19.958-19.89 0-10.985-8.935-19.89-19.958-19.89C8.991.047.055 8.952.055 19.937"/>
        <path id="am" d="M.055 19.937c0 10.985 8.936 19.89 19.958 19.89 11.023 0 19.958-8.905 19.958-19.89 0-10.985-8.935-19.89-19.958-19.89C8.991.047.055 8.952.055 19.937z"/>
        <path id="ao" d="M.055 19.937c0 10.985 8.936 19.89 19.958 19.89 11.023 0 19.958-8.905 19.958-19.89 0-10.985-8.935-19.89-19.958-19.89C8.991.047.055 8.952.055 19.937z"/>
        <path id="aq" d="M.055 19.937c0 10.985 8.936 19.89 19.958 19.89 11.023 0 19.958-8.905 19.958-19.89 0-10.985-8.935-19.89-19.958-19.89C8.991.047.055 8.952.055 19.937"/>
        <path id="as" d="M.055 19.937c0 10.985 8.936 19.89 19.958 19.89 11.023 0 19.958-8.905 19.958-19.89 0-10.985-8.935-19.89-19.958-19.89C8.991.047.055 8.952.055 19.937"/>
        <path id="au" d="M.055 19.937c0 10.985 8.936 19.89 19.958 19.89 11.023 0 19.958-8.905 19.958-19.89 0-10.985-8.935-19.89-19.958-19.89C8.991.047.055 8.952.055 19.937"/>
        <path id="aw" d="M.055 19.937c0 10.985 8.936 19.89 19.958 19.89 11.023 0 19.958-8.905 19.958-19.89 0-10.985-8.935-19.89-19.958-19.89C8.991.047.055 8.952.055 19.937"/>
        <path id="ay" d="M.055 19.937c0 10.985 8.936 19.89 19.958 19.89 11.023 0 19.958-8.905 19.958-19.89 0-10.985-8.935-19.89-19.958-19.89C8.991.047.055 8.952.055 19.937"/>
        <path id="aA" d="M.055 19.937c0 10.985 8.936 19.89 19.958 19.89 11.023 0 19.958-8.905 19.958-19.89 0-10.985-8.935-19.89-19.958-19.89C8.991.047.055 8.952.055 19.937"/>
        <path id="aC" d="M.055 19.937c0 10.985 8.936 19.89 19.958 19.89 11.023 0 19.958-8.905 19.958-19.89 0-10.985-8.935-19.89-19.958-19.89C8.991.047.055 8.952.055 19.937"/>
        <path id="aE" d="M.055 19.937c0 10.985 8.936 19.89 19.958 19.89 11.023 0 19.958-8.905 19.958-19.89 0-10.985-8.935-19.89-19.958-19.89C8.991.047.055 8.952.055 19.937"/>
        <path id="aG" d="M.055 19.937c0 10.985 8.936 19.89 19.958 19.89 11.023 0 19.958-8.905 19.958-19.89 0-10.985-8.935-19.89-19.958-19.89C8.991.047.055 8.952.055 19.937"/>
        <path id="aI" d="M.055 19.937c0 10.985 8.936 19.89 19.958 19.89 11.023 0 19.958-8.905 19.958-19.89 0-10.985-8.935-19.89-19.958-19.89C8.991.047.055 8.952.055 19.937"/>
        <path id="aK" d="M.055 19.937c0 10.985 8.936 19.89 19.958 19.89 11.023 0 19.958-8.905 19.958-19.89 0-10.985-8.935-19.89-19.958-19.89C8.991.047.055 8.952.055 19.937"/>
        <path id="aM" d="M.055 19.937c0 10.985 8.936 19.89 19.958 19.89 11.023 0 19.958-8.905 19.958-19.89 0-10.985-8.935-19.89-19.958-19.89C8.991.047.055 8.952.055 19.937"/>
        <path id="aO" d="M.055 19.937c0 10.985 8.936 19.89 19.958 19.89 11.023 0 19.958-8.905 19.958-19.89 0-10.985-8.935-19.89-19.958-19.89C8.991.047.055 8.952.055 19.937"/>
        <path id="aQ" d="M.055 19.937c0 10.985 8.936 19.89 19.958 19.89 11.023 0 19.958-8.905 19.958-19.89 0-10.985-8.935-19.89-19.958-19.89C8.991.047.055 8.952.055 19.937"/>
        <path id="aS" d="M.055 19.937c0 10.985 8.936 19.89 19.958 19.89 11.023 0 19.958-8.905 19.958-19.89 0-10.985-8.935-19.89-19.958-19.89C8.991.047.055 8.952.055 19.937"/>
        <path id="aU" d="M.055 19.937c0 10.985 8.936 19.89 19.958 19.89 11.023 0 19.958-8.905 19.958-19.89 0-10.985-8.935-19.89-19.958-19.89C8.991.047.055 8.952.055 19.937"/>
        <path id="aW" d="M.055 19.937c0 10.985 8.936 19.89 19.958 19.89 11.023 0 19.958-8.905 19.958-19.89 0-10.985-8.935-19.89-19.958-19.89C8.991.047.055 8.952.055 19.937"/>
        <path id="aY" d="M.055 19.937c0 10.985 8.936 19.89 19.958 19.89 11.023 0 19.958-8.905 19.958-19.89 0-10.985-8.935-19.89-19.958-19.89C8.991.047.055 8.952.055 19.937"/>
        <path id="ba" d="M.055 19.937c0 10.985 8.936 19.89 19.958 19.89 11.023 0 19.958-8.905 19.958-19.89 0-10.985-8.935-19.89-19.958-19.89C8.991.047.055 8.952.055 19.937"/>
        <path id="bc" d="M.055 19.937c0 10.985 8.936 19.89 19.958 19.89 11.023 0 19.958-8.905 19.958-19.89 0-10.985-8.935-19.89-19.958-19.89C8.991.047.055 8.952.055 19.937"/>
        <path id="be" d="M.055 19.937c0 10.985 8.936 19.89 19.958 19.89 11.023 0 19.958-8.905 19.958-19.89 0-10.985-8.935-19.89-19.958-19.89C8.991.047.055 8.952.055 19.937"/>
        <path id="bg" d="M.055 19.937c0 10.985 8.936 19.89 19.958 19.89 11.023 0 19.958-8.905 19.958-19.89 0-10.985-8.935-19.89-19.958-19.89C8.991.047.055 8.952.055 19.937"/>
        <path id="bi" d="M.055 19.937c0 10.985 8.936 19.89 19.958 19.89 11.023 0 19.958-8.905 19.958-19.89 0-10.985-8.935-19.89-19.958-19.89C8.991.047.055 8.952.055 19.937"/>
        <path id="bk" d="M.055 19.937c0 10.985 8.936 19.89 19.958 19.89 11.023 0 19.958-8.905 19.958-19.89 0-10.985-8.935-19.89-19.958-19.89C8.991.047.055 8.952.055 19.937"/>
        <path id="bm" d="M.055 19.937c0 10.985 8.936 19.89 19.958 19.89 11.023 0 19.958-8.905 19.958-19.89 0-10.985-8.935-19.89-19.958-19.89C8.991.047.055 8.952.055 19.937"/>
        <path id="bo" d="M.055 19.937c0 10.985 8.936 19.89 19.958 19.89 11.023 0 19.958-8.905 19.958-19.89 0-10.985-8.935-19.89-19.958-19.89C8.991.047.055 8.952.055 19.937"/>
        <path id="bq" d="M.055 19.937c0 10.985 8.936 19.89 19.958 19.89 11.023 0 19.958-8.905 19.958-19.89 0-10.985-8.935-19.89-19.958-19.89C8.991.047.055 8.952.055 19.937"/>
        <path id="bs" d="M.055 19.937c0 10.985 8.936 19.89 19.958 19.89 11.023 0 19.958-8.905 19.958-19.89 0-10.985-8.935-19.89-19.958-19.89C8.991.047.055 8.952.055 19.937"/>
        <path id="bu" d="M.055 19.937c0 10.985 8.936 19.89 19.958 19.89 11.023 0 19.958-8.905 19.958-19.89 0-10.985-8.935-19.89-19.958-19.89C8.991.047.055 8.952.055 19.937"/>
        <path id="bw" d="M.055 19.937c0 10.985 8.936 19.89 19.958 19.89 11.023 0 19.958-8.905 19.958-19.89 0-10.985-8.935-19.89-19.958-19.89C8.991.047.055 8.952.055 19.937"/>
        <path id="by" d="M.055 19.937c0 10.985 8.936 19.89 19.958 19.89 11.023 0 19.958-8.905 19.958-19.89 0-10.985-8.935-19.89-19.958-19.89C8.991.047.055 8.952.055 19.937"/>
        <path id="bA" d="M.055 19.937c0 10.985 8.936 19.89 19.958 19.89 11.023 0 19.958-8.905 19.958-19.89 0-10.985-8.935-19.89-19.958-19.89C8.991.047.055 8.952.055 19.937"/>
        <path id="bC" d="M.055 19.937c0 10.985 8.936 19.89 19.958 19.89 11.023 0 19.958-8.905 19.958-19.89 0-10.985-8.935-19.89-19.958-19.89C8.991.047.055 8.952.055 19.937"/>
        <path id="bE" d="M.055 19.937c0 10.985 8.936 19.89 19.958 19.89 11.023 0 19.958-8.905 19.958-19.89 0-10.985-8.935-19.89-19.958-19.89C8.991.047.055 8.952.055 19.937"/>
        <path id="bG" d="M.055 19.937c0 10.985 8.936 19.89 19.958 19.89 11.023 0 19.958-8.905 19.958-19.89 0-10.985-8.935-19.89-19.958-19.89C8.991.047.055 8.952.055 19.937"/>
        <path id="bI" d="M.055 19.937c0 10.985 8.936 19.89 19.958 19.89 11.023 0 19.958-8.905 19.958-19.89 0-10.985-8.935-19.89-19.958-19.89C8.991.047.055 8.952.055 19.937"/>
        <path id="bK" d="M.055 19.937c0 10.985 8.936 19.89 19.958 19.89 11.023 0 19.958-8.905 19.958-19.89 0-10.985-8.935-19.89-19.958-19.89C8.991.047.055 8.952.055 19.937"/>
        <path id="bM" d="M.055 19.937c0 10.985 8.936 19.89 19.958 19.89 11.023 0 19.958-8.905 19.958-19.89 0-10.985-8.935-19.89-19.958-19.89C8.991.047.055 8.952.055 19.937"/>
        <path id="bO" d="M.055 19.937c0 10.985 8.936 19.89 19.958 19.89 11.023 0 19.958-8.905 19.958-19.89 0-10.985-8.935-19.89-19.958-19.89C8.991.047.055 8.952.055 19.937"/>
        <path id="bQ" d="M.055 19.937c0 10.985 8.936 19.89 19.958 19.89 11.023 0 19.958-8.905 19.958-19.89 0-10.985-8.935-19.89-19.958-19.89C8.991.047.055 8.952.055 19.937"/>
        <path id="bS" d="M.055 19.937c0 10.985 8.936 19.89 19.958 19.89 11.023 0 19.958-8.905 19.958-19.89 0-10.985-8.935-19.89-19.958-19.89C8.991.047.055 8.952.055 19.937"/>
        <path id="bU" d="M.055 19.937c0 10.985 8.936 19.89 19.958 19.89 11.023 0 19.958-8.905 19.958-19.89 0-10.985-8.935-19.89-19.958-19.89C8.991.047.055 8.952.055 19.937"/>
        <path id="bW" d="M.055 19.937c0 10.985 8.936 19.89 19.958 19.89 11.023 0 19.958-8.905 19.958-19.89 0-10.985-8.935-19.89-19.958-19.89C8.991.047.055 8.952.055 19.937"/>
        <path id="bY" d="M.055 19.937c0 10.985 8.936 19.89 19.958 19.89 11.023 0 19.958-8.905 19.958-19.89 0-10.985-8.935-19.89-19.958-19.89C8.991.047.055 8.952.055 19.937"/>
        <path id="ca" d="M.055 19.937c0 10.985 8.936 19.89 19.958 19.89 11.023 0 19.958-8.905 19.958-19.89 0-10.985-8.935-19.89-19.958-19.89C8.991.047.055 8.952.055 19.937"/>
        <path id="cc" d="M.055 19.937c0 10.985 8.936 19.89 19.958 19.89 11.023 0 19.958-8.905 19.958-19.89 0-10.985-8.935-19.89-19.958-19.89C8.991.047.055 8.952.055 19.937"/>
        <path id="ce" d="M.055 19.937c0 10.985 8.936 19.89 19.958 19.89 11.023 0 19.958-8.905 19.958-19.89 0-10.985-8.935-19.89-19.958-19.89C8.991.047.055 8.952.055 19.937"/>
        <path id="cg" d="M.055 19.937c0 10.985 8.936 19.89 19.958 19.89 11.023 0 19.958-8.905 19.958-19.89 0-10.985-8.935-19.89-19.958-19.89C8.991.047.055 8.952.055 19.937"/>
        <path id="ci" d="M.055 19.937c0 10.985 8.936 19.89 19.958 19.89 11.023 0 19.958-8.905 19.958-19.89 0-10.985-8.935-19.89-19.958-19.89C8.991.047.055 8.952.055 19.937"/>
        <path id="ck" d="M.055 19.937c0 10.985 8.936 19.89 19.958 19.89 11.023 0 19.958-8.905 19.958-19.89 0-10.985-8.935-19.89-19.958-19.89C8.991.047.055 8.952.055 19.937"/>
        <path id="cm" d="M.055 19.937c0 10.985 8.936 19.89 19.958 19.89 11.023 0 19.958-8.905 19.958-19.89 0-10.985-8.935-19.89-19.958-19.89C8.991.047.055 8.952.055 19.937"/>
        <path id="co" d="M.055 19.937c0 10.985 8.936 19.89 19.958 19.89 11.023 0 19.958-8.905 19.958-19.89 0-10.985-8.935-19.89-19.958-19.89C8.991.047.055 8.952.055 19.937"/>
        <path id="cq" d="M.055 19.937c0 10.985 8.936 19.89 19.958 19.89 11.023 0 19.958-8.905 19.958-19.89 0-10.985-8.935-19.89-19.958-19.89C8.991.047.055 8.952.055 19.937"/>
    </defs>
    <g fill="none" fill-rule="evenodd">
        <g transform="translate(0 .09)">
            <mask id="b" fill="#fff">
                <use xlink:href="#a"/>
            </mask>
            <path fill="#A885D8" d="M39.972 19.937c0 10.985-8.936 19.89-19.959 19.89-11.022 0-19.958-8.905-19.958-19.89C.055 8.952 8.991.047 20.013.047c11.023 0 19.959 8.905 19.959 19.89" mask="url(#b)"/>
        </g>
        <g transform="translate(0 .09)">
            <mask id="d" fill="#fff">
                <use xlink:href="#c"/>
            </mask>
            <path fill="#725048" d="M20.784 15.744s-.71-.541-.822-.617c-.112-.077-.351.568-.108.763l.93-.146z" mask="url(#d)"/>
        </g>
        <g transform="translate(0 .09)">
            <mask id="f" fill="#fff">
                <use xlink:href="#e"/>
            </mask>
            <path fill="#725048" d="M19.821 15.93s-.71-.541-.822-.617c-.111-.076-.35.568-.108.763l.93-.146z" mask="url(#f)"/>
        </g>
        <g transform="translate(0 .09)">
            <mask id="h" fill="#fff">
                <use xlink:href="#g"/>
            </mask>
            <path fill="#725048" d="M19.04 16.288s-.71-.541-.821-.617c-.112-.077-.352.568-.109.763l.93-.146z" mask="url(#h)"/>
        </g>
        <g transform="translate(0 .09)">
            <mask id="j" fill="#fff">
                <use xlink:href="#i"/>
            </mask>
            <path fill="#5A5A5A" d="M14.613 21.857l8.941-1.447a.772.772 0 0 0 .628-.945l-.849-3.463a.774.774 0 0 0-.89-.576l-8.989 1.627a.772.772 0 0 0-.609.962l.897 3.283c.104.381.48.623.871.56" mask="url(#j)"/>
        </g>
        <g transform="translate(0 .09)">
            <mask id="l" fill="#fff">
                <use xlink:href="#k"/>
            </mask>
            <path fill="#8F8F8F" d="M14.628 22.148l8.941-1.447a.772.772 0 0 0 .628-.945l-.85-3.463a.774.774 0 0 0-.89-.576l-8.988 1.628a.771.771 0 0 0-.609.961l.897 3.284c.104.38.48.622.87.558" mask="url(#l)"/>
        </g>
        <g transform="translate(0 .09)">
            <mask id="n" fill="#fff">
                <use xlink:href="#m"/>
            </mask>
            <path fill="#71CEEE" d="M15.147 21.97l8.144-1.319a.703.703 0 0 0 .572-.86l-.774-3.155a.705.705 0 0 0-.81-.524l-8.188 1.482a.703.703 0 0 0-.554.876l.817 2.99a.705.705 0 0 0 .793.51" mask="url(#n)"/>
        </g>
        <g transform="translate(0 .09)">
            <mask id="p" fill="#fff">
                <use xlink:href="#o"/>
            </mask>
            <path fill="#725048" d="M10.983 27.206c.544.24 1.088.484 1.638.712.912-1.065 1.909-1.977 2.982-2.611 1.59-.94 3.664-.843 3.87-1.912.205-1.07.464-2.023.67-3.092.205-1.07.65-2.527-.238-1.424-.888 1.104-1.094 2.173-1.094 2.173l-3.948.833s-1.58 1.42-1.43 2.048c.067.285-1.057 1.66-2.45 3.273" mask="url(#p)"/>
        </g>
        <g transform="translate(0 .09)">
            <mask id="r" fill="#fff">
                <use xlink:href="#q"/>
            </mask>
            <path fill="#725048" d="M19.526 23.096l1.816-2.023-1.491.266z" mask="url(#r)"/>
        </g>
        <g transform="translate(0 .09)">
            <mask id="t" fill="#fff">
                <use xlink:href="#s"/>
            </mask>
            <path fill="#725048" d="M12.36 28.25c1.975-1.606 3.926-3.575 3.926-3.575l-2.853-.742A39.724 39.724 0 0 0 9.6 26.627c1.255.489 1.498 1.15 2.76 1.622" mask="url(#t)"/>
        </g>
        <g transform="translate(0 .09)">
            <mask id="v" fill="#fff">
                <use xlink:href="#u"/>
            </mask>
            <path fill="#FFD200" d="M15.51 26.087c-.076-1.334-1.777-1.799-2.849-2.082-.894-.237-2.183-.108-2.217 1.075-.013.48.736.556.75.073.026-.93 1.409-.398 1.894-.23.645.225 1.633.478 1.68 1.285.027.483.77.357.742-.12" mask="url(#v)"/>
        </g>
        <g transform="translate(0 .09)">
            <mask id="x" fill="#fff">
                <use xlink:href="#w"/>
            </mask>
            <path fill="#FFD200" d="M14.106 27.797c.576-.296 1.057-.796.754-1.485-.303-.688-1.256-1.012-1.916-1.194-.819-.226-3.835-.642-3.21 1.06.167.454.85.138.685-.313-.254-.689 5.21.307 3.372 1.25-.429.22-.117.904.315.682" mask="url(#x)"/>
        </g>
        <g transform="translate(0 .09)">
            <mask id="z" fill="#fff">
                <use xlink:href="#y"/>
            </mask>
            <path fill="#BF6024" d="M26.912 33.228s-10.246-2.02-11.179-1.09c-.932.93-1.28 8.543-.534 9.286.746.744 7.665-.35 7.665-.35s5.069-4.254 4.048-7.846" mask="url(#z)"/>
        </g>
        <g transform="translate(0 .09)">
            <mask id="B" fill="#fff">
                <use xlink:href="#A"/>
            </mask>
            <path fill="#FF7900" d="M34.723 42.706c-.042-1.482-1.364-7.21-4.657-9.18-1.275-.762-1.461-.446-2.892-.042l-4.032.115c-2.346.229-4.464 2-5.097 4.263-.12.426-.19.864-.294 1.294-.186.767-.478 1.504-.769 2.238l-2.823 7.124c-.175.441-.395.929-.84 1.094.786.534 1.554 1.099 2.327 1.653-1.056 2 5.088 7.473 2.008 12.53-3.975 6.525-8.77 20.95-9.242 25.081 1.023.435 23.111 11.769 33.74 1.009-2.803-3.378-9.317-24.648-9.417-28.42-.117-4.428 2.178-12.006 1.988-18.76" mask="url(#B)"/>
        </g>
        <g transform="translate(0 .09)">
            <mask id="D" fill="#fff">
                <use xlink:href="#C"/>
            </mask>
            <path fill="#000" d="M25.156 11.12c-1.86.003-3.564 1.283-4.9 2.446-1.135.987-2.03 2.523-2.454 3.95-.461 1.552-.878 3.688-.79 5.32.097 1.784.917 3.413-.534 4.923-.905.942-2.082 2.522-2.096 3.905a3.5 3.5 0 0 0 .034.511c.233-.2 1.677 1.436 2.069 1.56 1.823.573 2.602-.857 4.472-.477.557-1.517.641-3.334.193-4.552-.315-.853-1.01-1.67-1.45-2.496-1.685-3.159-1.06-9.235 2.218-11.224 1.326-.804 3.163-.482 4.565-1.147 2.444-1.158.587-2.722-1.327-2.719" mask="url(#D)"/>
        </g>
        <g transform="translate(0 .09)">
            <mask id="F" fill="#fff">
                <use xlink:href="#E"/>
            </mask>
            <path fill="#62352E" d="M21.154 30.332c.001 1.278-.05 2.788-.378 4.045 2.354-1.267 3.515-.397 5.228.43.193.092.33.215.421.354.782.608 1.723 1.182 2.705 1.325.334.048.684.028 1.02.013.07-.003.424-.08.67-.12-.04-.222.001-.482.001-.7v-2.32c-.745-.184-1.33-.372-1.62-1.324-.458-1.504-.768-2.945-1.017-4.501-.298-1.864.153-3.85-1.004-5.48-1.154 2.145-4.055 5.586-6.715 5.394.19.014.689 1.82.69 2.884" mask="url(#F)"/>
        </g>
        <g transform="translate(0 .09)">
            <mask id="H" fill="#fff">
                <use xlink:href="#G"/>
            </mask>
            <path fill="#725048" d="M22.62 14.047a5.25 5.25 0 0 1 1.842-.126c2.002.194 3.688 1.203 4.624 3.008.568 1.095.633 2.217.695 3.457.068 1.35-.116 2.833-.845 4.007-.508.82-1.332 1.43-2.166 1.89-.794.44-1.649.894-2.474 1.277-1.588.738-3.58.93-4.53-.845-.724-1.355-1.083-2.815-1.179-4.348-.2-3.207.75-7.462 4.034-8.32" mask="url(#H)"/>
        </g>
        <g transform="translate(0 .09)">
            <mask id="J" fill="#fff">
                <use xlink:href="#I"/>
            </mask>
            <path fill="#000" d="M26.16 19.154c.364.105 1.145.23 1.103.782.002-.017-.087-.036-.226-.055-.426-.056-1.311-.11-1.402-.125-.564-.09-.574-.584-.46-1.084.337.182.615.376.985.482" mask="url(#J)"/>
        </g>
        <g transform="translate(0 .09)">
            <mask id="L" fill="#fff">
                <use xlink:href="#K"/>
            </mask>
            <path fill="#000" d="M20.848 18.06c.093.016 1.142.247 1.168.164-.123.408-.252.706-.557.744a.84.84 0 0 1-.374-.055c-.086-.03-1.134-.58-1.157-.482.14-.584.443-.456.92-.371" mask="url(#L)"/>
        </g>
        <g transform="translate(0 .09)">
            <mask id="N" fill="#fff">
                <use xlink:href="#M"/>
            </mask>
            <path fill="#725048" d="M21.518 22.182c.136-.106.267-.221.345-.365.234-.438.294-.967.552-1.384.85.076.257 2.254-.076 2.613-.44.474-1.72.472-1.262-.449.074-.15.26-.274.44-.415" mask="url(#N)"/>
        </g>
        <g transform="translate(0 .09)">
            <mask id="P" fill="#fff">
                <use xlink:href="#O"/>
            </mask>
            <path fill="#EDDFD6" d="M24.63 21.468a1.006 1.006 0 0 0 .043-.007l-.044.007z" mask="url(#P)"/>
        </g>
        <g transform="translate(0 .09)">
            <mask id="R" fill="#fff">
                <use xlink:href="#Q"/>
            </mask>
            <path fill="#000" d="M19.822 20.075c-.176.406-.178.734-.003.923.161.176.467.228.76.13.308-.102.508-.34.537-.634l.337.032c-.042.432-.328.776-.766.923-.418.14-.867.05-1.117-.222-.157-.17-.373-.563-.059-1.286l.31.134z" mask="url(#R)"/>
        </g>
        <g transform="translate(0 .09)">
            <mask id="T" fill="#fff">
                <use xlink:href="#S"/>
            </mask>
            <path fill="#000" d="M24.92 20.778c-.213.613-.178 1.092.098 1.35.255.237.707.28 1.125.104.435-.183.703-.551.712-.985l.496.01c-.013.635-.393 1.17-1.016 1.431-.594.25-1.26.169-1.656-.2-.248-.231-.606-.782-.228-1.872l.47.162z" mask="url(#T)"/>
        </g>
        <g transform="translate(0 .09)">
            <mask id="V" fill="#fff">
                <use xlink:href="#U"/>
            </mask>
            <path fill="#62352E" d="M24.52 23.671c.411-.678 2.464-.45 1.845.726-.493.938-2.552.299-1.86-.705-.044.082-.006.017.015-.02" mask="url(#V)"/>
        </g>
        <g transform="translate(0 .09)">
            <mask id="X" fill="#fff">
                <use xlink:href="#W"/>
            </mask>
            <path fill="#62352E" d="M19.03 22.78c.314-.52 1.89-.346 1.415.557-.379.72-1.958.23-1.427-.541-.033.063-.005.013.011-.017" mask="url(#X)"/>
        </g>
        <g transform="translate(0 .09)">
            <mask id="Z" fill="#fff">
                <use xlink:href="#Y"/>
            </mask>
            <path fill="#5C7393" d="M21.807 24.255a.264.264 0 0 1 .24.281c-.018.188.025.372.061.556.066.338-.435.448-.5.11-.044-.226-.093-.46-.071-.692.014-.146.126-.261.27-.255" mask="url(#Z)"/>
        </g>
        <g transform="translate(0 .09)">
            <mask id="ab" fill="#fff">
                <use xlink:href="#aa"/>
            </mask>
            <path fill="#62352E" d="M23.814 24.525c.081.02.085.429.069.427a.102.102 0 0 1-.043-.014c-.09-.053-.16-.446-.026-.413" mask="url(#ab)"/>
        </g>
        <g transform="translate(0 .09)">
            <mask id="ad" fill="#fff">
                <use xlink:href="#ac"/>
            </mask>
            <path fill="#FFF" d="M23.463 24.763c.06.004-.173.303-.212.326-1.134.686-2.713.586-2.877-.984.326.268 1.001.305 1.403.385.566.115 1.109.24 1.686.273" mask="url(#ad)"/>
        </g>
        <g transform="translate(0 .09)">
            <mask id="af" fill="#fff">
                <use xlink:href="#ae"/>
            </mask>
            <path fill="#62352E" d="M20.6 23.945c.119-.058.275-.192.41-.171.163.025.344.202.407.353.125-.095.242-.206.413-.179.284.047.554.195.79.339.275.166.602.356.926.427.039.01-.118.071-.127.073-.052.01-1.415-.1-1.836-.195-.275-.06-.55-.108-.805-.228-.1-.048-.203-.078-.298-.137-.008-.006-.164-.133-.118-.137.073-.006.172-.112.239-.145" mask="url(#af)"/>
        </g>
        <g transform="translate(0 .09)">
            <mask id="ah" fill="#fff">
                <use xlink:href="#ag"/>
            </mask>
            <path fill="#62352E" d="M21.028 25.216l.077.041c.458.22 1.019.227 1.495.106.22-.056.436-.135.583-.255.138-.114.211-.238.31-.37.035.114-.087.325-.154.42-.347.49-.934.879-1.553.855-.382-.015-.82-.116-1.084-.414-.262-.295-.196-.803-.292-1.172-.023-.089.006-.192-.025-.276.155.425.244.831.643 1.065" mask="url(#ah)"/>
        </g>
        <g transform="translate(0 .09)">
            <mask id="aj" fill="#fff">
                <use xlink:href="#ai"/>
            </mask>
            <path fill="#000" d="M26.492 11.605a3.487 3.487 0 0 1 2.28-.146c1.685.469 2.845 1.934 3.787 3.313.897 1.314 2.897 1.356 3.887 2.716 2.058 2.83-.992 6.157.973 8.907.98 1.37 2.663 2.223 2.816 4.059.258 3.118-3.139 4.981-5.91 5.15-2.902.177-6.45-.856-6.144-4.347.074-.846.24-1.26-.151-2.07-.208-.43-.437-.814-.527-1.29-.244-1.297.103-2.386.864-3.438.649-.897.982-2.02 1.243-3.08.412-1.668-.184-3.452-1.242-4.762-.544-.672-1.189-1.129-1.913-1.583-.586-.368-2.171-.664-2.095-1.497.073-.794 1.492-1.67 2.132-1.932" mask="url(#aj)"/>
        </g>
        <g transform="translate(0 .09)">
            <mask id="al" fill="#fff">
                <use xlink:href="#ak"/>
            </mask>
            <path fill="#725048" d="M30.352 21.375c1.33.269.961 2.407-.11 2.782-.052.017-.19.013-.368 0-.498-.037-1.302-.143-1.339-.032.27-.82.479-3.02 1.817-2.75" mask="url(#al)"/>
        </g>
        <g transform="translate(0 .09)">
            <mask id="an" fill="#fff">
                <use xlink:href="#am"/>
            </mask>
            <path fill="#62352E" d="M30.427 22.628c.008.374-.068.963-.6.669.062-.293.154-.585.235-.875l.365.206z" mask="url(#an)"/>
        </g>
        <g transform="translate(0 .09)">
            <mask id="ap" fill="#fff">
                <use xlink:href="#ao"/>
            </mask>
            <path fill="#FFD200" d="M32.786 19.297s-8.71-8.042-12.534-5.916c0 0-1.111 1.931-1.07 2.372.041.44-1.778-1.507-1.6-2.127.177-.62 1.867-3.545 1.689-3.988-.178-.443 2.045-2.747 2.045-2.747l1.334-2.924 7.024.177s6.402 1.152 6.402 1.595c0 .443.622 4.697.178 4.608-.445-.088-1.69.532-1.69.532l2.223 5.05-2.845 2.128v1.86l-.63 1.408-.526-2.028z" mask="url(#ap)"/>
        </g>
        <g transform="translate(0 .09)">
            <mask id="ar" fill="#fff">
                <use xlink:href="#aq"/>
            </mask>
            <path fill="#000" d="M19.894 36.849l-.209.208c-.228.228.126.582.355.354l.21-.209c.228-.227-.127-.581-.356-.353" mask="url(#ar)"/>
        </g>
        <g transform="translate(0 .09)">
            <mask id="at" fill="#fff">
                <use xlink:href="#as"/>
            </mask>
            <path fill="#000" d="M18.819 39.53l-.615.637c-.224.232.13.586.354.353l.615-.637c.225-.232-.13-.586-.354-.353" mask="url(#at)"/>
        </g>
        <g transform="translate(0 .09)">
            <mask id="av" fill="#fff">
                <use xlink:href="#au"/>
            </mask>
            <path fill="#000" d="M21.587 35.871l.68-.472c.11-.077.162-.219.09-.342-.065-.11-.232-.167-.344-.09l-.679.472c-.111.077-.162.22-.09.342.064.11.231.168.343.09" mask="url(#av)"/>
        </g>
        <g transform="translate(0 .09)">
            <mask id="ax" fill="#fff">
                <use xlink:href="#aw"/>
            </mask>
            <path fill="#000" d="M23.729 35.39a.703.703 0 0 1 .676.101c.262.189.513-.245.253-.432a1.173 1.173 0 0 0-1.063-.152c-.303.105-.173.588.134.482" mask="url(#ax)"/>
        </g>
        <g transform="translate(0 .09)">
            <mask id="az" fill="#fff">
                <use xlink:href="#ay"/>
            </mask>
            <path fill="#FFD200" d="M21.17 34.584c2.494-1.866 4.364.98 6.517 1.875 1.001.416 4.556.685 3.751-1.386-.205-.529-1.363-.203-1.163.31l-.427.588-.511-.022a3.684 3.684 0 0 1-.981-.282c-.525-.225-.998-.535-1.455-.875-.707-.527-1.384-1.123-2.221-1.44-1.45-.551-3.067-.22-4.285.69-.63.472.307.892.774.542" mask="url(#az)"/>
        </g>
        <g transform="translate(0 .09)">
            <mask id="aB" fill="#fff">
                <use xlink:href="#aA"/>
            </mask>
            <path fill="#000" d="M24.598 35.81a1.068 1.068 0 0 0-1.243.481c-.16.28.273.532.434.252a.563.563 0 0 1 .676-.252c.307.101.44-.382.133-.482" mask="url(#aB)"/>
        </g>
        <g transform="translate(0 .09)">
            <mask id="aD" fill="#fff">
                <use xlink:href="#aC"/>
            </mask>
            <path fill="#000" d="M22.186 36.952a2.42 2.42 0 0 0-.916 1.078c-.053.125-.037.267.09.342.105.063.29.035.343-.09.157-.368.4-.678.736-.898.269-.176.018-.61-.253-.432" mask="url(#aD)"/>
        </g>
        <g transform="translate(0 .09)">
            <mask id="aF" fill="#fff">
                <use xlink:href="#aE"/>
            </mask>
            <path fill="#000" d="M20.546 39.733l-.474.867c-.154.283.279.536.433.253l.474-.868c.154-.283-.279-.535-.433-.252" mask="url(#aF)"/>
        </g>
        <g transform="translate(0 .09)">
            <mask id="aH" fill="#fff">
                <use xlink:href="#aG"/>
            </mask>
            <path fill="#000" d="M25.041 36.812c-.498.1-.92.403-1.191.83-.173.272.26.523.433.252.204-.322.519-.525.891-.6.317-.063.183-.546-.133-.482" mask="url(#aH)"/>
        </g>
        <g transform="translate(0 .09)">
            <mask id="aJ" fill="#fff">
                <use xlink:href="#aI"/>
            </mask>
            <path fill="#000" d="M22.869 39.165l-.46.97c-.137.289.295.543.433.252l.46-.97c.137-.289-.295-.543-.433-.252" mask="url(#aJ)"/>
        </g>
        <g transform="translate(0 .09)">
            <mask id="aL" fill="#fff">
                <use xlink:href="#aK"/>
            </mask>
            <path fill="#000" d="M25.165 38.766c-.317.19-.576.46-.743.79-.145.286.288.54.433.252.13-.256.316-.463.563-.61.277-.165.025-.598-.253-.432" mask="url(#aL)"/>
        </g>
        <g transform="translate(0 .09)">
            <mask id="aN" fill="#fff">
                <use xlink:href="#aM"/>
            </mask>
            <path fill="#000" d="M19.377 12.703a.772.772 0 0 1 .753-.244c.314.072.448-.41.133-.482a1.284 1.284 0 0 0-1.241.372c-.218.237.136.592.355.354" mask="url(#aN)"/>
        </g>
        <g transform="translate(0 .09)">
            <mask id="aP" fill="#fff">
                <use xlink:href="#aO"/>
            </mask>
            <path fill="#000" d="M21.298 12.387c.467.006.902.124 1.308.353.282.159.535-.273.253-.432a3.24 3.24 0 0 0-1.561-.421c-.323-.005-.323.495 0 .5" mask="url(#aP)"/>
        </g>
        <g transform="translate(0 .09)">
            <mask id="aR" fill="#fff">
                <use xlink:href="#aQ"/>
            </mask>
            <path fill="#000" d="M24.021 13.092l.89.416c.29.136.545-.295.253-.432l-.89-.416c-.29-.136-.545.295-.253.432" mask="url(#aR)"/>
        </g>
        <g transform="translate(0 .09)">
            <mask id="aT" fill="#fff">
                <use xlink:href="#aS"/>
            </mask>
            <path fill="#000" d="M26.64 14.106l1.244.703c.281.159.535-.273.253-.432l-1.244-.702c-.281-.16-.535.273-.253.431" mask="url(#aT)"/>
        </g>
        <g transform="translate(0 .09)">
            <mask id="aV" fill="#fff">
                <use xlink:href="#aU"/>
            </mask>
            <path fill="#000" d="M29.798 15.777l1.205.99c.247.202.604-.15.354-.354l-1.205-.99c-.247-.202-.604.15-.354.354" mask="url(#aV)"/>
        </g>
        <g transform="translate(0 .09)">
            <mask id="aX" fill="#fff">
                <use xlink:href="#aW"/>
            </mask>
            <path fill="#000" d="M32.402 17.91l.885 1.2c.19.256.625.007.433-.252l-.885-1.2c-.19-.256-.625-.007-.433.253" mask="url(#aX)"/>
        </g>
        <g transform="translate(0 .09)">
            <mask id="aZ" fill="#fff">
                <use xlink:href="#aY"/>
            </mask>
            <path fill="#000" d="M18.9 14.573c.043-.297.163-.554.378-.766.228-.228-.126-.582-.355-.354-.27.268-.452.61-.506.987-.02.134.033.267.175.307.118.034.29-.04.309-.174" mask="url(#aZ)"/>
        </g>
        <g transform="translate(0 .09)">
            <mask id="bb" fill="#fff">
                <use xlink:href="#ba"/>
            </mask>
            <path fill="#000" d="M19.482 10.836l.777-.758c.23-.226-.124-.58-.355-.354l-.776.759c-.231.225.124.579.354.353" mask="url(#bb)"/>
        </g>
        <g transform="translate(0 .09)">
            <mask id="bd" fill="#fff">
                <use xlink:href="#bc"/>
            </mask>
            <path fill="#000" d="M21.299 10.17l1.645-.132c.32-.025.323-.526 0-.5L21.3 9.67c-.32.025-.323.526 0 .5" mask="url(#bd)"/>
        </g>
        <g transform="translate(0 .09)">
            <mask id="bf" fill="#fff">
                <use xlink:href="#be"/>
            </mask>
            <path fill="#000" d="M24.418 10.473l1.548.519c.306.102.438-.38.133-.483l-1.548-.518c-.306-.102-.438.38-.133.482" mask="url(#bf)"/>
        </g>
        <g transform="translate(0 .09)">
            <mask id="bh" fill="#fff">
                <use xlink:href="#bg"/>
            </mask>
            <path fill="#000" d="M27.6 11.906a7.086 7.086 0 0 1 1.476.741c.271.177.523-.256.254-.432a7.656 7.656 0 0 0-1.597-.792c-.304-.11-.435.374-.133.483" mask="url(#bh)"/>
        </g>
        <g transform="translate(0 .09)">
            <mask id="bj" fill="#fff">
                <use xlink:href="#bi"/>
            </mask>
            <path fill="#000" d="M30.385 13.868c.49.269.916.611 1.286 1.029.214.242.567-.113.355-.354a5.16 5.16 0 0 0-1.387-1.106c-.283-.156-.537.276-.254.431" mask="url(#bj)"/>
        </g>
        <g transform="translate(0 .09)">
            <mask id="bl" fill="#fff">
                <use xlink:href="#bk"/>
            </mask>
            <path fill="#000" d="M33.085 16.006c.407.352.73.765.973 1.246.145.287.578.034.433-.253a4.391 4.391 0 0 0-1.051-1.347c-.243-.21-.6.142-.355.354" mask="url(#bl)"/>
        </g>
        <g transform="translate(0 .09)">
            <mask id="bn" fill="#fff">
                <use xlink:href="#bm"/>
            </mask>
            <path fill="#000" d="M20.262 8.876c.348-.31.755-.498 1.213-.581.317-.058.183-.54-.133-.482a2.935 2.935 0 0 0-1.435.71c-.242.214.114.567.355.353" mask="url(#bn)"/>
        </g>
        <g transform="translate(0 .09)">
            <mask id="bp" fill="#fff">
                <use xlink:href="#bo"/>
            </mask>
            <path fill="#000" d="M22.941 8.353l1.655.113c.322.022.321-.478 0-.5l-1.655-.113c-.322-.023-.32.478 0 .5" mask="url(#bp)"/>
        </g>
        <g transform="translate(0 .09)">
            <mask id="br" fill="#fff">
                <use xlink:href="#bq"/>
            </mask>
            <path fill="#000" d="M26.458 8.974c.469.054.907.245 1.267.548.246.206.602-.146.355-.354a3.002 3.002 0 0 0-1.622-.694c-.32-.037-.318.463 0 .5" mask="url(#br)"/>
        </g>
        <g transform="translate(0 .09)">
            <mask id="bt" fill="#fff">
                <use xlink:href="#bs"/>
            </mask>
            <path fill="#000" d="M29.07 10.14l1.335.848c.273.173.526-.26.254-.432l-1.336-.848c-.273-.173-.526.26-.254.432" mask="url(#bt)"/>
        </g>
        <g transform="translate(0 .09)">
            <mask id="bv" fill="#fff">
                <use xlink:href="#bu"/>
            </mask>
            <path fill="#000" d="M32.032 11.896c.51.331.953.739 1.333 1.214.2.252.554-.104.354-.354a5.99 5.99 0 0 0-1.434-1.291c-.272-.176-.523.257-.253.431" mask="url(#bv)"/>
        </g>
        <g transform="translate(0 .09)">
            <mask id="bx" fill="#fff">
                <use xlink:href="#bw"/>
            </mask>
            <path fill="#000" d="M34.278 13.855l.984 1.426c.181.264.616.014.433-.252l-.984-1.427c-.181-.263-.616-.013-.433.253" mask="url(#bx)"/>
        </g>
        <g transform="translate(0 .09)">
            <mask id="bz" fill="#fff">
                <use xlink:href="#by"/>
            </mask>
            <path fill="#000" d="M35.668 16.398l.226.324c.078.111.22.162.344.09.11-.064.167-.23.09-.342l-.226-.324c-.078-.11-.22-.162-.344-.09-.11.064-.167.23-.09.342" mask="url(#bz)"/>
        </g>
        <g transform="translate(0 .09)">
            <mask id="bB" fill="#fff">
                <use xlink:href="#bA"/>
            </mask>
            <path fill="#000" d="M21.86 7.161l1.107-.528c.292-.138.037-.57-.253-.431l-1.108.527c-.29.139-.037.57.254.432" mask="url(#bB)"/>
        </g>
        <g transform="translate(0 .09)">
            <mask id="bD" fill="#fff">
                <use xlink:href="#bC"/>
            </mask>
            <path fill="#000" d="M24.22 6.645a5.958 5.958 0 0 1 1.58-.095c.323.023.321-.477 0-.5a6.46 6.46 0 0 0-1.714.112c-.317.063-.182.545.133.483" mask="url(#bD)"/>
        </g>
        <g transform="translate(0 .09)">
            <mask id="bF" fill="#fff">
                <use xlink:href="#bE"/>
            </mask>
            <path fill="#000" d="M27.009 6.99c.454.033.887.193 1.247.473.252.196.61-.156.355-.354a2.889 2.889 0 0 0-1.602-.62c-.322-.022-.32.478 0 .5" mask="url(#bF)"/>
        </g>
        <g transform="translate(0 .09)">
            <mask id="bH" fill="#fff">
                <use xlink:href="#bG"/>
            </mask>
            <path fill="#000" d="M29.801 8.173c.606.248 1.175.569 1.708.948.264.187.514-.246.253-.432a9.06 9.06 0 0 0-1.828-.999c-.298-.122-.428.362-.133.483" mask="url(#bH)"/>
        </g>
        <g transform="translate(0 .09)">
            <mask id="bJ" fill="#fff">
                <use xlink:href="#bI"/>
            </mask>
            <path fill="#000" d="M32.802 9.825c.45.19.773.55.894 1.024.08.312.563.18.484-.133a1.962 1.962 0 0 0-1.125-1.323c-.294-.124-.55.307-.253.432" mask="url(#bJ)"/>
        </g>
        <g transform="translate(0 .09)">
            <mask id="bL" fill="#fff">
                <use xlink:href="#bK"/>
            </mask>
            <path fill="#000" d="M34.424 12.7l.33.328c.228.227.583-.126.354-.354l-.33-.328c-.228-.228-.583.125-.354.353" mask="url(#bL)"/>
        </g>
        <g transform="translate(0 .09)">
            <mask id="bN" fill="#fff">
                <use xlink:href="#bM"/>
            </mask>
            <path fill="#000" d="M22.912 5.254c.405-.129.817-.217 1.24-.257.319-.03.322-.53 0-.5a6.475 6.475 0 0 0-1.373.275c-.307.098-.176.58.133.482" mask="url(#bN)"/>
        </g>
        <g transform="translate(0 .09)">
            <mask id="bP" fill="#fff">
                <use xlink:href="#bO"/>
            </mask>
            <path fill="#000" d="M26.243 5.21c.501.062.989.185 1.463.356.305.11.436-.374.134-.482a7.336 7.336 0 0 0-1.597-.374c-.32-.04-.317.461 0 .5" mask="url(#bP)"/>
        </g>
        <g transform="translate(0 .09)">
            <mask id="bR" fill="#fff">
                <use xlink:href="#bQ"/>
            </mask>
            <path fill="#000" d="M29.357 5.784c.51.098.962.299 1.379.607.26.192.51-.242.253-.432a3.686 3.686 0 0 0-1.5-.658c-.315-.06-.45.421-.132.483" mask="url(#bR)"/>
        </g>
        <g transform="translate(0 .09)">
            <mask id="bT" fill="#fff">
                <use xlink:href="#bS"/>
            </mask>
            <path fill="#000" d="M32.108 7.295c.415.17.737.488.94.882.148.286.582.033.434-.253a2.377 2.377 0 0 0-1.24-1.111c-.299-.122-.43.361-.134.482" mask="url(#bT)"/>
        </g>
        <g transform="translate(0 .09)">
            <mask id="bV" fill="#fff">
                <use xlink:href="#bU"/>
            </mask>
            <path fill="#000" d="M33.625 8.598l.966 1.547c.17.273.604.022.433-.252l-.966-1.547c-.17-.273-.604-.022-.433.252" mask="url(#bV)"/>
        </g>
        <g transform="translate(0 .09)">
            <mask id="bX" fill="#fff">
                <use xlink:href="#bW"/>
            </mask>
            <path fill="#000" d="M30.351 4.922a.952.952 0 0 1 .952.015c.28.162.533-.27.253-.432a1.47 1.47 0 0 0-1.458-.015c-.283.155-.03.587.253.432" mask="url(#bX)"/>
        </g>
        <g transform="translate(0 .09)">
            <mask id="bZ" fill="#fff">
                <use xlink:href="#bY"/>
            </mask>
            <path fill="#000" d="M32.608 5.697a1.52 1.52 0 0 1 1.015.602c.188.257.624.008.433-.252a2.079 2.079 0 0 0-1.448-.85c-.32-.042-.316.459 0 .5" mask="url(#bZ)"/>
        </g>
        <g transform="translate(0 .09)">
            <mask id="cb" fill="#fff">
                <use xlink:href="#ca"/>
            </mask>
            <path fill="#000" d="M34.4 6.921c.346.375.563.836.617 1.345.033.316.536.32.502 0a2.903 2.903 0 0 0-.764-1.699c-.219-.237-.573.117-.355.354" mask="url(#cb)"/>
        </g>
        <g transform="translate(0 .09)">
            <mask id="cd" fill="#fff">
                <use xlink:href="#cc"/>
            </mask>
            <path fill="#000" d="M35.307 9.145l.14 1.091c.04.315.542.319.501 0l-.14-1.09c-.04-.316-.542-.32-.5 0" mask="url(#cd)"/>
        </g>
        <g transform="translate(0 .09)">
            <mask id="cf" fill="#fff">
                <use xlink:href="#ce"/>
            </mask>
            <path fill="#725048" d="M15.199 40.609s-9.842-1.004-13.053-2.304c-3.212-1.3-2.654-7.454 7.454-11.678l1.277-.724 2.914 1.212s-5.122 5.089-4.42 5.989c.703.9 6.223-.5 6.223-.5s-.797 6.604-.395 8.005" mask="url(#cf)"/>
        </g>
        <g transform="translate(0 .09)">
            <mask id="ch" fill="#fff">
                <use xlink:href="#cg"/>
            </mask>
            <path fill="#FFF" d="M4.052 16.495a20.45 20.45 0 0 1 2.703 1.665c.388.283.762-.363.377-.643a20.461 20.461 0 0 0-2.703-1.666c-.427-.22-.806.424-.377.644" mask="url(#ch)"/>
        </g>
        <g transform="translate(0 .09)">
            <mask id="cj" fill="#fff">
                <use xlink:href="#ci"/>
            </mask>
            <path fill="#FFF" d="M5.317 12.498l2.758 2.226c.37.3.902-.225.528-.527l-2.758-2.226c-.37-.3-.902.224-.528.527" mask="url(#cj)"/>
        </g>
        <g transform="translate(0 .09)">
            <mask id="cl" fill="#fff">
                <use xlink:href="#ck"/>
            </mask>
            <path fill="#FFF" d="M8.482 8.655c.8.814 1.468 1.72 2.012 2.722.229.422.875.046.645-.376a12.796 12.796 0 0 0-2.128-2.873c-.337-.343-.866.184-.529.527" mask="url(#cl)"/>
        </g>
        <g transform="translate(0 .09)">
            <mask id="cn" fill="#fff">
                <use xlink:href="#cm"/>
            </mask>
            <path fill="#FFF" d="M13.884 8.098c.214.413.358.844.446 1.3.092.47.813.271.721-.198a5.48 5.48 0 0 0-.521-1.478c-.22-.426-.866-.05-.646.376" mask="url(#cn)"/>
        </g>
        <g transform="translate(0 .09)">
            <mask id="cp" fill="#fff">
                <use xlink:href="#co"/>
            </mask>
            <path fill="#FFF" d="M4.952 22.895l1.796-.186c.473-.05.479-.795 0-.746l-1.796.187c-.474.049-.479.794 0 .745" mask="url(#cp)"/>
        </g>
        <g transform="translate(0 .09)">
            <mask id="cr" fill="#fff">
                <use xlink:href="#cq"/>
            </mask>
            <path fill="#62352E" d="M22.828 20.46s-.507-.474-.697.504c-.19.978-.31 1.206-.613 1.218-.304.012-.938.139-.494.517.443.379 1.243.62 1.424.284.475-.883.38-2.524.38-2.524" mask="url(#cr)"/>
        </g>
    </g>
</svg>
