<svg xmlns="http://www.w3.org/2000/svg" xmlns:xlink="http://www.w3.org/1999/xlink" width="327" height="372" viewBox="0 0 327 372">
    <defs>
        <path id="a" d="M0 .007h27.157V21.32H0z"/>
        <path id="c" d="M.057.3h41.77v44.124H.057z"/>
        <path id="e" d="M.424.546h20.09V4.54H.424z"/>
    </defs>
    <g fill="none" fill-rule="evenodd">
        <g opacity=".231" style="mix-blend-mode:luminosity">
            <path fill="#000" d="M196 338c-64.618 0-117-4.701-117-10.5S131.382 317 196 317c64.616 0 117 4.701 117 10.5S260.616 338 196 338" opacity=".083"/>
            <path fill="#B5E8F7" d="M0 138h144V41.448H0z"/>
            <path fill="#8F8F8F" d="M0 41.448h144V38H0z"/>
            <path fill="#FFF" d="M144 56.39H91.865c-1.374 0-1.786-1.928-.54-2.525l2.677-1.284a8.716 8.716 0 0 1 5.757-.634l5.405 1.262a8.701 8.701 0 0 0 4.671-.2l16.897-5.488c2.628-.854 5.496.005 7.274 2.178l1.44 1.76c1.045 1.277 2.754 1.741 4.274 1.16l4.28-1.637v5.409zM0 64.437h25.199c1.3 0 1.99-1.429 1.129-2.335l-.52-.546c-1.624-1.708-4.248-2.245-6.492-1.328a6.01 6.01 0 0 1-5.183-.313l-2.88-1.619a6 6 0 0 0-5.945.065L3.435 59.47a3.142 3.142 0 0 1-3.434-.168H0v5.135z"/>
            <g>
                <path fill="#D6D6D6" d="M77.69 234.504h234.942v-6.005H77.69z"/>
                <path fill="#595959" d="M86.797 329.623h3.523v-95.12h-3.523zM300.003 329.623h3.523v-95.12h-3.523z"/>
                <path fill="#D6D6D6" d="M138.694 212.559c0 14.497 10.336 15.07 10.336 15.07h-31.095s10.336-.573 10.336-15.07h10.423z"/>
                <path fill="#8F8F8F" d="M160.679 213.52h-54.393c-.822 0-1.49-.663-1.49-1.48v-37.98c0-.816.668-1.479 1.49-1.479h54.393c.822 0 1.489.663 1.489 1.48v37.98c0 .816-.667 1.478-1.49 1.478"/>
                <path fill="#000" d="M159.43 211.565h-51.895a.671.671 0 0 1-.674-.669v-35.692c0-.37.302-.669.674-.669h51.895c.372 0 .674.3.674.67v35.691c0 .37-.302.67-.674.67"/>
                <path fill="#8F8F8F" d="M117.935 228.514h31.095v-.884h-31.095z"/>
                <path fill="#595959" d="M277.184 228.499h-48.266v-21.404c0-.703.574-1.271 1.28-1.271h45.706c.707 0 1.28.568 1.28 1.271v21.404z"/>
                <path fill="#000" d="M232.486 211.832h41.13v-2.084h-41.13z"/>
                <path fill="#D6D6D6" d="M263.31 225.532h4.14v-1.935h-4.14z"/>
                <path fill="#FF7900" d="M268.585 224.565c0 .534.436.967.974.967a.97.97 0 0 0 .975-.967.97.97 0 0 0-.975-.968.971.971 0 0 0-.974.968"/>
                <path fill="#FFF" d="M271.668 224.565a.97.97 0 0 0 .974.967.97.97 0 0 0 .974-.967.97.97 0 0 0-.974-.968.97.97 0 0 0-.974.968"/>
                <path fill="#8F8F8F" d="M268.027 205.824h-29.951v-11.01c0-.604.494-1.094 1.102-1.094h27.747c.608 0 1.102.49 1.102 1.094v11.01z"/>
                <path fill="#595959" d="M156.634 329.623h-3.12c-.634 0-1.147-.51-1.147-1.138v-3.329c0-.629.513-1.138 1.147-1.138h3.12c.633 0 1.147.51 1.147 1.138v3.329c0 .629-.514 1.138-1.147 1.138"/>
                <path fill="#8F8F8F" d="M152.58 314.418h4.986V273.74h-4.985z"/>
                <path fill="#8F8F8F" d="M164.806 279.542h-19.464c-1.29 0-2.343-1.047-2.343-2.326 0-1.28 1.054-2.327 2.343-2.327h19.464a2.34 2.34 0 0 1 2.343 2.327 2.34 2.34 0 0 1-2.343 2.326"/>
                <path fill="#595959" d="M121.544 326.782c0 1.57-1.28 2.842-2.861 2.842a2.851 2.851 0 0 1-2.862-2.842 2.852 2.852 0 0 1 2.862-2.84 2.851 2.851 0 0 1 2.861 2.84M116.844 240.711h12.68c1.446 0 2.63-1.175 2.63-2.61 0-1.437-1.184-2.612-2.63-2.612h-12.68c-1.447 0-2.63 1.175-2.63 2.611 0 1.436 1.183 2.611 2.63 2.611M180.624 240.711h12.68c1.446 0 2.63-1.175 2.63-2.61 0-1.437-1.184-2.612-2.63-2.612h-12.68c-1.447 0-2.63 1.175-2.63 2.611 0 1.436 1.183 2.611 2.63 2.611"/>
                <path fill="#595959" d="M173.198 277.393H136.95c-7.603 0-13.767-6.119-13.767-13.667v-61.838c0-5.032 4.11-9.111 9.178-9.111h45.425c5.07 0 9.178 4.079 9.178 9.11v61.839c0 7.548-6.163 13.667-13.766 13.667"/>
                <path fill="#8F8F8F" d="M152.581 308.721l-33.898 14.464v2.478l33.898-11.245z"/>
                <path fill="#595959" d="M188.603 326.782a2.851 2.851 0 0 0 2.862 2.842 2.851 2.851 0 0 0 2.861-2.842 2.852 2.852 0 0 0-2.861-2.84 2.852 2.852 0 0 0-2.862 2.84"/>
                <path fill="#8F8F8F" d="M157.566 308.721l33.899 14.464v2.478l-33.899-11.245z"/>
                <path fill="#8F8F8F" d="M152.581 314.418l1.543 11.245h1.899l1.544-11.245z"/>
                <path fill="#000" d="M133.476 266.004c-.237 0-.428-.097-.428-.216v-63.34c0-.12.191-.217.428-.217s.429.096.429.216v63.341c0 .119-.192.216-.429.216M144.38 266.004c-.236 0-.428-.097-.428-.216v-63.34c0-.12.192-.217.429-.217.236 0 .428.096.428.216v63.341c0 .119-.192.216-.428.216M155.285 266.004c-.237 0-.428-.097-.428-.216v-63.34c0-.12.191-.217.428-.217s.428.096.428.216v63.341c0 .119-.191.216-.428.216M166.19 266.004c-.238 0-.43-.097-.43-.216v-63.34c0-.12.192-.217.43-.217.236 0 .428.096.428.216v63.341c0 .119-.192.216-.429.216M177.093 266.004c-.237 0-.428-.097-.428-.216v-63.34c0-.12.191-.217.428-.217s.428.096.428.216v63.341c0 .119-.191.216-.428.216"/>
            </g>
            <g>
                <path fill="#D6D6D6" d="M1.009 331.625h75.868V208.11H1.01z"/>
                <path fill="#595959" d="M6.472 264.002h64.943v-48.087H6.472v48.087zm-.447.447h65.836v-48.981H6.025v48.981z"/>
                <path fill="#8F8F8F" d="M46.055 227.74H31.816c-.714 0-1.3-.586-1.3-1.302 0-.716.586-1.302 1.3-1.302h14.239c.715 0 1.3.586 1.3 1.302 0 .716-.585 1.302-1.3 1.302"/>
                <path fill="#595959" d="M6.472 320.071h64.943v-48.088H6.472v48.088zm-.447.447h65.836v-48.982H6.025v48.982z"/>
                <path fill="#8F8F8F" d="M46.055 283.809H31.816c-.714 0-1.3-.586-1.3-1.302 0-.716.586-1.302 1.3-1.302h14.239c.715 0 1.3.586 1.3 1.302 0 .716-.585 1.302-1.3 1.302"/>
                <path fill="#FF7900" d="M47.815 193.002v11.025c0 1.118.17 2.195.484 3.21.162.523.658.873 1.205.873h18.28c.547 0 1.042-.35 1.204-.874.315-1.014.485-2.091.485-3.209v-11.025H47.815z"/>
                <path fill="#50BE87" d="M67.903 193.002c2.82-1.994 5.612-4.382 5.408-5.376-.21-1.017-3.462-.222-6.764 1.013 2.486-2.832 5.088-6.387 4.582-7.396-.513-1.02-3.964.996-7.033 3.275 1.727-3.671 3.56-8.608 2.703-9.449-.82-.807-3.71 2.572-5.98 5.84-.193-4.187-1-9.5-2.175-9.495-1.175-.005-1.982 5.308-2.175 9.495-2.27-3.268-5.16-6.647-5.981-5.84-.855.84.977 5.778 2.704 9.449-3.07-2.28-6.52-4.296-7.033-3.275-.506 1.01 2.095 4.564 4.582 7.396-3.302-1.235-6.555-2.03-6.764-1.013-.204.994 2.587 3.382 5.408 5.376h18.518z"/>
            </g>
        </g>
        <path fill="#EEEEEA" d="M174.435 371.384c-33.235 0-60.177-5.015-60.177-11.202 0-6.186 26.942-11.2 60.177-11.2s60.177 5.014 60.177 11.2c0 6.187-26.942 11.202-60.177 11.202"/>
        <path fill="#725048" d="M227.924 81.57s21.102 7.96 32.908 7.592c17.555-.545 28.27-4.122 28.27-4.122s4.19-12.099 7.74-14.44c3.551-2.34 5.38-4.535 6.698-5.97 1.317-1.434 1.67 3.28-.898 5.823-2.57 2.541-3.19 2.389-2.159 5.67 1.031 3.282 10.724 4.25 12.495 3.931 1.77-.318 12.44-3.4 13.865-.379 1.426 3.021-9.844 3.094-9.844 3.094l-8.05 7.95s-14.899.113-16.283 1.875c-1.386 1.761-20.775 20.1-51.08 15.455-5.777-.885-24.065-9.737-25.458-13.536-1.393-3.8 8.649-12.566 11.796-12.942"/>
        <path fill="#D6D6D6" d="M199.153 116.499c-.524-.296-1.024-.63-1.455-1.04-.366-.344-.813-.563-1.27-.581-3.119-3.516-4.938-8.48-6.75-12.67a82.136 82.136 0 0 1-4.507-13.58c-2.048-8.59-2.867-17.405-3.601-26.19 28.763-.305 59.132 21.954 59.132 21.954l-17.736 18.328-18.735-8.957c-6.22-2.886-7.852-1.594-7.815 5.098l2.737 17.638z"/>
        <path fill="#F1F2F2" d="M226.404 106.261c-1.508-.536-3.066-.947-4.582-1.466-.198-.068-.773-.337-1.062-.46a4.499 4.499 0 0 0-.396-.709c.005-.358.113-.714.367-1.054l15.582-19.425c.951-1.27 2.376-1.238 3.715-.496 1.428.791 2.137 1.111 3.43 2.012 1.275.889 1.592 2.572.747 3.946-2.38 3.871-11.095 16.104-14.707 18.863a58.559 58.559 0 0 0-3.094-1.21"/>
        <path fill="#D6D6D6" d="M243.342 87.1l-1.395 1.34c-.35.337-.986.237-1.257-.078-.32-.375-.181-.851.17-1.189l1.394-1.34c.35-.336.987-.236 1.257.079.32.374.182.851-.17 1.188M241.252 90.83l-1.658 2.543c-.26.4-.9.467-1.257.23-.413-.273-.42-.769-.16-1.169l1.659-2.544c.26-.399.899-.467 1.257-.23.412.274.42.77.16 1.17M237.443 96.037c-.358.766-4.74 6.173-5.449 6.695-.936.69-2.024-.576-1.087-1.267.463-.342 4.652-5.478 4.887-5.982.475-1.017 2.125-.464 1.649.554"/>
        <path fill="#4F4F51" d="M197.813 65.444l-.459 1.654c-.123.446-.5.812-1.017.774-.437-.033-.88-.457-.756-.906l.459-1.654c.124-.446.5-.813 1.017-.774.437.032.881.456.756.906M196.842 71.105a4.154 4.154 0 0 1-.35 2.391c-.47 1.019-2.12.467-1.65-.554a2.574 2.574 0 0 0 .22-1.533c-.169-1.06 1.612-1.365 1.78-.304M196.582 75.926l.103 2.864c.037 1.07-1.744 1.387-1.782.304l-.101-2.863c-.038-1.07 1.742-1.387 1.78-.305M197.017 82.482l-.06 2.564c-.012.454-.582.806-1.018.773-.527-.039-.767-.45-.756-.905l.06-2.564c.012-.455.582-.806 1.018-.774.527.04.767.45.756.906M197.502 88.07c-.04.56.128 1.062.411 1.53.232.385-.086.944-.497 1.126-.493.217-.933-.006-1.165-.392-.437-.723-.583-1.546-.521-2.397.033-.455.565-.808 1.017-.774.51.038.789.45.755.906"/>
        <path fill="#725048" d="M140.906 337.551l-2.103 16.753h11.303l-1.84-18.486zM183.99 346.314l2.628-8.954-1.577-9.821h11.566l-1.052 8.666 6.046 11.554-10.514 1.444z"/>
        <path fill="#000" d="M198.312 338.142s3.47 9.917 12.52 12.934c9.048 3.017 8.508 2.92 8.921 5.218.415 2.3-.041 2.875-.041 2.875s-10.38 3.85-19.744-1.007c-7.212-3.741-9.835-3.435-12.65-3.63-1.39-.098-4.724.424-4.553-2.743.159-2.948.155-8.032 2.427-11.06l7.84 4.167s-2.188-3.305-1.57-4.741c.617-1.437 2.985-2.73 6.85-2.013M149.813 348.643s-.464-4.25-2.097-5.185c-1.135-.648-4.3-.297-6.128-.022-.81.122-1.464.655-1.657 1.36-.224.817-.535 1.944-.807 2.913-.496 1.764-5.489 8.404-6.917 9.545-1.427 1.142-1.996 4.96-.681 5.987 2.88 2.248 12.048 2.262 18.088-.642 0 0 1.098-2.958 1.01-5.034-.087-2.075.188-1.693.198-2.42.01-.726 1.083-2.823-1.01-6.502"/>
        <path fill="#5A5A5A" d="M210.288 361.976c5.05 0 9.641-1.696 9.9-1.794.639-.24.942-.888.679-1.447-.263-.558-.995-.82-1.632-.58-.077.028-7.771 2.86-13.45.955-3.166-1.062-5.255-2.001-6.935-2.757-1.605-.722-2.874-1.292-4.31-1.61-1.071-.237-2.616-.38-4.251-.53-2.01-.184-5.372-.494-6.03-1.016a1.374 1.374 0 0 0-1.767.09c-.465.456-.43 1.154.081 1.558 1.166.925 3.697 1.219 7.425 1.562 1.545.143 3.004.277 3.904.475 1.165.258 2.266.754 3.79 1.44 1.732.778 3.888 1.748 7.179 2.852 1.745.585 3.61.802 5.417.802"/>
        <path fill="#D6D6D6" d="M152.805 127.923c.36-.482.682-.99.913-1.538.195-.464.515-.845.926-1.045 1.435-4.476 1.094-9.752 1.063-14.316a82.104 82.104 0 0 0-1.36-14.244c-1.593-8.685-4.402-17.081-7.276-25.415-25.863 8.565-44.445 45.186-44.445 45.186l20.785 9.837 14.691-16.093c4.527-5.151 7.42-5.75 10.088.387l4.615 17.24z"/>
        <path fill="#D6D6D6" d="M149.081 163.941c13.013-.224 42.172-1.986 54.976-3.875l-8.353-60.56c-.444-.475-2.09-1.179-2.516-1.668-2.565-2.955-4.768-6.177-6.495-9.602-1.854-3.678-2.975-7.538-4.047-11.452-.697-2.55-1.484-5.09-2.135-7.649-.532-2.092-.585-4.261-1.075-6.355-2.225.966-4.004.465-4.004.465s-4.602.268-7.237 1.253c-1.167.436-8.133 2.701-13.137 2.638-.03.008-.83.45-1.195.659-.623.741-1.319 1.836-1.319 1.836a45.868 45.868 0 0 1-1.901-.069c-.222.117-.427.22-.642.333 3.394 9.839-.92 94.046-.92 94.046"/>
        <path fill="#50BE87" d="M165.274 92.787l-12.566-24.342c-2.57 1.422-5.212 2.745-7.87 4.042l1.563 40.272 1.46 30.455s21.483 13.446 24.498-.31c1.543-7.04-7.085-50.117-7.085-50.117M175.312 62.917l1.585 7.33 4.066 25.617s8.524 41.57 11.312 45.885c5.485 8.494 12.032-3.943 12.032-3.943l-6.087-33.594-14.93-42.35-7.978 1.055z"/>
        <path fill="#FFF" d="M155.925 72.755l1.032-8.415s1.69-.21 2.086.355c.395.566 9.58-.087 9.58-.087s5.151-4.608 6.215-3.46c1.062 1.145 2.43 12.601 2.43 12.601l2.314 16.592-6.548-7.73-3.328.583s-4.159 10.59-4.554 10.024c-.396-.565-9.227-20.463-9.227-20.463"/>
        <path fill="#62352E" d="M174.242 48.442s.208 13.853.397 19.654c.049 1.502-3.81 13.064-3.81 13.064l-12.364-8.364s-1.536-14.62-3.877-23.163c0 0 16.91 9.354 19.654-1.191"/>
        <g transform="translate(99 112.054)">
            <mask id="b" fill="#fff">
                <use xlink:href="#a"/>
            </mask>
            <path fill="#F1F2F2" d="M22.695 18.962c1.163-1.1 2.424-2.104 3.6-3.191.154-.143.573-.62.786-.85 0-.277.03-.546.076-.809a1.759 1.759 0 0 0-.76-.815L6.345.355C4.962-.423 3.67.182 2.745 1.4 1.76 2.7 1.239 3.28.42 4.627c-.808 1.328-.42 2.996.908 3.91C5.07 11.12 15.935 20.253 20.353 21.32a58.41 58.41 0 0 1 2.342-2.357" mask="url(#b)"/>
        </g>
        <path fill="#62352E" d="M152.995 31.651c.294-1.596-1.197-3.167-2.941-3.462-.42-.07-.876-.078-1.255.105-.497.238-.757.746-.944 1.23-1.094 2.82-.878 5.918-.377 8.875.194 1.146.48 2.374 1.426 3.15.347.285.829.5 1.276.375.268-.075.481-.26.675-.445a9.991 9.991 0 0 0 1.97-2.624M180.318 39.879a7.994 7.994 0 0 1 2.868-2.835c.248-.144.52-.281.814-.274.255.005.491.12.696.257.814.55 1.234 1.49 1.293 2.412.06.924-.199 1.839-.52 2.716-.938 2.568-2.43 4.967-4.366 7.018-.42.446-.88.887-1.474 1.112-.595.225-1.357.177-1.787-.26-.464-.473-.394-1.191-.295-1.819"/>
        <g transform="translate(150.637 .268)">
            <mask id="d" fill="#fff">
                <use xlink:href="#c"/>
            </mask>
            <path fill="#020202" d="M.057 34.74c1.39-6.695 6.4-27.812 7.454-29.451 1.821-2.832 6.684-7.07 19.854-3.812C40.809 4.803 42.163 12.65 41.77 15.394c-.16 1.125-8.48 23.33-11.668 29.03A165.343 165.343 0 0 0 7.32 38.898" mask="url(#d)"/>
        </g>
        <path fill="#725048" d="M157.24 60.102c1.098 1.448 3.593 2.281 5.423 1.72 7.687-2.363 16.984-14.976 17.311-16.085 1.066-3.609 3.467-17.212 2.62-19.816-.848-2.605-20.17-9.012-24.148-6.488 0 0-7.594 14.683-7.94 17.563-.468 3.883 2.77 17.88 6.733 23.106"/>
        <path fill="#62352E" d="M163.267 35.91l.166-.196c.11-.126.274-.305.462-.55.386-.478.904-1.184 1.4-2.085.503-.897.973-1.995 1.309-3.223.17-.614.292-1.262.38-1.93.048-.336.068-.676.096-1.021.017-.343.025-.683-.082-1.012 0 0 .053.06.127.196.075.134.161.348.226.634.117.566.24 1.408.14 2.445a8.741 8.741 0 0 1-1.1 3.477 9.222 9.222 0 0 1-3.124 3.264"/>
        <path fill="#848484" d="M152.859 24.606c-.344.7-3.11 6.482-1.556 8.29 1.768 2.06 7.687 4.454 10.864 3.957 3.02-.471 4.11-7.194 4.206-7.822-.337-.465-3.959-5.1-13.514-4.425m8.408 12.571c-3.373 0-8.54-2.202-10.188-4.12-1.753-2.042 1.42-8.361 1.556-8.63l.035-.069.083-.005c5.352-.395 8.84.867 10.824 1.995 2.157 1.226 3.03 2.532 3.067 2.586l.025.039-.006.045c-.043.308-1.09 7.567-4.448 8.091a6.18 6.18 0 0 1-.948.068M169.902 30.186c-.249.62-2.737 6.996-.324 8.703 2.687 1.9 9.204 3.329 11.5 2.092 4.682-2.52 3.223-8.7 3.058-9.34-7.866-3.972-13.65-1.704-14.234-1.455m8.701 11.503c-3.003 0-7.174-1.162-9.199-2.595-2.691-1.903.13-8.757.252-9.049l.02-.046.048-.023c.06-.028 6.184-2.812 14.604 1.465l.053.028.015.053c.02.07 1.928 6.936-3.173 9.683-.625.336-1.548.484-2.62.484"/>
        <path fill="#FFF" d="M152.764 24.482s-3.293 6.492-1.573 8.495c1.72 2.002 7.709 4.518 11 4.004 3.292-.513 4.33-7.98 4.33-7.98s-3.468-5.275-13.757-4.519M184.259 31.555s1.96 6.81-3.11 9.538c-2.4 1.293-9.02-.234-11.658-2.1-2.638-1.868.298-8.901.298-8.901s6.019-2.83 14.47 1.463" opacity=".13"/>
        <path fill="#020202" d="M151.384 25.253c2.86-.335 5.943-.142 8.688.654 3.57 1.037 5.178 4.37 8.992 4.707 1.17.103 1.937-.388 3.136-.592 4.732-.804 9.667 1.219 13.7 3.212 1.055.522 1.973-.96.917-1.482-4.053-2.004-8.621-3.804-13.34-3.565-1.1.055-2.199.223-3.24.558-.253.081-.562.291-.823.326-.646.085.89.012.103-.108-1.8-.277-2.48-.865-3.646-1.96-1.425-1.34-3.42-2.198-5.347-2.747-2.895-.825-6.174-1.057-9.185-.705-1.177.137-1.148 1.841.045 1.702"/>
        <path fill="#62352E" d="M186.772 31.802a48.272 48.272 0 0 0-4.336-1.91c-.152.516-.3 1.036-.448 1.556.256.704.37 1.45.351 2.195-.075 2.776-1.213 5.544-3.377 7.514-.06.153-.117.308-.18.46.94-.02 1.752-.166 2.324-.474 3.876-2.086 3.641-6.556 3.316-8.545.489.226.967.456 1.433.686 1.056.522 1.973-.96.917-1.482" opacity=".13"/>
        <path fill="#000" d="M177.61 70.654v.332c0 .434.417.85.908.829.492-.02.908-.365.908-.83v-.33c0-.434-.418-.85-.908-.83-.493.02-.909.365-.909.83M179.063 76.29v1.99c0 1.066 1.817 1.068 1.817 0v-1.99c0-1.066-1.817-1.068-1.817 0M180.09 83.592l.423 2.976c.064.448.372.824.909.83.442.003.971-.386.908-.83l-.422-2.976c-.064-.448-.373-.824-.908-.829-.443-.004-.972.385-.91.829M181.257 90.438l.756 4.969c.16 1.052 1.91.604 1.752-.44l-.756-4.97c-.16-1.052-1.911-.604-1.752.44M183.112 101.703l.364 1.326c.115.421.658.714 1.117.579.478-.14.758-.569.635-1.02l-.363-1.325c-.116-.421-.659-.715-1.118-.58-.477.142-.758.57-.635 1.02M185.752 108.316l.686 2.991c.24 1.044 1.992.603 1.753-.44l-.687-2.992c-.24-1.043-1.992-.601-1.752.441M187.543 115.831c.286.604.324 1.256.23 1.9-.064.445.464.829.91.829.543 0 .843-.383.908-.83.138-.952-.065-1.862-.48-2.736-.195-.41-.855-.504-1.243-.297-.464.248-.522.722-.325 1.134M189.345 122.578l.684 2.662c.267 1.038 2.02.598 1.752-.44l-.683-2.663c-.267-1.037-2.02-.598-1.753.441M191.083 130.22l1.004 3.009c.339 1.017 2.093.584 1.751-.441l-1.003-3.008c-.34-1.018-2.095-.583-1.752.44M193.268 137.182l.726 1.989c.368 1.007 2.123.576 1.752-.44l-.726-1.99c-.368-1.007-2.124-.575-1.752.44M196.086 142.057c.874.168 1.764.055 2.524-.387.414-.24.58-.737.326-1.134-.24-.376-.828-.539-1.243-.297-.353.205-.73.295-1.124.22-.48-.092-.982.128-1.117.579-.125.411.151.927.634 1.02M200.78 139.998l1.09-.663c.395-.24.602-.742.326-1.134-.254-.36-.82-.555-1.243-.297-.364.22-.727.442-1.09.663-.395.24-.603.742-.326 1.134.253.359.82.554 1.243.297M202.502 136.464h.363c.475 0 .93-.381.908-.829-.022-.449-.399-.828-.908-.828h-.363c-.476 0-.931.38-.91.828.023.45.4.83.91.83M150.054 70.865l.767 1.976a.945.945 0 0 0 1.118.58c.447-.113.799-.597.634-1.02-.255-.66-.511-1.318-.767-1.976a.945.945 0 0 0-1.117-.58c-.448.113-.8.596-.635 1.02M152.631 76.39l1.045 2.008c.21.405.845.51 1.243.298.454-.242.537-.729.326-1.134l-1.045-2.01c-.21-.404-.845-.51-1.243-.297-.453.242-.537.729-.326 1.134M155.942 83.003l1.38 2.683c.497.965 2.064.125 1.57-.836l-1.38-2.684c-.497-.965-2.064-.125-1.57.837M159.214 91.29l.726 1.326c.22.401.84.513 1.243.298.447-.239.546-.732.326-1.134-.242-.443-.485-.884-.726-1.327-.22-.4-.84-.512-1.244-.297-.446.238-.546.733-.325 1.134M161.009 97.268c.264.497.313 1.024.243 1.567-.057.444.458.828.908.828.54 0 .852-.382.909-.828.108-.838-.092-1.65-.491-2.404-.213-.403-.843-.51-1.243-.297-.45.24-.54.73-.326 1.134M162.704 104.701l.727 2.321c.32 1.024 2.074.589 1.752-.44l-.727-2.32c-.321-1.025-2.075-.59-1.752.44M164.513 112.002l.727 1.657c.182.416.606.707 1.118.58.432-.11.817-.602.634-1.02l-.727-1.657c-.181-.416-.606-.707-1.117-.58-.433.11-.818.602-.635 1.02M165.883 116.992l.364.332c.336.307.953.33 1.285 0 .332-.331.359-.845 0-1.172l-.364-.331c-.337-.307-.953-.33-1.285 0-.333.33-.359.844 0 1.171M166.707 121.38v1.326c0 .433.418.848.909.829.492-.02.908-.365.908-.83v-1.326c0-.433-.417-.848-.908-.829-.492.02-.909.365-.909.83M167.434 130.662v1.99c0 1.066 1.817 1.068 1.817 0v-1.99c0-1.066-1.817-1.068-1.817 0M167.797 137.19c.14.478.083.942-.178 1.375-.565.935 1.004 1.772 1.569.837.494-.82.625-1.747.362-2.652-.3-1.03-2.053-.593-1.753.44M166.702 143.163s.06.213.048.132c-.013-.09-.003.116-.006.138.016-.12-.011.018-.03.065-.058.13.101-.146-.039.07-.02.031-.077.106-.017.038 0 0-.161.147-.107.107.063-.045-.113.063-.135.072.134-.055-.105.014-.13.019-.48.087-.757.61-.633 1.02.137.457.634.666 1.117.578 1.27-.23 2.1-1.565 1.685-2.68a.945.945 0 0 0-1.118-.579c-.453.114-.794.594-.635 1.02M162.62 144.541c-.485-.22-.97-.442-1.454-.663-.424-.194-1.004-.116-1.243.297-.217.376-.128.927.326 1.134l1.453.664c.425.194 1.004.116 1.244-.297.217-.376.127-.927-.327-1.135M155.856 141.16l-1.088-.337c-.45-.14-1.013.16-1.117.579-.115.46.152.87.634 1.02l1.088.337c.45.14 1.013-.16 1.117-.579.115-.46-.152-.87-.634-1.02"/>
        <path fill="#D6D6D6" d="M100.51 118.863l1.817.663c.456.166.997-.181 1.117-.579.143-.472-.177-.852-.634-1.019l-1.817-.663c-.456-.166-.998.181-1.117.579-.143.472.177.853.634 1.02M103.927 121.432l2.544 1.658c.4.26 1.01.064 1.242-.298.268-.416.075-.873-.325-1.134l-2.544-1.657c-.4-.26-1.011-.065-1.243.297-.267.416-.075.873.326 1.134M109.514 124.658a5.142 5.142 0 0 0 2.266 1.148c1.135.255 1.62-1.344.483-1.598a3.25 3.25 0 0 1-1.465-.722c-.844-.739-2.13.432-1.284 1.172"/>
        <path fill="#4F4F51" d="M133.422 80.671L134.51 82c.293.358.786.541 1.243.297.387-.207.621-.773.326-1.134l-1.088-1.328c-.292-.358-.785-.541-1.242-.297-.387.206-.622.772-.327 1.133M136.596 85.459c.205.78.655 1.489 1.286 2.046.841.742 2.128-.429 1.285-1.172a2.585 2.585 0 0 1-.82-1.315c-.273-1.037-2.025-.598-1.751.44M138.78 89.765l1.063 2.662c.397.994 2.153.565 1.752-.441l-1.064-2.662c-.396-.994-2.153-.564-1.751.441M141.029 95.939l1.09 2.32c.194.411.857.504 1.243.297.466-.248.52-.72.326-1.133l-1.09-2.321c-.194-.412-.858-.504-1.244-.298-.466.25-.52.722-.325 1.135M142.84 101.246c.263.498.312 1.024.242 1.567-.057.445.459.829.909.829.538 0 .851-.383.908-.83.108-.837-.091-1.649-.49-2.402-.214-.403-.844-.511-1.244-.298-.45.24-.54.73-.325 1.134"/>
        <path fill="#5A5A5A" d="M151.331 338.796h-13.753c-.63 0-1.14-.51-1.14-1.14v-4.554c0-.63.51-1.14 1.14-1.14h13.753c.63 0 1.141.51 1.141 1.14v4.553c0 .63-.51 1.14-1.14 1.14M197.356 335.95H184.03a1.353 1.353 0 0 1-1.354-1.353v-4.127c0-.748.606-1.354 1.354-1.354h13.327c.747 0 1.354.606 1.354 1.354v4.127c0 .748-.607 1.353-1.354 1.353"/>
        <path fill="#725048" d="M179.168 116.195c-.553-2.305-6.96.284-16.112-8.546-1.82-1.755-2.195-3.072-1.407-3.45 6.362-3.05 4.943-5.56 3.691-6.704-.42-.384-1.071-.253-1.358.238-1.827 3.124-4.912 3.771-7.528 3.593-6.642-.452-8.538 5.1-9.66 5.809-1.123.71-25.551 14.745-41.01 15.278-.724.025-1.586.677-2.503 1.734-.004.017-.003.033-.007.05-2.214 9.424 3.9 19.408 14.56 16.233 5.028-1.497 9.414-4.547 13.673-7.712 10.98-9.331 17.779-18.875 18.278-19.355.787-.757 10.992 5.413 12.325 5.674 2.127.416 18.124 1.6 17.058-2.842"/>
        <path fill="#000" d="M202.453 152.79s18.63 41.66-4.15 178.342l-15.051.407s-6.664-41.54-7.322-69.155c-.66-27.614-2.061-50.566-2.061-50.566s-4.07 33.57-8.516 60.736c-4.351 26.591-13.43 60.685-13.43 60.685h-15.051s-7.077-140.968 11.475-177.252l54.106-3.198z"/>
        <path fill="#020202" d="M171.76 33.625c1.037-.847 3.41-.608 4.553-.197 1.153.415 2.033 1.354 2.87 2.208.496.507 1.274-.271.778-.778-1.302-1.33-2.62-2.488-4.528-2.753-1.489-.207-3.239-.248-4.452.741-.549.449.234 1.224.779.779"/>
        <path fill="#020202" d="M178.234 33.242c-.732-.481-1.715-.346-2.363.214-.711.613-.833 1.634-.471 2.467.377.87 1.305 1.534 2.277 1.278 1.04-.274 1.44-1.262 1.558-2.23.06-.493-.465-.918-.918-.918-.545 0-.858.423-.917.918-.016.132-.055.338-.15.445-.01.031.013.044.07.038a.214.214 0 0 1-.141-.103c-.048-.071-.097-.127-.123-.208-.043-.133-.037-.243.023-.314.09-.105.14-.062.23-.003.989.65 1.91-.937.925-1.584M156.893 29.542c1.725-1.202 4.681.332 5.794 1.72.444.553 1.218-.23.779-.778-1.432-1.786-5.009-3.37-7.129-1.893-.577.403-.027 1.358.556.951"/>
        <path fill="#020202" d="M162.473 29.5c-1.65-.982-3.625.747-2.86 2.504.336.77 1.115 1.31 1.971 1.247.933-.069 1.673-.69 1.964-1.565.375-1.122-1.397-1.604-1.769-.487-.101.304-.403.25-.484.096-.1-.188.066-.321.251-.211 1.017.606 1.942-.98.927-1.585"/>
        <path fill="#62352E" d="M161.791 40.764c1.144 1.237 2.811 1.89 4.491 1.706 1.161-.127 1.175-1.963 0-1.835-1.243.136-2.34-.245-3.193-1.169-.804-.869-2.099.432-1.298 1.298M156.034 44.678c3.133 3.136 10.133 4.354 14.482 3.293 1.116-.272.364-1.706-.747-1.435-3.479.849-9.782-.238-12.308-2.767-.774-.774-2.204.13-1.427.909M158.7 51.577c1.808 1.041 4.215 1.291 6.322.662 1.088-.325.615-1.686-.488-1.357-1.717.513-3.435.328-4.907-.52-.945-.544-1.86.677-.927 1.215"/>
        <path fill="#020202" d="M179.668 20.926c2.362 0 2.365-3.67 0-3.67-2.362 0-2.365 3.67 0 3.67"/>
        <path fill="#232322" d="M156.105 20.634a.618.618 0 0 1 .04-.334c.233-.536-.557-1.004-.792-.463a1.748 1.748 0 0 0-.133 1.041c.093.582.977.335.885-.244M156.9 17.817c.005-.283.078-.511.228-.75.315-.503-.48-.964-.792-.464a2.301 2.301 0 0 0-.353 1.214c-.008.59.91.591.918 0M157.947 14.013a5.47 5.47 0 0 0 .326-1.39c.065-.586-.853-.581-.918 0a4.55 4.55 0 0 1-.294 1.146c-.212.551.674.79.886.244M159.082 9.909c.155-.266.31-.532.467-.798.299-.51-.494-.973-.792-.463l-.467.798c-.3.51.493.972.792.463M160.547 6.278l.593-.878c.332-.49-.462-.95-.792-.463l-.594.878c-.332.49.463.95.793.463M164.313 3.211l.681-.4c.51-.298.048-1.091-.463-.792l-.681.4c-.51.299-.048 1.092.463.792M166.803 1.852l-.29.2c-.484.333-.026 1.129.462.793l.291-.2c.484-.333.025-1.129-.463-.793M163.75 5.623c-.265.26-.482.556-.645.89-.257.529.534.995.792.463a2.47 2.47 0 0 1 .502-.704c.422-.415-.227-1.064-.649-.65M160.942 10.132l-.283.916c-.175.565.71.807.885.244l.283-.916c.175-.565-.71-.807-.885-.244M160.093 14.29c.037.361.02.703-.066 1.056-.141.573.743.817.885.244.105-.43.144-.86.099-1.3-.06-.582-.977-.588-.918 0M161.325 18.531l.294.098c.561.188.802-.698.244-.884l-.294-.098c-.562-.188-.802.697-.244.884M163.628 17.21a1.607 1.607 0 0 1 .028-.934c.177-.564-.709-.806-.884-.243a2.54 2.54 0 0 0-.029 1.421c.15.571 1.035.33.885-.244M164.732 13.113c.027-.296.158-.545.363-.755.413-.423-.235-1.072-.649-.649a2.217 2.217 0 0 0-.632 1.404c-.052.588.865.584.918 0M166.914 9.315l1.08-1.762c.31-.505-.483-.966-.792-.463l-1.08 1.762c-.31.505.484.967.792.463M169.774 4.72l.196-.293c.328-.493-.466-.953-.792-.463-.066.097-.131.195-.196.294-.329.492.466.952.792.463M173.033 2.72l.398-.286c.474-.343.016-1.139-.463-.792l-.398.287c-.474.343-.017 1.139.463.792M174.361 2.122l-.195.197c-.419.418.23 1.067.648.648l.196-.195c.418-.419-.23-1.068-.649-.65M172.42 4.752l-.493.978c-.265.526.526.991.793.463l.492-.978c.265-.526-.526-.992-.792-.463M169.621 9.757c-.106.262-.27.481-.47.68-.419.417.23 1.066.649.649.318-.317.537-.672.706-1.085.223-.546-.664-.784-.885-.244M167.052 14.584c.035.333.017.634-.07.957-.154.57.731.815.885.244.106-.396.145-.794.103-1.201-.06-.582-.978-.588-.918 0M166.562 18.634l.195.49c.216.542 1.103.306.884-.244l-.195-.49c-.215-.542-1.104-.306-.884.244M169.77 19.942c.59 0 .591-.918 0-.918s-.592.918 0 .918M171.205 16.641c-.003-.364.11-.682.358-.95.4-.433-.247-1.083-.649-.65-.412.447-.632.99-.627 1.6.006.59.923.592.918 0M173.557 12.231a.824.824 0 0 1 .262-.655c.42-.416-.229-1.065-.65-.649-.353.352-.54.805-.53 1.304.014.59.931.592.918 0M175.508 8.408c.028-.237.126-.443.257-.64.327-.495-.468-.955-.792-.463-.226.34-.335.7-.383 1.103-.07.585.848.58.918 0M176.886 5.077a1.02 1.02 0 0 1 .144-.452c.292-.515-.5-.977-.793-.463-.164.29-.245.582-.269.915-.04.589.877.587.918 0M178.273 3.397l.29.201c.486.338.945-.457.464-.792l-.29-.201c-.487-.338-.946.457-.464.792M179.307 4.98v.195c0 .59.918.591.918 0v-.196c0-.59-.918-.591-.918 0M178.594 7.328a3.72 3.72 0 0 1-.288 1.052c-.236.535.554 1.002.792.463.217-.493.35-.98.414-1.515.07-.585-.848-.58-.918 0M176.98 12.21l-.475 1.28c-.206.554.68.793.885.244l.475-1.28c.206-.554-.681-.794-.885-.244M175.199 16.543c-.02.33-.099.646-.24.944-.253.53.538.997.791.463.215-.452.335-.907.366-1.407.037-.59-.88-.587-.917 0M174.488 19.853c-.068.096-.135.193-.201.29-.338.486.457.945.792.463l.201-.29c.338-.487-.457-.946-.792-.463M175.65 22.098h.588c.59 0 .591-.917 0-.917h-.588c-.59 0-.592.917 0 .917M178.89 20.892c.109-.183.238-.314.422-.424.506-.303.045-1.097-.463-.793a2.107 2.107 0 0 0-.75.754c-.302.51.49.972.792.463M180.654 18.736l.688-1.175c.299-.51-.494-.973-.792-.463l-.688 1.175c-.299.51.494.972.792.463M182.474 14.19c.023-.24.104-.45.227-.655.304-.509-.49-.97-.792-.463-.209.35-.315.714-.353 1.119-.054.588.864.584.918 0M183.442 9.217c.104-.26.14-.529.112-.808-.06-.581-.978-.587-.918 0 .022.21-.001.37-.079.564-.217.549.669.787.885.244M183.298 4.551l-.098-.196c-.264-.528-1.056-.064-.792.463l.098.196c.264.529 1.056.064.792-.463M184.495 6.38l.2.979c.119.577 1.004.333.885-.244l-.2-.98c-.118-.577-1.003-.333-.885.244M185.732 11.857l.184 1.178c.091.582.975.335.885-.244l-.184-1.178c-.09-.582-.975-.335-.885.244M185.034 16.257c.047.422-.071.766-.389 1.052-.439.397.212 1.043.65.649a2.003 2.003 0 0 0 .656-1.7c-.064-.581-.982-.588-.917 0M182.555 21.418c-.144.39-.417.685-.774.889-.514.292-.052 1.085.462.792.573-.327.97-.823 1.197-1.437.205-.554-.682-.794-.885-.244M180.648 23.862c.59 0 .591-.918 0-.918-.59 0-.591.918 0 .918M185.196 25.013l.584-.494c.453-.381-.199-1.027-.648-.649l-.585.494c-.452.381.2 1.027.649.649M187.375 21.655l.845-1.635c.271-.524-.52-.988-.792-.463l-.845 1.635c-.27.524.52.988.792.463M189.45 17.047l.193-1.26c.088-.578-.796-.826-.885-.244l-.193 1.26c-.089.577.795.826.885.244M189.786 13.19c-.03-.228-.06-.457-.092-.686-.034-.247-.348-.377-.564-.32-.266.07-.353.32-.32.564l.091.687c.034.247.35.377.565.32.266-.07.353-.32.32-.564M188.592 9.353l-.293-.686c-.098-.23-.432-.277-.628-.166-.237.136-.261.402-.164.628.097.23.196.458.293.687.098.23.431.276.628.164.237-.135.26-.401.164-.627M187.312 7.692c.59 0 .591-.918 0-.918-.59 0-.592.918 0 .918M190.6 10.98l.388 1.373c.16.567 1.045.326.885-.244-.13-.458-.26-.916-.388-1.374-.16-.567-1.046-.326-.885.244M190.874 16.053a5.72 5.72 0 0 1-.185 1.642c-.15.571.735.815.885.244a6.627 6.627 0 0 0 .218-1.886c-.017-.589-.935-.591-.918 0M188.42 23.177l-.347.899c-.213.55.674.79.884.244l.348-.9c.213-.551-.675-.79-.885-.243M186.287 26.91l-.192.491c-.214.55.673.79.885.244l.192-.491c.214-.55-.673-.79-.885-.244M184.611 29.406c0-.045-.025-.032-.075.04-.464.365.19 1.01.649.65.297-.234.364-.577.311-.934-.088-.581-.972-.334-.885.244"/>
        <path fill="#5A5A5A" d="M203.554 145.872c-.689-.287-1.503-.356-2.417-.103-16.987 4.713-34.506 5.848-51.942 3.512-.842-.112-1.537.03-2.092.34.014 2.295.04 4.597.01 6.893.554.461 1.247.79 2.082.903 18.09 2.424 36.408 1.085 54.026-3.803.201-.056.387-.126.565-.203a330.803 330.803 0 0 1-.232-7.54"/>
        <path fill="#D6D6D6" d="M186.214 148.965a4.412 4.412 0 0 0-2.245-.133c-3.756.722-7.533.986-11.34.926a3.615 3.615 0 0 0-1.44.263c-.407 2.792-.315 5.555.035 8.302.415.178.881.284 1.405.293 4.515.07 8.972-.386 13.423-1.243a2.64 2.64 0 0 0 .71-.248c.386-2.826.634-5.806-.548-8.16"/>
        <path fill="#000" d="M157.228 150.573c-.502 2.771-.666 5.537-.423 8.349.167 1.94 3.107 1.958 2.939 0-.219-2.533-.136-5.037.318-7.538.349-1.92-2.483-2.742-2.834-.811M195.868 147.985l1.009 8.471c.23 1.923 3.17 1.947 2.939 0l-1.009-8.47c-.23-1.924-3.17-1.948-2.94 0"/>
        <path fill="#020202" d="M174.146 27.188c2.075-1.159 5.066-.782 6.45 1.251.256.376.87.021.612-.358-1.606-2.36-4.986-2.865-7.42-1.506-.399.223-.042.836.358.613M158.898 22.462c.939-.392 2.335.055 3.273.385 1.152.406 2.116 1.076 2.718 2.164.222.4.835.042.613-.358-.615-1.11-1.57-1.868-2.744-2.341-1.133-.456-2.85-1.034-4.049-.534-.414.174-.232.86.19.684M144.611 108.428c.118 2.691 1.833 5.252 4.277 6.386a26.31 26.31 0 0 1-1.84 2.734 22.337 22.337 0 0 1-1.652-.92c-.988-.605-1.952-1.311-2.586-2.282-.969-1.48-1.042-3.354-1.085-5.123l1.807-1.27"/>
        <path fill="#FFF" d="M146.323 112.92c-.353-.27-.852-.296-1.269-.142-.416.155-.757.467-1.03.817-.42.54-.707 1.234-.576 1.905.208 1.068 1.401 1.69 2.489 1.696.567.003 1.148-.123 1.615-.443.469-.32.809-.853.816-1.42.004-.375-.131-.736-.284-1.078-.193-.432-.424-.858-.77-1.18-.347-.32-.828-.525-1.294-.445"/>
        <path fill="#020202" d="M146.502 112.613c-1.406-.823-2.882.44-3.311 1.792-.49 1.546.661 2.816 2.146 3.087 1.354.247 3.113-.347 3.355-1.879.235-1.489-1.098-3.424-2.672-3.338-.454.024-.457.734 0 .71 1.078-.06 2.025 1.315 1.993 2.348-.036 1.148-1.378 1.596-2.328 1.496-.87-.092-1.869-.633-1.914-1.618-.05-1.082 1.213-2.664 2.373-1.985.395.23.752-.382.358-.613"/>
        <g transform="translate(129.642 361.16)">
            <mask id="f" fill="#fff">
                <use xlink:href="#e"/>
            </mask>
            <path fill="#5A5A5A" d="M.898 2.651c2.564 1.785 5.548 2.036 8.599 1.826 3.42-.235 7.326-.545 10.466-1.985 1.244-.57.163-2.406-1.074-1.838-2.792 1.281-6.365 1.488-9.392 1.695-2.689.185-5.244.053-7.525-1.535C.846.03-.219 1.874.898 2.65" mask="url(#f)"/>
        </g>
        <path fill="#5A5A5A" d="M149.25 161.017l-.54 1.724c-.135.437.55.624.685.189l.538-1.725c.136-.436-.548-.623-.684-.188M146.956 169.014l-.495 2.585c-.085.446.598.637.684.189l.495-2.586c.085-.446-.598-.637-.684-.188M145.224 176.822a8.441 8.441 0 0 1-.254 3.05c-.12.442.565.63.684.19a9 9 0 0 0 .28-3.24c-.044-.45-.754-.455-.71 0M144.134 186.161l-.514 2.298c-.1.445.584.635.684.189l.515-2.298c.099-.445-.585-.635-.685-.189M142.333 196.142l-.489 2.587c-.084.446.599.637.684.188l.49-2.586c.084-.446-.6-.637-.685-.19M142.057 205.277a5.706 5.706 0 0 0-.22 2.773c.072.45.755.259.685-.188a4.946 4.946 0 0 1 .22-2.396c.146-.434-.54-.62-.685-.189M141.159 215.092l-.399 3.448c-.052.453.658.449.71 0l.398-3.448c.052-.452-.657-.449-.71 0M140.926 225.101c.135 1.319.07 2.616-.212 3.912-.097.445.587.635.684.19a12.9 12.9 0 0 0 .237-4.102c-.046-.45-.756-.454-.71 0M139.58 236.16a5.314 5.314 0 0 0-.053 2.747c.107.443.791.256.683-.189a4.56 4.56 0 0 1 .054-2.369c.126-.44-.559-.627-.684-.188M139.99 244.7l-.502 3.724c-.06.446.623.639.683.188l.503-3.723c.06-.446-.623-.64-.684-.188M139.496 254.525l.364 3.134c.052.448.762.453.71 0l-.364-3.134c-.052-.448-.762-.453-.71 0M139.859 265.862l-.497 2.87c-.078.447.605.638.683.188l.498-2.87c.077-.445-.606-.637-.684-.188M138.664 274.994a9.263 9.263 0 0 0-.281 3.239c.04.45.75.455.709 0a8.694 8.694 0 0 1 .256-3.051c.118-.442-.566-.63-.684-.188M137.833 283.466c.27 1.295.347 2.589.246 3.908-.035.454.675.453.71 0 .105-1.383.01-2.74-.271-4.097-.093-.446-.778-.257-.685.189M139.054 292.456a6.455 6.455 0 0 0-.232 3.325c.082.449.766.26.683-.188a5.715 5.715 0 0 1 .233-2.948c.148-.433-.537-.619-.684-.189M139.07 302.075c.542.893.685 1.893.41 2.9-.12.442.564.63.684.19a4.347 4.347 0 0 0-.481-3.448c-.237-.39-.851-.034-.613.358M139.174 312.409l-.52 3.721c-.062.447.621.64.684.188l.52-3.72c.062-.447-.62-.64-.684-.19M138.675 322.228a7.03 7.03 0 0 0 .267 2.955c.133.435.818.249.683-.189a6.551 6.551 0 0 1-.24-2.766c.055-.452-.655-.448-.71 0M176.787 213.316c.522.412.861.947 1 1.598.095.446.778.258.684-.189a3.302 3.302 0 0 0-1.182-1.91c-.355-.28-.86.218-.502.5M178.33 219.777c.247 1.289.356 2.582.336 3.894-.006.457.703.457.71 0a19.997 19.997 0 0 0-.362-4.083c-.087-.448-.77-.259-.685.189M179.513 230.527v2.57c0 .457.709.458.709 0v-2.57c0-.457-.71-.457-.71 0M179.74 241.212c.59 2.023.79 4.07.612 6.167-.039.455.671.453.71 0a17.256 17.256 0 0 0-.638-6.356c-.127-.437-.812-.25-.683.19M180.39 252.615c.45 1.269.632 2.563.55 3.907-.029.456.68.454.709 0a10.25 10.25 0 0 0-.575-4.096c-.151-.428-.837-.243-.684.189M181.867 264.59c.456 0 .457-.71 0-.71s-.458.71 0 .71M181.221 269.277a5.945 5.945 0 0 0-.269 2.67c.057.446.767.452.71 0a5.48 5.48 0 0 1 .243-2.482c.146-.434-.539-.62-.684-.188M181.815 278.612c.413 1.273.598 2.567.556 3.906-.014.457.695.456.71 0a11.935 11.935 0 0 0-.583-4.095c-.14-.432-.825-.247-.683.189M181.776 288.619c.313 1.576.406 3.151.295 4.753-.032.456.677.454.71 0a18.613 18.613 0 0 0-.32-4.942c-.09-.447-.773-.258-.685.189M182.94 301.086v4.571c0 .456.71.457.71 0v-4.57c0-.457-.71-.458-.71 0M183.226 313.085v4.57c0 .456.71.457.71 0v-4.57c0-.457-.71-.458-.71 0M183.587 322.595l.278 1.716c.073.45.756.259.684-.19l-.278-1.714c-.073-.45-.756-.259-.684.188M185.176 328.692l-.278 1.715c-.072.447.611.638.684.188l.278-1.714c.072-.447-.61-.64-.684-.19"/>
    </g>
</svg>
