<svg xmlns="http://www.w3.org/2000/svg" xmlns:xlink="http://www.w3.org/1999/xlink" width="40" height="41" viewBox="0 0 40 41">
    <defs>
        <circle id="a" cx="20" cy="20" r="20"/>
        <path id="c" d="M44.21 12.421c0 .701-.56 1.263-1.263 1.263H24.421a1.258 1.258 0 0 1-1.263-1.263V1.263c0-.701.56-1.263 1.263-1.263h18.526c.703 0 1.264.562 1.264 1.263v11.158zm23.158 0c0 .701-.56 1.263-1.263 1.263H47.58a1.258 1.258 0 0 1-1.263-1.263V1.263c0-.7.56-1.263 1.263-1.263h18.526c.702 0 1.263.562 1.263 1.263v11.158zm-46.315 0c0 .701-.561 1.263-1.264 1.263H1.263A1.258 1.258 0 0 1 0 12.421V1.263C0 .562.561 0 1.263 0H19.79c.703 0 1.264.562 1.264 1.263v11.158z"/>
        <circle id="e" cx="20" cy="20" r="20"/>
        <circle id="g" cx="20" cy="20" r="20"/>
        <path id="i" d="M12.044 21.76H.031V.087h12.013z"/>
        <ellipse id="k" cx="4.199" cy="4.2" rx="4.199" ry="4.2"/>
    </defs>
    <g fill="none" fill-rule="evenodd">
        <circle cx="20" cy="20" r="20" fill="#50BE87" fill-rule="nonzero" transform="translate(0 .778)"/>
        <g transform="translate(0 .778)">
            <mask id="b" fill="#fff">
                <use xlink:href="#a"/>
            </mask>
            <g mask="url(#b)">
                <path fill="#B8EBD6" fill-rule="nonzero" d="M30.526 24c0 .701-.56 1.263-1.263 1.263H10.737A1.258 1.258 0 0 1 9.474 24V12.842c0-.701.56-1.263 1.263-1.263h18.526c.702 0 1.263.562 1.263 1.263V24zm23.158 0c0 .701-.56 1.263-1.263 1.263H33.895A1.258 1.258 0 0 1 32.632 24V12.842c0-.7.56-1.263 1.263-1.263H52.42c.702 0 1.263.562 1.263 1.263V24zM7.368 24c0 .701-.56 1.263-1.263 1.263H-12.42A1.258 1.258 0 0 1-13.684 24V12.842c0-.701.56-1.263 1.263-1.263H6.105c.702 0 1.263.562 1.263 1.263V24z"/>
                <g transform="translate(-13.684 11.579)">
                    <mask id="d" fill="#fff">
                        <use xlink:href="#c"/>
                    </mask>
                    <path fill="#0A6E31" fill-rule="nonzero" d="M50.188 7.579v3.823h-.433v-1.6h-1.526v1.6h-.433v-2.68h-1.974v1.476h-.739v.354l-.305.272h-.626v1.108h-.594V9.75H42.53v.754h-.386v-.77h-1.043v.32h-.626v.98l-.08-.305h-.755v.337h-1.782v-.626h-.739v-.995h-1.107v2.167h-1.91V9.042l-.13-.24h-.978v.792l-1.686-1.467v.851h-.498v1.734h-.53V9.22h-.385V8.11h-.77v.65h-.699l-.28.281v3.002h-.827v-1.757l-.394-.394v-2.28h-1.95v2.28l-1.445.394v1.757h-.827V9.043l-.28-.281h-.7v-.65h-.77v1.107h-.385v1.493h-.53V8.978h-.497v-.85h-1.686v.674h-.98v.24l-.128 2.57h-1.91V9.443H13.73v.995h-.738v.626H11.21v-.337h-.755v.305l-.08-.98h-.626v-.32H8.705v.77H8.32V9.75H7.293v2.183h-.594v-1.108h-.627v-.272l-.305-.354H5.03V8.721H3.055v2.681H2.62V8.85h-1.46v2.552H.726v-2.68h-1.975v1.476h-.738v.354l-.305.272h-.627v1.108h-.594V9.75h-1.027v.754h-.385v-.77h-1.044v.32h-.626v.98l-.08-.305h-.755v.337H-9.21v-.626h-.738v-.995h-1.108v2.167h-1.91V9.042l-.129-.24h-.979v-.675h-1.685v.851h-.498v1.734h-.53V9.22h-.385V8.11h-.77v.65h-.7l-.28.281v3.002h-.827v-1.757l-.393-.394V8.047l-.546-.433-.168 1.163-.827.827v7.144H95.459V8.85h-.866v2.552h-.434v-2.68h-1.974v1.476h-.739v.354l-.305.272h-.626v1.108h-.594V9.75h-1.028v.754h-.385v-.77h-1.043v.32h-.626v.98l-.08-.305h-.755v.337h-1.782v-.626h-.739v-.995h-1.107v2.167h-1.91V9.042l-.13-.24h-.978v-.675h-1.686v.851h-.498v1.734h-.53V9.22h-.385V8.11h-.77v.65h-.699l-.28.281v3.002h-.827v-1.757l-.394-.394h-2.231l-.394.394v1.757h-.826V9.042l-.281-.28h-.699v-.65h-.77v1.107h-.385v1.493h-.53V8.978h-.498v-.85H64.99v.674h-.979v.24l-.128 2.57h-1.91V9.443h-1.108v.995h-.739v.626h-1.782v-.337h-.754v.305l-.08-.98h-.626v-.32h-1.044v.77h-.385V9.75h-1.028v2.183h-.594v-1.108h-.626v-.272l-.305-.354h-.738v-2.62z" mask="url(#d)"/>
                </g>
            </g>
        </g>
        <g transform="translate(0 .778)">
            <mask id="f" fill="#fff">
                <use xlink:href="#e"/>
            </mask>
            <g mask="url(#f)">
                <path fill="#CCC" fill-rule="nonzero" d="M6.842-5.368H10V38.42H6.842z"/>
                <path fill="#EEE" fill-rule="nonzero" d="M9.263-5.368H10V38.42h-.737z"/>
            </g>
        </g>
        <g>
            <g transform="translate(0 .778)">
                <mask id="h" fill="#fff">
                    <use xlink:href="#g"/>
                </mask>
                <g fill="#C19372" fill-rule="nonzero" mask="url(#h)">
                    <path d="M46.657 62.627l-14.905-1.83-4.969-16.01-.172-.652-1.28-3.944c-.1-.301-.271-.56-.545-.698l-3.421-2.945a8.525 8.525 0 0 1-1.976-2.388l-3.645-6.254 10.31 1.266c.95.166 1.713-.63 1.828-1.543l.794-6.466.714.34c.182-1.035-.557-1.96-.516-1.957l.47-3.829.034-.274.366-2.985c.273-.194.678-.07.73.216l2.906 9.193c.526 1.517.597 3.15.305 4.707l-1.293 5.396c-.071.453-.023.876.096 1.274l14.17 29.383z"/>
                </g>
            </g>
            <path fill="#333" fill-rule="nonzero" d="M27.953 28.495c-.111.87-.958 1.528-1.937 1.403l-10.31-1.266a1.812 1.812 0 0 1-1.446-1.566c.003-.137.042-.254.046-.373l3.1-25.243c.121-.868 1.049-1.517 1.937-1.403l10.185 1.25c.865.164 1.643 1.03 1.525 1.955l-3.1 25.243z"/>
            <path fill="#000" fill-rule="nonzero" d="M22.95 2.593l2.552.326a.098.098 0 0 0 .11-.084l.036-.283a.098.098 0 0 0-.085-.11l-2.552-.326a.098.098 0 0 0-.109.085l-.036.283a.098.098 0 0 0 .084.11m4.313.066a.24.24 0 1 1-.061.477.24.24 0 0 1 .06-.477"/>
            <path stroke="#666" stroke-width=".2" d="M20.25 27.295a.943.943 0 1 0 1.874.228.943.943 0 0 0-1.873-.228z"/>
            <path fill="#4BB4E6" fill-rule="nonzero" d="M27.374 26.026L15.45 24.562 18.09 3.049l11.924 1.464z"/>
            <g transform="rotate(7 -15.16 149.212)">
                <mask id="j" fill="#fff">
                    <use xlink:href="#i"/>
                </mask>
                <g mask="url(#j)">
                    <path fill="#FFF" fill-rule="nonzero" d="M0 21.82h12.086V.105H0z"/>
                    <path fill="#EEE" fill-rule="nonzero" d="M5.94 13.421h.5v8.4h-.5z"/>
                    <path fill="#EEE" fill-rule="nonzero" d="M0 17.518h12.086v.5H0z"/>
                    <path fill="#DDD" fill-rule="nonzero" d="M1.024 15.265h3.892v.614H1.024v-.614zm6.146 0h3.892v.614H7.17v-.614zm-6.146 4.097h3.892v.615H1.024v-.615zm6.146 0h3.892v.615H7.17v-.615z"/>
                    <path fill="#F6F6F6" fill-rule="nonzero" d="M0 13.42h12.086V.105H0z"/>
                    <g transform="translate(1.844 2.563)">
                        <ellipse cx="4.199" cy="4.2" fill="#32C832" fill-rule="nonzero" rx="4.199" ry="4.2"/>
                        <mask id="l" fill="#fff">
                            <use xlink:href="#k"/>
                        </mask>
                        <path fill="#EEE" fill-rule="nonzero" d="M0 0h4.507v4.302H0z" mask="url(#l)"/>
                        <ellipse cx="4.199" cy="4.2" fill="#F6F6F6" fill-rule="nonzero" rx="3.38" ry="3.38"/>
                        <path fill="#DDD" fill-rule="nonzero" d="M2.253 3.278h3.892v.614H2.253v-.614zm1.025 1.23H5.12v.614H3.278v-.615z"/>
                    </g>
                </g>
            </g>
            <path fill="#C19372" fill-rule="nonzero" d="M13.754 18.681l.262.301.596.69a.72.72 0 0 0 .522.247l.055-.454a.717.717 0 0 1-.522-.248l-.596-.689-.317.153z"/>
            <path fill="#C19372" fill-rule="nonzero" d="M13.754 18.681l.262.301.596.69a.72.72 0 0 0 .522.247l.055-.454a.717.717 0 0 1-.522-.248l-.596-.689-.317.153zM11.912 24.099l-.036.297a1.558 1.558 0 0 0 .693 1.492l1.816 1.202a.567.567 0 0 0 .77-.139l.076-.104a1.425 1.425 0 0 0 .02-1.65 2.18 2.18 0 0 1-.143.138l-.049.043a.803.803 0 0 1-1.177-.128l-1.263-1.72-.21-.287-.077.066a1.244 1.244 0 0 0-.42.79"/>
            <path fill="#C19372" fill-rule="nonzero" d="M12.409 23.243l.21.287 1.263 1.72a.803.803 0 0 0 1.177.128l.05-.043c.05-.045.097-.09.142-.138a1.425 1.425 0 0 0-.375-.371l-.007-.004a1.263 1.263 0 0 1-1.221-.5l-.965-1.315-.239.205-.035.031z"/>
            <path fill="#C19372" fill-rule="nonzero" d="M12.295 22.478l.388.529 1.263 1.72a.803.803 0 0 0 1.177.128l.05-.044c.859-.756.969-2.055.249-2.945l-.456-.564.168-1.383a.717.717 0 0 1-.522-.247l-.597-.69-.261-.3-.531.255a1.91 1.91 0 0 0-1.05 1.289l-.181.76a1.814 1.814 0 0 0 .303 1.492m3.565-3.35l-.162.15a.717.717 0 0 1-.509.187.716.716 0 0 1-.522-.248l-.596-.689-.981-1.133a1.842 1.842 0 0 1-.086-2.306l.272-.365a1.718 1.718 0 0 1 1.092-.668l1.51-.255-.265 2.176.67.892a1.911 1.911 0 0 1-.423 2.26"/>
        </g>
    </g>
</svg>
