<svg xmlns="http://www.w3.org/2000/svg" xmlns:xlink="http://www.w3.org/1999/xlink" width="150" height="150" viewBox="0 0 150 150">
    <defs>
        <path id="a" d="M0 0h150v142H0z"/>
        <path id="c" d="M.205.128h54.55V94.84H.204z"/>
        <path id="e" d="M.056.041h2.677v1.35H.056z"/>
    </defs>
    <g fill="none" fill-rule="evenodd">
        <path fill="#D6D6D6" d="M138.01 73.976c0 36.376-29.489 65.864-65.864 65.864-36.376 0-65.864-29.488-65.864-65.864C6.282 37.6 35.77 8.112 72.146 8.112c36.375 0 65.864 29.488 65.864 65.864"/>
        <g transform="translate(0 4)">
            <mask id="b" fill="#fff">
                <use xlink:href="#a"/>
            </mask>
            <g mask="url(#b)">
                <path fill="#714F47" d="M50.572 72.2c-2.786-3.237-8.512 3.656-11.147 7.498-2.658 3.875-6.394 7.078-8.46 11.35-2.065 4.272-1.251 9.909-.896 14.611.826 10.931 6.362 24.14 5.068 35.145-.62 5.273-31.819 85.87-25.552 86.232 5.416.313 26.747-5.102 32.098-3.443 3.25 1.008 5.14 2.536 6.784-1.114 1.057-2.347 12.402-80.077 13.087-82.545.842-3.035 1.555-5.506 3.102-8.295 3.826-6.893-.273-17.02-.726-24.825-.467-8.028 2.542-13.705-5.898-18.458-5.15-2.9-3.61-11.68-7.46-16.156"/>
                <g transform="rotate(-10 124.404 -210.581)">
                    <mask id="d" fill="#fff">
                        <use xlink:href="#c"/>
                    </mask>
                    <path fill="#595959" d="M4.22 2.357c2.746-2.102 6.046-2 9.83-1.994C17.919.37 23.003.302 26.869.244 30.605.19 34.574.108 38.31.132c3.327.021 8.956-.091 11.798 1.855 2.533 1.737 3.834 5.638 4.253 8.619.847 6.032.069 12.147.006 18.206-.076 7.465.054 14.387.15 21.855.071 5.554.071 12.878-.129 18.429-.17 4.702.155 8.212-.058 12.912-.153 3.394.702 7.71-2.52 10.287-2.015 1.612-5.24 2.195-7.699 2.4-3.898.324-7.812-.004-11.716.088-4.554.107-9.091-.105-13.635-.4-3.99-.26-8.878.672-12.636-.708C1.859 92.11.652 87.895.518 83.145.008 65.068.98 46.851.253 28.892c-.2-4.954.278-10.14.518-15.178C.972 9.51.406 5.274 4.22 2.357" mask="url(#d)"/>
                </g>
                <path fill="#000" d="M79.648 11.357c.472-.383 1.332-.813 3.003-.922.645-.042 1.273.056 1.709.24.074.418.255.92-.21 1.332-.365.324-1.463.693-1.99.777-.64.1-1.145.108-1.734-.035-.864-.209-.621-.864-.778-1.392"/>
                <g transform="rotate(-10 100.357 -458.926)">
                    <mask id="f" fill="#fff">
                        <use xlink:href="#e"/>
                    </mask>
                    <path fill="#595959" d="M1.753.09c.843.124 1.539.923.331 1.214h-.002C.544 1.673-.3.77.2.301.424.091.923-.032 1.753.09" mask="url(#f)"/>
                </g>
                <path fill="#000" d="M49.412 19.62c7.68-1.35 28.221-5.164 34.36-6.244 8.127-1.428 9.613 8.815 10.214 11.61.22 1.016 4.971 28.04 8.415 47.646 1.94 11.043 3.464 19.732 3.53 20.091 1.51 8.36-2.421 10.49-7.886 11.451l-29.403 5.17c-12.291 2.16-12.857-1.288-14.18-8.804-.425-2.42-2.799-15.421-5.316-29.234-2.534-13.899-5.213-28.62-6.197-34.217a63.42 63.42 0 0 0-.455-2.261c-1.136-5.29-2.664-13.523 6.918-15.208"/>
                <path fill="#595959" d="M58.691 20.05c1.77-.285 2.663-.335 3.972-.61 1.27-.268 4.825-.857 7.555-1.313.63-.106 6.84-1.732 5.082.596-.505.669-2.032.687-2.776.857-1.86.429-4.442.82-6.715 1.23-2.502.449-3.878.688-6.853 1.206-2.512.436-2.275-1.642-.265-1.966"/>
                <path fill="#000" d="M93.935 93.238c2.686-.204 4.854-.682 7.294-2.035l2.113-1.65c2.134 3.09 2.103 8.13.015 11.296-1.76 2.667-5.722 3.248-8.697 3.435-3.341.212-6.805.703-7.873-2.556-.675-2.06-2.487-4.46-2.782-6.614-.039-.29 9.043-1.809 9.93-1.876"/>
                <path fill="#FFF" d="M56.012 96.075l-1.738-9.691L51.303 69.8l.005-.001-1.186-6.625c-.644-3.603-4.065-22.356-4.71-25.96-.336-1.874-.387-2.24-.73-4.114-.943-5.152 1.999-6.228 5.168-6.841 3.776-.731 5.485-1.071 9.26-1.806 5.527-1.074 11.053-2.148 16.58-3.217 2.568-.496 4.748-.936 7.317-1.43 2.249-.432 6.84-1.036 7.623 3.238.532 2.898 4.7 25.706 5.232 28.603.562 3.067 1.127 6.133 1.69 9.2l3.62 19.711c.33 1.804.619 3.383 1.044 5.664.356 1.918 1.63 6.213-6.373 7.763-3.195.619-29.946 5.73-32.582 6.26-6.24 1.256-7.054-3.086-7.249-4.171"/>
                <path fill="#000" d="M68.504 52.41l-12.296 2.167a2.535 2.535 0 0 0 .88 4.993l6.27-1.105-8.313 11.87a2.535 2.535 0 0 0 4.153 2.909l8.312-11.871 1.105 6.269a2.535 2.535 0 1 0 4.994-.88L71.44 54.464a2.535 2.535 0 0 0-2.937-2.056"/>
                <path fill="#F27930" d="M79.042 68.378l12.296-2.169a2.535 2.535 0 0 0-.88-4.993l-6.27 1.106 8.313-11.872a2.535 2.535 0 0 0-4.153-2.907l-8.313 11.871-1.105-6.27a2.535 2.535 0 0 0-4.993.881l2.168 12.296a2.535 2.535 0 0 0 2.937 2.057"/>
                <path fill="#9DAAC0" d="M84.036 90.695l.017.02a.147.147 0 0 1-.017-.02"/>
                <path fill="#233143" d="M94.465 56.616c-.021.032-.041.066-.063.097.022-.032.042-.065.062-.098zM94.03 56.436l-.004-.021.01.018-.006.003zM52.332 63.273l-.006-.021.011.018-.005.003z"/>
                <path fill="#8F8F8F" d="M74.7 101.875c1.11-.47 2.606-.766 3.634-1.025.945-.238 3.611-.646 5.658-.967.86-.135 5.975-1.305 4.307 1.562-.397.685-1.652.967-2.293 1.157-1.377.408-3.32.646-5.02.958-1.871.345-2.9.521-5.127.902-1.883.321-3.543-1.58-1.16-2.587"/>
                <path fill="#FF7900" d="M49.713 138.882c-.06.043-.105.08 0 0M28.779 145.004c1.131-2.594 3.909-4.105 6.516-4.812 4.851-1.317 10.159-.712 15.02.196 3.42.638 7.087 1.32 10.163 3.012 2.955 1.625 5.532 4.147 7.083 7.154.95 1.84 1.727 3.947 1.315 6.046-.288 1.464-1.2 2.782-2.253 3.808-2.177 2.125-6.35 4.02-9.178 5.072-.226.084-.4.093-.538.047.458-1.489.672-3.045.8-4.597.203-.077.406-.154.607-.236.097-.039.193-.08.29-.12l.016-.006c.548-.274 1.106-.52 1.647-.812.488-.263.967-.543 1.433-.843a18.189 18.189 0 0 0 1.061-.735c.054-.04.418-.353.22-.176.356-.315.706-.63 1.022-.988.097-.11.187-.225.28-.338.13-.217.233-.49.38-.687.02-.085.047-.17.067-.255.002-.008.011-.104.02-.18-.005-.138-.008-.42-.008-.394 0-.012-.023-.223-.02-.231a5.979 5.979 0 0 0-.12-.49 9.306 9.306 0 0 0-.383-1.103c-.021-.047-.071-.16-.084-.184-.082-.165-.161-.33-.247-.493a14.26 14.26 0 0 0-1.107-1.78c-.087-.12-.176-.238-.266-.355l-.098-.133a3.434 3.434 0 0 1-.105-.111c-.477-.52-.955-1.028-1.486-1.495-.694-.611-.875-.75-1.599-1.205-1.263-.792-2.246-1.229-3.527-1.588a75.961 75.961 0 0 0-4.983-1.208 60.908 60.908 0 0 0-4.769-.807l-.34-.041a39.91 39.91 0 0 0-.711-.072c-.614-.057-1.232-.1-1.85-.128a30.717 30.717 0 0 0-3.263.016c-.43.026-.858.064-1.286.113-.064.007-.347.047-.456.061l-.053.009c-.124.023-.249.044-.372.068-.728.14-1.449.325-2.147.575-.145.052-.286.108-.43.163l-.026.01a11.39 11.39 0 0 0-.79.416c-.215.128-.419.27-.625.413l-.01.007c-.066.058-.132.115-.196.174a5.686 5.686 0 0 0-.46.49c-.024.03-.048.064-.072.098a.907.907 0 0 1-.114.14l.066-.063c-.095.16-.17.329-.254.493-.02.066-.04.13-.057.198-.018.073-.03.149-.045.224v.393a.835.835 0 0 0-.038-.136c.02.051.03.112.04.172v.04l.001.062c-.2 1.033-.178 2.107-.488 3.131a40.503 40.503 0 0 1-.54 1.62c-.362-.044-.865-.356-1.639-1.143-1.668-1.785-1.98-4.261-1.014-6.476M46.188 144.589c-.062.045-.11.082 0 0"/>
                <path fill="#714F47" d="M64.321 78.313c-5.284 6.251-2.253 18.193-10.916 22.785-1.538.816-3.029 2.057-4.747 1.996-2.067-.073-3.292-1.607-4.856-2.758.638.47.712 4.401.823 5.249.185 1.434.267 2.785.01 4.214-.475 2.645-.823 4.64-.018 7.33 1.514 5.054.53 21.213 5.858 22.73 7.88 2.242 15.703-7.502 17.387-14.574.385-1.617 1.712-9.464 1.682-11.087-.065-3.52-.982-9.252-1.061-12.76-.18-7.971 3.204-20.037 3.726-24.172.361-2.862-4.542-2.911-7.888 1.047"/>
                <path fill="#806059" d="M69.741 76.01c-1.608 2.395-3.003 5.126-2.86 8.007.031.618.143 1.256.496 1.765.352.51.996.856 1.597.706.623-.155 1.013-.76 1.311-1.33a19.872 19.872 0 0 0 2.23-8.168c.03-.612-.048-1.362-.607-1.611-.492-.22-1.046.095-1.491.398"/>
            </g>
        </g>
    </g>
</svg>
