<svg xmlns="http://www.w3.org/2000/svg" width="50" height="50" viewBox="0 0 50 50">
    <g fill="none" fill-rule="nonzero">
        <path fill="#F60" d="M1.563 46.879C1.563 48.603 2.962 50 4.688 50h18.75V26.592H1.563v20.287zM26.563 50h18.75a3.123 3.123 0 0 0 3.124-3.121V26.592H26.564V50z"/>
        <path fill="#FFB400" d="M46.875 12.547A3.123 3.123 0 0 1 50 15.667v7.804H26.562V12.558h-3.125v10.913H0v-7.802c0-1.724 1.4-3.122 3.125-3.122h12.312c-.974-.059-2.054-.331-2.914-.823A6.24 6.24 0 0 1 12.432.86a6.257 6.257 0 0 1 6.296.028c1.018.581 1.761 1.322 2.296 2.274L25 9.907l3.976-6.746c.535-.952 1.278-1.692 2.297-2.274a6.257 6.257 0 0 1 6.295-.028 6.24 6.24 0 0 1-.09 10.864c-.862.492-1.942.765-2.916.824h12.313zm-30.949-3.11h5.172l-2.765-4.692-.017-.028-.015-.028c-.26-.459-.607-.796-1.125-1.092A3.124 3.124 0 0 0 12.608 5.5a3.12 3.12 0 0 0 1.466 3.512c.444.254 1.152.424 1.761.424h.091zm18.179 0l.06.001c.609 0 1.316-.17 1.76-.424a3.12 3.12 0 0 0-1.556-5.83 3.08 3.08 0 0 0-1.543.412c-.521.297-.867.633-1.125 1.093l-.016.028-.016.027-2.766 4.693h5.202z"/>
    </g>
</svg>
