<svg xmlns="http://www.w3.org/2000/svg" xmlns:xlink="http://www.w3.org/1999/xlink" width="40" height="40" viewBox="0 0 40 40">
    <defs>
        <path id="a" d="M0 .081h39.916v39.782H0z"/>
        <path id="c" d="M19.958.081C8.936.081 0 8.987 0 19.972c0 10.985 8.936 19.89 19.958 19.89 11.023 0 19.958-8.905 19.958-19.89"/>
        <path id="e" d="M19.958.081C8.936.081 0 8.987 0 19.972c0 10.985 8.936 19.89 19.958 19.89 11.023 0 19.958-8.905 19.958-19.89"/>
        <path id="g" d="M19.958.081C8.936.081 0 8.987 0 19.972c0 10.985 8.936 19.89 19.958 19.89 11.023 0 19.958-8.905 19.958-19.89"/>
        <path id="i" d="M19.958.081C8.936.081 0 8.987 0 19.972c0 10.985 8.936 19.89 19.958 19.89 11.023 0 19.958-8.905 19.958-19.89"/>
        <path id="k" d="M19.958.081C8.936.081 0 8.987 0 19.972c0 10.985 8.936 19.89 19.958 19.89 11.023 0 19.958-8.905 19.958-19.89"/>
        <path id="m" d="M19.958.081C8.936.081 0 8.987 0 19.972c0 10.985 8.936 19.89 19.958 19.89 11.023 0 19.958-8.905 19.958-19.89"/>
        <path id="o" d="M19.958.081C8.936.081 0 8.987 0 19.972c0 10.985 8.936 19.89 19.958 19.89 11.023 0 19.958-8.905 19.958-19.89"/>
        <path id="q" d="M19.958.081C8.936.081 0 8.987 0 19.972c0 10.985 8.936 19.89 19.958 19.89 11.023 0 19.958-8.905 19.958-19.89"/>
        <path id="s" d="M19.958.081C8.936.081 0 8.987 0 19.972c0 10.985 8.936 19.89 19.958 19.89 11.023 0 19.958-8.905 19.958-19.89"/>
        <path id="u" d="M19.958.081C8.936.081 0 8.987 0 19.972c0 10.985 8.936 19.89 19.958 19.89 11.023 0 19.958-8.905 19.958-19.89"/>
        <path id="w" d="M19.958.081C8.936.081 0 8.987 0 19.972c0 10.985 8.936 19.89 19.958 19.89 11.023 0 19.958-8.905 19.958-19.89"/>
        <path id="y" d="M19.958.081C8.936.081 0 8.987 0 19.972c0 10.985 8.936 19.89 19.958 19.89 11.023 0 19.958-8.905 19.958-19.89"/>
        <path id="A" d="M19.958.081C8.936.081 0 8.987 0 19.972c0 10.985 8.936 19.89 19.958 19.89 11.023 0 19.958-8.905 19.958-19.89"/>
        <path id="C" d="M19.958.081C8.936.081 0 8.987 0 19.972c0 10.985 8.936 19.89 19.958 19.89 11.023 0 19.958-8.905 19.958-19.89 0-10.985-8.935-19.89-19.958-19.89z"/>
        <path id="E" d="M19.958.081C8.936.081 0 8.987 0 19.972c0 10.985 8.936 19.89 19.958 19.89 11.023 0 19.958-8.905 19.958-19.89"/>
        <path id="G" d="M19.958.081C8.936.081 0 8.987 0 19.972c0 10.985 8.936 19.89 19.958 19.89 11.023 0 19.958-8.905 19.958-19.89"/>
        <path id="I" d="M19.958.081C8.936.081 0 8.987 0 19.972c0 10.985 8.936 19.89 19.958 19.89 11.023 0 19.958-8.905 19.958-19.89 0-10.985-8.935-19.89-19.958-19.89z"/>
        <path id="K" d="M19.958.081C8.936.081 0 8.987 0 19.972c0 10.985 8.936 19.89 19.958 19.89 11.023 0 19.958-8.905 19.958-19.89 0-10.985-8.935-19.89-19.958-19.89z"/>
        <path id="M" d="M19.958.081C8.936.081 0 8.987 0 19.972c0 10.985 8.936 19.89 19.958 19.89 11.023 0 19.958-8.905 19.958-19.89 0-10.985-8.935-19.89-19.958-19.89z"/>
        <path id="O" d="M19.958.081C8.936.081 0 8.987 0 19.972c0 10.985 8.936 19.89 19.958 19.89 11.023 0 19.958-8.905 19.958-19.89 0-10.985-8.935-19.89-19.958-19.89z"/>
        <path id="Q" d="M19.958.081C8.936.081 0 8.987 0 19.972c0 10.985 8.936 19.89 19.958 19.89 11.023 0 19.958-8.905 19.958-19.89 0-10.985-8.935-19.89-19.958-19.89z"/>
        <path id="S" d="M19.958.081C8.936.081 0 8.987 0 19.972c0 10.985 8.936 19.89 19.958 19.89 11.023 0 19.958-8.905 19.958-19.89 0-10.985-8.935-19.89-19.958-19.89z"/>
        <path id="U" d="M19.958.081C8.936.081 0 8.987 0 19.972c0 10.985 8.936 19.89 19.958 19.89 11.023 0 19.958-8.905 19.958-19.89 0-10.985-8.935-19.89-19.958-19.89z"/>
        <path id="W" d="M19.958.081C8.936.081 0 8.987 0 19.972c0 10.985 8.936 19.89 19.958 19.89 11.023 0 19.958-8.905 19.958-19.89"/>
        <path id="Y" d="M19.958.081C8.936.081 0 8.987 0 19.972c0 10.985 8.936 19.89 19.958 19.89 11.023 0 19.958-8.905 19.958-19.89"/>
        <path id="aa" d="M19.958.081C8.936.081 0 8.987 0 19.972c0 10.985 8.936 19.89 19.958 19.89 11.023 0 19.958-8.905 19.958-19.89"/>
        <path id="ac" d="M19.958.081C8.936.081 0 8.987 0 19.972c0 10.985 8.936 19.89 19.958 19.89 11.023 0 19.958-8.905 19.958-19.89"/>
        <path id="ae" d="M19.958.081C8.936.081 0 8.987 0 19.972c0 10.985 8.936 19.89 19.958 19.89 11.023 0 19.958-8.905 19.958-19.89"/>
        <path id="ag" d="M19.958.081C8.936.081 0 8.987 0 19.972c0 10.985 8.936 19.89 19.958 19.89 11.023 0 19.958-8.905 19.958-19.89"/>
        <path id="ai" d="M19.958.081C8.936.081 0 8.987 0 19.972c0 10.985 8.936 19.89 19.958 19.89 11.023 0 19.958-8.905 19.958-19.89"/>
        <path id="ak" d="M19.958.081C8.936.081 0 8.987 0 19.972c0 10.985 8.936 19.89 19.958 19.89 11.023 0 19.958-8.905 19.958-19.89"/>
        <path id="am" d="M19.958.081C8.936.081 0 8.987 0 19.972c0 10.985 8.936 19.89 19.958 19.89 11.023 0 19.958-8.905 19.958-19.89"/>
        <path id="ao" d="M19.958.081C8.936.081 0 8.987 0 19.972c0 10.985 8.936 19.89 19.958 19.89 11.023 0 19.958-8.905 19.958-19.89"/>
        <path id="aq" d="M19.958.081C8.936.081 0 8.987 0 19.972c0 10.985 8.936 19.89 19.958 19.89 11.023 0 19.958-8.905 19.958-19.89"/>
        <path id="as" d="M19.958.081C8.936.081 0 8.987 0 19.972c0 10.985 8.936 19.89 19.958 19.89 11.023 0 19.958-8.905 19.958-19.89"/>
        <path id="au" d="M19.958.081C8.936.081 0 8.987 0 19.972c0 10.985 8.936 19.89 19.958 19.89 11.023 0 19.958-8.905 19.958-19.89"/>
        <path id="aw" d="M19.958.081C8.936.081 0 8.987 0 19.972c0 10.985 8.936 19.89 19.958 19.89 11.023 0 19.958-8.905 19.958-19.89"/>
        <path id="ay" d="M19.958.081C8.936.081 0 8.987 0 19.972c0 10.985 8.936 19.89 19.958 19.89 11.023 0 19.958-8.905 19.958-19.89"/>
        <path id="aA" d="M19.958.081C8.936.081 0 8.987 0 19.972c0 10.985 8.936 19.89 19.958 19.89 11.023 0 19.958-8.905 19.958-19.89"/>
        <path id="aC" d="M19.958.081C8.936.081 0 8.987 0 19.972c0 10.985 8.936 19.89 19.958 19.89 11.023 0 19.958-8.905 19.958-19.89"/>
        <path id="aE" d="M19.958.081C8.936.081 0 8.987 0 19.972c0 10.985 8.936 19.89 19.958 19.89 11.023 0 19.958-8.905 19.958-19.89"/>
        <path id="aG" d="M19.958.081C8.936.081 0 8.987 0 19.972c0 10.985 8.936 19.89 19.958 19.89 11.023 0 19.958-8.905 19.958-19.89"/>
        <path id="aI" d="M19.958.081C8.936.081 0 8.987 0 19.972c0 10.985 8.936 19.89 19.958 19.89 11.023 0 19.958-8.905 19.958-19.89"/>
        <path id="aK" d="M19.958.081C8.936.081 0 8.987 0 19.972c0 10.985 8.936 19.89 19.958 19.89 11.023 0 19.958-8.905 19.958-19.89"/>
        <path id="aM" d="M19.958.081C8.936.081 0 8.987 0 19.972c0 10.985 8.936 19.89 19.958 19.89 11.023 0 19.958-8.905 19.958-19.89"/>
        <path id="aO" d="M19.958.081C8.936.081 0 8.987 0 19.972c0 10.985 8.936 19.89 19.958 19.89 11.023 0 19.958-8.905 19.958-19.89"/>
        <path id="aQ" d="M19.958.081C8.936.081 0 8.987 0 19.972c0 10.985 8.936 19.89 19.958 19.89 11.023 0 19.958-8.905 19.958-19.89"/>
        <path id="aS" d="M19.958.081C8.936.081 0 8.987 0 19.972c0 10.985 8.936 19.89 19.958 19.89 11.023 0 19.958-8.905 19.958-19.89"/>
        <path id="aU" d="M19.958.081C8.936.081 0 8.987 0 19.972c0 10.985 8.936 19.89 19.958 19.89 11.023 0 19.958-8.905 19.958-19.89"/>
        <path id="aW" d="M19.958.081C8.936.081 0 8.987 0 19.972c0 10.985 8.936 19.89 19.958 19.89 11.023 0 19.958-8.905 19.958-19.89"/>
        <path id="aY" d="M19.958.081C8.936.081 0 8.987 0 19.972c0 10.985 8.936 19.89 19.958 19.89 11.023 0 19.958-8.905 19.958-19.89"/>
        <path id="ba" d="M19.958.081C8.936.081 0 8.987 0 19.972c0 10.985 8.936 19.89 19.958 19.89 11.023 0 19.958-8.905 19.958-19.89"/>
        <path id="bc" d="M19.958.081C8.936.081 0 8.987 0 19.972c0 10.985 8.936 19.89 19.958 19.89 11.023 0 19.958-8.905 19.958-19.89"/>
        <path id="be" d="M19.958.081C8.936.081 0 8.987 0 19.972c0 10.985 8.936 19.89 19.958 19.89 11.023 0 19.958-8.905 19.958-19.89"/>
        <path id="bg" d="M19.958.081C8.936.081 0 8.987 0 19.972c0 10.985 8.936 19.89 19.958 19.89 11.023 0 19.958-8.905 19.958-19.89"/>
        <path id="bi" d="M19.958.081C8.936.081 0 8.987 0 19.972c0 10.985 8.936 19.89 19.958 19.89 11.023 0 19.958-8.905 19.958-19.89"/>
        <path id="bk" d="M19.958.081C8.936.081 0 8.987 0 19.972c0 10.985 8.936 19.89 19.958 19.89 11.023 0 19.958-8.905 19.958-19.89"/>
        <path id="bm" d="M19.958.081C8.936.081 0 8.987 0 19.972c0 10.985 8.936 19.89 19.958 19.89 11.023 0 19.958-8.905 19.958-19.89"/>
        <path id="bo" d="M19.958.081C8.936.081 0 8.987 0 19.972c0 10.985 8.936 19.89 19.958 19.89 11.023 0 19.958-8.905 19.958-19.89"/>
        <path id="bq" d="M19.958.081C8.936.081 0 8.987 0 19.972c0 10.985 8.936 19.89 19.958 19.89 11.023 0 19.958-8.905 19.958-19.89"/>
        <path id="bs" d="M19.958.081C8.936.081 0 8.987 0 19.972c0 10.985 8.936 19.89 19.958 19.89 11.023 0 19.958-8.905 19.958-19.89"/>
        <path id="bu" d="M19.958.081C8.936.081 0 8.987 0 19.972c0 10.985 8.936 19.89 19.958 19.89 11.023 0 19.958-8.905 19.958-19.89"/>
    </defs>
    <g fill="none" fill-rule="evenodd">
        <g transform="translate(0 .054)">
            <mask id="b" fill="#fff">
                <use xlink:href="#a"/>
            </mask>
            <path fill="#FAB431" d="M19.958.081c11.023 0 19.958 8.906 19.958 19.891 0 10.985-8.935 19.89-19.958 19.89C8.936 39.863 0 30.958 0 19.973 0 8.987 8.936.082 19.958.082" mask="url(#b)"/>
        </g>
        <g transform="translate(0 .054)">
            <mask id="d" fill="#fff">
                <use xlink:href="#c"/>
            </mask>
            <path fill="#725048" d="M27.54 21.329c-.953-.237-2.23-.012-3.022-.479-2.492-1.48-4.902-3.077-7.133-4.806a38.19 38.19 0 0 1-1.209 2.333c-.45.888-1 1.792-1.55 2.696-.306.56-.104 1.13-.41 1.688-.387.674-1.04.991-1.33 1.648-.208.541-.514 1.1-.509 1.705-.011.507-.023 1.014-.15 1.44-.301 1.164-.62 2.23-1.463 3.186-.601.61-1.035 1.596-1.405 2.368-.613 1.117-1.717 2.321-.561 3.128 1.75 1.308 4.092 2.512 6.132 3.164 1.515.542 3.024.478 3.764-1.066.578-1.313.532-2.719 1.654-3.825.942-.973 2.399-1.33 3.341-2.304 1.382-1.353 2.463-3.26 3.267-5.017.74-1.544 1.758-3.238 1.544-5.018.093-.622-.549-.812-.96-.841" mask="url(#d)"/>
        </g>
        <g transform="translate(0 .054)">
            <mask id="f" fill="#fff">
                <use xlink:href="#e"/>
            </mask>
            <path fill="#725048" d="M30.171 18.443c.214.063.526.11.758.27.115.081-1.914 4.073-2.955 3.347-1.289-.985.885-3.589 2.197-3.617" mask="url(#f)"/>
        </g>
        <g transform="translate(0 .054)">
            <mask id="h" fill="#fff">
                <use xlink:href="#g"/>
            </mask>
            <path fill="#725048" d="M27.715 15.44c-.26.249-1.156.91-1.503.669-.56-.305.856-1.463 1.116-1.71.422-.48.861-.86 1.283-1.337.26-.248.486-.692.22-1.049s-.705.023-.983.173c-1.352.944-2.67 2.085-3.89 3.208-.7.628-1.417 1.158-2.134 1.688-.439.38-.942.973-1.567.881-.427-.127-1.023-.628-1.312.029-.144.328-.254.853-.266 1.36l-.087 1.227c-.092.622.012 1.21.116 1.797.12.686-.122 2.748-.122 2.748.37.945.33 1.861 1.445 1.867.919.04 2.08-.265 2.879-.91.44-.38.485-.691 1.11-.599.526.11.988.432 1.48.346.393-.07.665-.824.907-1.17.469-.789 1.035-1.595 1.37-2.563.209-.541.515-1.1.625-1.624.11-.525.318-1.066.313-1.671-.006-.605-.486-1.026-.492-1.63-.005-.606.532-1.003.51-1.706-.035-.196-.087-.49-.301-.553-.393.07-.538.397-.717.53" mask="url(#h)"/>
        </g>
        <g transform="translate(0 .054)">
            <mask id="j" fill="#fff">
                <use xlink:href="#i"/>
            </mask>
            <path fill="#725048" d="M27.514 9.72l-.405.576c-.226.444-.284 1.262-.856 1.463-.572.202-.977-.939-1.144-1.313-.272-.963.607-1.723 1.324-2.253.815-.547 1.636-.49 2.104.438-.278.15-.7.628-1.023 1.089" mask="url(#j)"/>
        </g>
        <g transform="translate(0 .054)">
            <mask id="l" fill="#fff">
                <use xlink:href="#k"/>
            </mask>
            <path fill="#725048" d="M28.125 15.47l-.225.443c.017.098.341 1.354.439 1.337.653-.317 1.301-1.238.966-1.987-.15-.277-.798-1.072-1.22-.594-.162.23.202.57.04.8" mask="url(#l)"/>
        </g>
        <g transform="translate(0 .054)">
            <mask id="n" fill="#fff">
                <use xlink:href="#m"/>
            </mask>
            <path fill="#8F8F8F" d="M25.254 4.967c-.775-.37-1.56-.23-2.544-.058l-3.243.57-2.85.5c-.786.139-2.26.398-2.861 1.008-.52.496-.74 1.544-.7 2.345.063 1.504.537 3.036.797 4.505l.97 5.485.815 4.603.572 3.233c.156.881.15 1.993 1.04 2.442.56.306 1.381.363 2.07.243 1-.075 1.965-.346 2.948-.519 1.179-.207 2.26-.397 3.422-.702.965-.27 2.295-.201 3.11-.748 1.012-.582 1.116-1.711.908-2.887-.699-4.522-1.71-9.09-2.293-13.533-.127-1.29-.549-2.53-.774-3.802-.19-1.078-.283-2.172-1.387-2.685" mask="url(#n)"/>
        </g>
        <g transform="translate(0 .054)">
            <mask id="p" fill="#fff">
                <use xlink:href="#o"/>
            </mask>
            <path fill="#595959" d="M15.814 6.02c-.197.034-.41-.03-.804.04-.196.034-.277.15-.375.167.017.098.034.196.15.277.115.08.41.028.509.011.196-.034.294-.052.375-.167.197-.034.081-.115.145-.328" mask="url(#p)"/>
        </g>
        <g transform="translate(0 .054)">
            <mask id="r" fill="#fff">
                <use xlink:href="#q"/>
            </mask>
            <path fill="#242B37" d="M14.912 6.077c-.197.035-.358.265-.046.311.41.03.572-.201.44-.38l-.394.07" mask="url(#r)"/>
        </g>
        <g transform="translate(0 .054)">
            <mask id="t" fill="#fff">
                <use xlink:href="#s"/>
            </mask>
            <path fill="#8F8F8F" d="M15.698 5.94l-.179.132-.098.017-.197.034-.196.035.017.098-.017-.098-.099.017.099-.017.196-.035.197-.034.098-.017.18-.133s-.116-.08-.215-.063l-.196.034-.197.035-.196.034c-.099.018-.081.115-.18.133 0 0-.098.017-.08.115l.017.098.017.098.116.08s.098-.017.115.081L15 6.567l-.018-.098.018.098.294-.052c.197-.034.295-.052.376-.167.099-.017.081-.115.081-.115l.081-.115c-.017-.098-.017-.098-.133-.179" mask="url(#t)"/>
        </g>
        <g transform="translate(0 .054)">
            <mask id="v" fill="#fff">
                <use xlink:href="#u"/>
            </mask>
            <path fill="#000" d="M23.716 5.439L14.97 6.976c-2.064.363-1.515 2.892-1.475 3.693l2.132 12.046.9 5.094c.382 2.154 1.515 2.258 2.89 2.016l7.47-1.312c3.144-.553 2.988-1.434 2.66-3.295l-1.318-7.444-1.542-8.717-.104-.587c-.046-1.406-.41-3.463-2.867-3.031" mask="url(#v)"/>
        </g>
        <g transform="translate(0 .054)">
            <mask id="x" fill="#fff">
                <use xlink:href="#w"/>
            </mask>
            <path fill="#8F8F8F" d="M21.542 6.326c-.49.086-.687.12-.982.173l-1.966.345c-.196.035-1.786.213-1.11.599.214.063.509.012.705-.023l1.671-.294 1.77-.31c.687-.121.404-.576-.088-.49" mask="url(#x)"/>
        </g>
        <g transform="translate(0 .054)">
            <mask id="z" fill="#fff">
                <use xlink:href="#y"/>
            </mask>
            <path fill="#000" d="M19.487 26.783c-.67.22-1.179.208-1.901.133l-.642-.19c-.237.95.167 2.09.977 2.656.693.483 1.676.31 2.346.092.77-.236 1.654-.392 1.694-1.308.012-.507.186-1.244.082-1.832l-2.556.45" mask="url(#z)"/>
        </g>
        <g transform="translate(0 .054)">
            <mask id="B" fill="#fff">
                <use xlink:href="#A"/>
            </mask>
            <path fill="#FFF" d="M28.766 24.244l-.433-2.449-.745-4.211-.295-1.665-1.16-6.562-.192-1.078c-.225-1.273-1.046-1.33-1.832-1.192L21.75 7.5c-1.375.242-2.85.501-4.243.645l-1.867.328c-.59.103-1.769.31-1.561 1.486a269926.99 269926.99 0 0 0 1.698 9.598l.884 4.995.26 1.47c.087.49.179 1.584 2.162 1.337.786-.139 7.683-1.25 8.37-1.37 1.556-.375 1.348-1.55 1.313-1.746" mask="url(#B)"/>
        </g>
        <g transform="translate(0 .054)">
            <mask id="D" fill="#fff">
                <use xlink:href="#C"/>
            </mask>
        </g>
        <g transform="translate(0 .054)">
            <mask id="F" fill="#fff">
                <use xlink:href="#E"/>
            </mask>
            <path fill="#9FA8BE" d="M21.655 25.292c.018.098 0 0 0 0" mask="url(#F)"/>
        </g>
        <g transform="translate(0 .054)">
            <mask id="H" fill="#fff">
                <use xlink:href="#G"/>
            </mask>
            <path fill="#2B3445" d="M16.142 18.182c.098-.018.098-.018 0 0 .098-.018.098-.018 0 0" mask="url(#H)"/>
        </g>
        <g transform="translate(0 .054)">
            <mask id="J" fill="#fff">
                <use xlink:href="#I"/>
            </mask>
        </g>
        <g transform="translate(0 .054)">
            <mask id="L" fill="#fff">
                <use xlink:href="#K"/>
            </mask>
        </g>
        <g transform="translate(0 .054)">
            <mask id="N" fill="#fff">
                <use xlink:href="#M"/>
            </mask>
        </g>
        <g transform="translate(0 .054)">
            <mask id="P" fill="#fff">
                <use xlink:href="#O"/>
            </mask>
        </g>
        <g transform="translate(0 .054)">
            <mask id="R" fill="#fff">
                <use xlink:href="#Q"/>
            </mask>
        </g>
        <g transform="translate(0 .054)">
            <mask id="T" fill="#fff">
                <use xlink:href="#S"/>
            </mask>
        </g>
        <g transform="translate(0 .054)">
            <mask id="V" fill="#fff">
                <use xlink:href="#U"/>
            </mask>
        </g>
        <g transform="translate(0 .054)">
            <mask id="X" fill="#fff">
                <use xlink:href="#W"/>
            </mask>
            <path fill="#D6D6D6" d="M25.062 15.907c-.295.052-8.256 1.45-8.55 1.503-.098.017-.098.017-.18.132-.08.115-.063.213-.046.311l.052.294.035.196c.115.08.214.063.33.144l.098-.017.196-.035 8.059-1.416c.196-.034.295-.052.474-.184.098-.017.098-.017.08-.115l-.051-.294c-.035-.196-.087-.49-.202-.57l-.295.051" mask="url(#X)"/>
        </g>
        <g transform="translate(0 .054)">
            <mask id="Z" fill="#fff">
                <use xlink:href="#Y"/>
            </mask>
            <path fill="#D6D6D6" d="M23.622 18.079l-6.781 1.191c-.098.018-.098.018-.18.133-.08.115-.063.213-.046.311l.052.294.035.196c.116.08.214.063.33.144l.098-.017.196-.035 6.29-1.105c.196-.035.295-.052.474-.185.098-.017.098-.017.08-.115-.016-.098-.034-.196-.051-.293-.035-.196-.087-.49-.202-.57l-.295.05" mask="url(#Z)"/>
        </g>
        <g transform="translate(0 .054)">
            <mask id="ab" fill="#fff">
                <use xlink:href="#aa"/>
            </mask>
            <path fill="#D6D6D6" d="M22.165 20.153l-5.012.88c-.099.018-.099.018-.18.133-.08.115-.063.213-.046.311l.052.294.035.196c.116.08.214.063.33.144l.098-.018.196-.034 4.521-.794c.196-.035.295-.052.474-.185.098-.017.098-.017.08-.115l-.051-.294c-.035-.196-.087-.49-.202-.57-.081.115-.197.034-.295.052" mask="url(#ab)"/>
        </g>
        <g transform="translate(0 .054)">
            <mask id="ad" fill="#fff">
                <use xlink:href="#ac"/>
            </mask>
            <path fill="#D6D6D6" d="M20.673 22.03l-3.145.553c-.098.018-.098.018-.179.133-.08.115-.063.213-.046.311l.052.294.034.196c.116.08.214.063.33.144l.098-.018.197-.034 2.653-.467c.197-.034.295-.051.474-.184.099-.017.099-.017.081-.115l-.052-.294c-.034-.196-.086-.49-.202-.57-.18.132-.277.15-.295.052" mask="url(#ad)"/>
        </g>
        <g transform="translate(0 .054)">
            <mask id="af" fill="#fff">
                <use xlink:href="#ae"/>
            </mask>
            <path fill="#725048" d="M15.333 12.466c-.318 1.066-1.064 2.005-1.827 2.846-.601.61-1.497 1.273-1.885 1.947-.098 1.734-.804 3.474-1.856 4.972-.064.213-.127.426-.093.622l.018.098c.132 1.895.167 3.808.398 5.686.208 1.176.254 2.581-.475 3.618.89-1.267 2.411-1.837 3.567-2.747.44-.38.763-.841 1.318-1.14.278-.15.752-.335.897-.663.584-.709.11-2.241-.029-3.025-.144-1.388.006-2.829-.236-4.2-.19-1.077-.133-1.895.416-2.8.081-.115.18-.132.26-.247.081-.116.18-.133.26-.248.324-.461.533-1.003.527-1.607.121-1.032-.092-2.812-1.26-3.112" mask="url(#af)"/>
        </g>
        <g transform="translate(0 .054)">
            <mask id="ah" fill="#fff">
                <use xlink:href="#ag"/>
            </mask>
            <path fill="#725048" d="M25.744 11.748c-.052-.294-.104-.588-.057-.899.919.04 3.907.323 3.185 1.965-.677 1.33-2.873-.202-3.128-1.066" mask="url(#ah)"/>
        </g>
        <g transform="translate(0 .054)">
            <mask id="aj" fill="#fff">
                <use xlink:href="#ai"/>
            </mask>
            <path fill="#725048" d="M26.218 14.997c-.052-.294-.104-.588-.058-.899.92.04 3.908.323 3.185 1.965-.676 1.331-2.873-.202-3.127-1.066" mask="url(#aj)"/>
        </g>
        <g transform="translate(0 .054)">
            <mask id="al" fill="#fff">
                <use xlink:href="#ak"/>
            </mask>
            <path fill="#714E46" d="M15.807 13.999c-.046.311-.306.559-.584.709-.278.15-.607.005-.838-.156-.116-.081-.295.052-.18.132.25.26.677.386 1.07.317.376-.167.619-.512.746-.939.063-.213-.249-.259-.214-.063" mask="url(#al)"/>
        </g>
        <g transform="translate(0 .054)">
            <mask id="an" fill="#fff">
                <use xlink:href="#am"/>
            </mask>
            <path fill="#714E46" d="M27.12 11.506c-.289.657-1.035-.121-1.283-.38-.116-.081-.295.051-.18.132.25.26.498.519.827.663.116.08.33.144.509.011.197-.034.26-.247.341-.363.081-.115-.133-.178-.214-.063" mask="url(#an)"/>
        </g>
        <g transform="translate(0 .054)">
            <mask id="ap" fill="#fff">
                <use xlink:href="#ao"/>
            </mask>
            <path fill="#714E46" d="M27.594 14.755c-.243.346-.821-.058-1.07-.317-.115-.08-.294.052-.179.133.364.34 1.058.824 1.463.248.098-.018-.035-.196-.214-.064" mask="url(#ap)"/>
        </g>
        <g transform="translate(0 .054)">
            <mask id="ar" fill="#fff">
                <use xlink:href="#aq"/>
            </mask>
            <path fill="#D6D6D6" d="M24.823 27.159c-.312-.047-.705.023-1 .074l-1.474.26c-.197.034-1.59.178-.879.76.133.178.526.11.624.092.393-.07.885-.155 1.278-.224l1.278-.225c.59-.104.896-.662.173-.737" mask="url(#ar)"/>
        </g>
        <g transform="translate(0 .054)">
            <mask id="at" fill="#fff">
                <use xlink:href="#as"/>
            </mask>
            <path fill="#FF7900" d="M21.44 35.53c-.266-.358-10.757-6.391-12.07-6.363-.803.04-1.578 1.388-2 1.867-.728 1.036-2.093 2.488-2.393 3.652-.7 2.344 1.89 3.808 3.687 4.805 2.145 1.239 5.03.934 7.422.715 1.804-.115 7.036-2.044 5.354-4.677" mask="url(#at)"/>
        </g>
        <g transform="translate(0 .054)">
            <mask id="av" fill="#fff">
                <use xlink:href="#au"/>
            </mask>
            <path fill="#000" d="M6.353 34.444c-.162.23-.226.443-.405.576-.243.346.22.668.462.323.162-.23.226-.444.405-.576.162-.23-.3-.553-.462-.323" mask="url(#av)"/>
        </g>
        <g transform="translate(0 .054)">
            <mask id="ax" fill="#fff">
                <use xlink:href="#aw"/>
            </mask>
            <path fill="#000" d="M7.81 32.37c-.18.133-.243.346-.307.559-.08.115.052.294.168.374.115.081.295-.051.375-.167 0 0-.017-.098.081-.115l.162-.23a.302.302 0 0 0-.069-.392c-.133-.179-.33-.144-.41-.029" mask="url(#ax)"/>
        </g>
        <g transform="translate(0 .054)">
            <mask id="az" fill="#fff">
                <use xlink:href="#ay"/>
            </mask>
            <path fill="#000" d="M9.024 30.642c-.098.017-.18.132-.162.23l-.081.116.017.098a.302.302 0 0 0 .07.391c.115.08.312.046.393-.069l.08-.115.082-.115s-.018-.098.08-.115c.081-.116.145-.329.03-.41-.232-.16-.428-.126-.51-.011" mask="url(#az)"/>
        </g>
        <g transform="translate(0 .054)">
            <mask id="aB" fill="#fff">
                <use xlink:href="#aA"/>
            </mask>
            <path fill="#87B2D3" d="M7.456 36.674c-.115-.081-.295.051-.375.167 0 0 .017.098-.081.115l.017.098s-.098.017-.08.115c-.082.115-.146.328-.03.409.116.08.33.144.41.029.18-.133.342-.363.405-.576-.017-.098-.15-.277-.266-.357" mask="url(#aB)"/>
        </g>
        <g transform="translate(0 .054)">
            <mask id="aD" fill="#fff">
                <use xlink:href="#aC"/>
            </mask>
            <path fill="#000" d="M8.405 34.588c-.116-.08-.295.052-.376.167-.064.213-.226.444-.387.674-.081.116.051.294.167.375.116.08.295-.052.376-.167.064-.213.225-.444.387-.674.064-.213-.052-.294-.167-.375" mask="url(#aD)"/>
        </g>
        <g transform="translate(0 .054)">
            <mask id="aF" fill="#fff">
                <use xlink:href="#aE"/>
            </mask>
            <path fill="#000" d="M9.18 33.24c-.099.017-.18.133-.26.248-.099.017-.082.115-.082.115a.302.302 0 0 0 .07.392c.115.08.312.046.393-.07l.08-.114c.082-.116.064-.213.047-.312.081-.115-.15-.276-.249-.259" mask="url(#aF)"/>
        </g>
        <g transform="translate(0 .054)">
            <mask id="aH" fill="#fff">
                <use xlink:href="#aG"/>
            </mask>
            <path fill="#000" d="M10.347 31.823c-.098.017-.098.017-.179.133l-.098.017c-.098.017-.18.132-.145.328.018.098.15.277.347.242.098-.017.098-.017.18-.132l.098-.017c.098-.018.179-.133.144-.329-.034-.196-.167-.374-.347-.242" mask="url(#aH)"/>
        </g>
        <g transform="translate(0 .054)">
            <mask id="aJ" fill="#fff">
                <use xlink:href="#aI"/>
            </mask>
            <path fill="#87B2D3" d="M8.242 38.252l-.08.116c-.099.017-.082.115-.162.23a.302.302 0 0 0 .069.392c.115.08.312.046.393-.07 0 0 .098-.017.08-.115.1-.017.082-.115.163-.23a.302.302 0 0 0-.07-.392c-.115-.08-.312-.046-.393.07" mask="url(#aJ)"/>
        </g>
        <g transform="translate(0 .054)">
            <mask id="aL" fill="#fff">
                <use xlink:href="#aK"/>
            </mask>
            <path fill="#000" d="M9.717 36.276c-.099.018-.18.133-.26.248 0 0 .017.098-.081.115-.081.115-.047.311.069.392.116.08.312.046.393-.069.081-.115.162-.23.127-.426.064-.213-.15-.277-.248-.26" mask="url(#aL)"/>
        </g>
        <g transform="translate(0 .054)">
            <mask id="aN" fill="#fff">
                <use xlink:href="#aM"/>
            </mask>
            <path fill="#000" d="M11.463 33.546c-.116-.08-.295.052-.376.167 0 0 .017.098-.08.115l-.082.115s-.098.018-.08.116c-.082.115-.145.328-.03.409.116.08.33.144.41.028.18-.132.342-.362.405-.576-.034-.196-.051-.293-.167-.374" mask="url(#aN)"/>
        </g>
        <g transform="translate(0 .054)">
            <mask id="aP" fill="#fff">
                <use xlink:href="#aO"/>
            </mask>
            <path fill="#87B2D3" d="M10.34 38.086c-.08.115-.242.345-.225.443-.08.115.052.294.168.375.116.08.295-.052.376-.167 0 0-.018-.098.08-.116l.162-.23a.302.302 0 0 0-.069-.392c-.214-.063-.41-.029-.491.087" mask="url(#aP)"/>
        </g>
        <g transform="translate(0 .054)">
            <mask id="aR" fill="#fff">
                <use xlink:href="#aQ"/>
            </mask>
            <path fill="#000" d="M11.405 36.08l-.145.33c-.08.114-.046.31.07.39.115.082.312.047.393-.068l.161-.23a.302.302 0 0 0-.069-.392c-.133-.179-.33-.144-.41-.03" mask="url(#aR)"/>
        </g>
        <g transform="translate(0 .054)">
            <mask id="aT" fill="#fff">
                <use xlink:href="#aS"/>
            </mask>
            <path fill="#000" d="M12.324 34.404l-.162.23a.302.302 0 0 0 .07.393c.115.08.312.046.393-.07l.161-.23a.302.302 0 0 0-.069-.392c-.115-.08-.214-.063-.393.07" mask="url(#aT)"/>
        </g>
        <g transform="translate(0 .054)">
            <mask id="aV" fill="#fff">
                <use xlink:href="#aU"/>
            </mask>
            <path fill="#000" d="M13.7 32.446c-.098.017-.277.15-.26.247 0 0-.081.116-.064.214.035.196.15.276.347.242.099-.018.278-.15.26-.248-.017-.098.064-.213.047-.311 0 0-.232-.161-.33-.144" mask="url(#aV)"/>
        </g>
        <g transform="translate(0 .054)">
            <mask id="aX" fill="#fff">
                <use xlink:href="#aW"/>
            </mask>
            <path fill="#000" d="M12.203 32.002c-.393.07-.29.657.104.588.393-.07.29-.657-.104-.588" mask="url(#aX)"/>
        </g>
        <g transform="translate(0 .054)">
            <mask id="aZ" fill="#fff">
                <use xlink:href="#aY"/>
            </mask>
            <path fill="#000" d="M13.22 37.176c.017.098.017.098 0 0l-.081.115c-.098.017-.081.115-.162.23a.302.302 0 0 0 .07.392c.115.08.311.046.392-.069 0 0 .099-.017.081-.115.099-.018.081-.116.162-.23a.302.302 0 0 0-.07-.392c-.115-.081-.213-.064-.392.069" mask="url(#aZ)"/>
        </g>
        <g transform="translate(0 .054)">
            <mask id="bb" fill="#fff">
                <use xlink:href="#ba"/>
            </mask>
            <path fill="#000" d="M15.024 35.344c-.116-.08-.295.052-.376.167l-.081.115-.162.23c-.081.116.052.294.168.375.115.08.294-.052.375-.167l.081-.115.162-.23c.081-.116-.052-.294-.167-.375" mask="url(#bb)"/>
        </g>
        <g transform="translate(0 .054)">
            <mask id="bd" fill="#fff">
                <use xlink:href="#bc"/>
            </mask>
            <path fill="#000" d="M15.781 33.898c-.098.017-.098.017-.18.132l-.097.018c-.099.017-.18.132-.145.328.017.098.15.277.347.242.098-.017.098-.017.18-.132l.097-.018c.099-.017.18-.132.145-.328s-.15-.277-.347-.242" mask="url(#bd)"/>
        </g>
        <g transform="translate(0 .054)">
            <mask id="bf" fill="#fff">
                <use xlink:href="#be"/>
            </mask>
            <path fill="#87B2D3" d="M14.717 39.336c-.081.116-.26.248-.342.363a.302.302 0 0 0 .07.392c.115.08.312.046.393-.07l.08-.114.1-.018s.097-.017.08-.115c.081-.115.145-.328.03-.409-.134-.178-.232-.161-.411-.029" mask="url(#bf)"/>
        </g>
        <g transform="translate(0 .054)">
            <mask id="bh" fill="#fff">
                <use xlink:href="#bg"/>
            </mask>
            <path fill="#000" d="M15.601 37.464c-.08.115-.144.328-.225.444-.081.115.052.293.167.374.116.08.295-.052.376-.167-.017-.098.081-.115.064-.213 0 0-.018-.098.08-.115a.302.302 0 0 0-.069-.392c-.115-.08-.312-.046-.393.069" mask="url(#bh)"/>
        </g>
        <g transform="translate(0 .054)">
            <mask id="bj" fill="#fff">
                <use xlink:href="#bi"/>
            </mask>
            <path fill="#000" d="M17.07 34.883c-.116-.08-.295.052-.376.167.018.098-.08.116-.063.213-.081.116-.145.329-.03.41.116.08.33.144.411.028.18-.132.243-.345.307-.559-.099.018-.133-.178-.249-.259" mask="url(#bj)"/>
        </g>
        <g transform="translate(0 .054)">
            <mask id="bl" fill="#fff">
                <use xlink:href="#bk"/>
            </mask>
            <path fill="#000" d="M16.96 38.841c-.18.133-.359.265-.423.478-.08.115.052.294.168.375.116.08.295-.052.376-.167.098-.018.08-.115.18-.133.08-.115.144-.328.028-.409-.034-.196-.248-.26-.33-.144" mask="url(#bl)"/>
        </g>
        <g transform="translate(0 .054)">
            <mask id="bn" fill="#fff">
                <use xlink:href="#bm"/>
            </mask>
            <path fill="#000" d="M17.682 37.2c.018.097.018.097 0 0-.179.132-.26.247-.225.443.017.098.15.277.347.242.196-.035.277-.15.358-.265a.302.302 0 0 0-.07-.392c-.132-.178-.329-.144-.41-.029" mask="url(#bn)"/>
        </g>
        <g transform="translate(0 .054)">
            <mask id="bp" fill="#fff">
                <use xlink:href="#bo"/>
            </mask>
            <path fill="#000" d="M18.538 35.736l-.162.23a.302.302 0 0 0 .07.392c.115.081.312.046.393-.069l.162-.23a.302.302 0 0 0-.07-.392c-.115-.08-.312-.046-.393.07" mask="url(#bp)"/>
        </g>
        <g transform="translate(0 .054)">
            <mask id="br" fill="#fff">
                <use xlink:href="#bq"/>
            </mask>
            <path fill="#000" d="M19.168 38.15c-.098.017-.18.133-.26.248 0 0 .017.098-.081.115a.302.302 0 0 0 .07.392c.115.08.311.046.392-.07.081-.115.162-.23.127-.426.064-.213-.15-.276-.248-.259" mask="url(#br)"/>
        </g>
        <g transform="translate(0 .054)">
            <mask id="bt" fill="#fff">
                <use xlink:href="#bs"/>
            </mask>
            <path fill="#000" d="M19.613 36.658s-.098.017 0 0c-.162.23-.127.426-.011.507.115.08.312.046.393-.07l.08-.114a.302.302 0 0 0-.069-.392c-.115-.08-.312-.046-.393.069" mask="url(#bt)"/>
        </g>
        <g transform="translate(0 .054)">
            <mask id="bv" fill="#fff">
                <use xlink:href="#bu"/>
            </mask>
            <path fill="#87B2D3" d="M12.121 38.985s-.098.017 0 0l-.08.115c-.1.017-.082.115-.163.23-.08.115-.046.311.07.392.115.08.312.046.393-.07 0 0 .098-.016.08-.114.099-.018.082-.116.162-.23a.302.302 0 0 0-.069-.393c-.231-.16-.33-.144-.393.07" mask="url(#bv)"/>
        </g>
        <g fill="#FFF">
            <path d="M7.099 9.837l1.594.789c.46.227.865-.46.404-.689l-1.595-.789c-.46-.228-.865.46-.403.689M6.413 14.75l1.995.372c.503.094.719-.674.213-.769l-1.996-.372c-.503-.093-.718.675-.212.77M6.92 19.641l1.989-.157c.51-.04.514-.838 0-.798l-1.989.158c-.51.04-.514.838 0 .797M10.225 5.503l.937 1.183c.134.17.426.14.566 0 .167-.167.134-.394 0-.564L10.79 4.94c-.134-.17-.425-.14-.565 0-.168.167-.135.394 0 .564M15.966 3.607l.262.663c.08.2.268.34.492.278.192-.052.36-.289.28-.49l-.263-.663c-.08-.2-.268-.34-.492-.278-.191.052-.36.29-.28.49M32.118 27.106l1.855.168c.512.047.51-.751 0-.797l-1.855-.169c-.512-.046-.51.751 0 .798M29.711 30.637l1.056.54c.457.234.862-.454.404-.689l-1.056-.54c-.457-.234-.862.454-.404.689"/>
        </g>
    </g>
</svg>
