<svg xmlns="http://www.w3.org/2000/svg" xmlns:xlink="http://www.w3.org/1999/xlink" width="150" height="150" viewBox="0 0 150 150">
    <defs>
        <path id="a" d="M0 .006H70.09v78.172H0z"/>
        <path id="c" d="M4.681.188C3.21.191.211.528.238 4 .252 5.873.25 19.756.252 21.631v18.697c0 1.166.003 1.367 0 2.843-.002.776-.773 4.914 4.929 4.896 2.092-.006 19.6-.052 21.328-.04 4.091.027 3.983-2.872 3.98-3.574-.008-2.086-.004-35.622-.016-37.95-.005-1.212-.016-1.447-.016-2.658C30.456.513 28.47.198 26.396.2 23.923.2 22.803.195 20.33.193c-3.619 0-7.237-.001-10.856.001-.8.001-1.542 0-2.282-.003C6.565.19 5.94.188 5.282.188h-.6z"/>
    </defs>
    <g fill="none" fill-rule="evenodd">
        <path fill="#8F8F8F" d="M114.937 67.705c-1.783-1.365-3.923-1.3-6.38-1.295-2.511.005-5.811-.04-8.32-.077-2.426-.036-5.002-.088-7.428-.073-2.159.014-5.813-.06-7.657 1.204-1.644 1.128-2.489 3.66-2.76 5.594-.55 3.916-.045 7.885-.005 11.818.05 4.845-.035 9.338-.097 14.185-.046 3.605-.046 8.36.083 11.962.11 3.052-.1 5.33.038 8.38.1 2.204-.456 5.005 1.636 6.678 1.308 1.047 3.402 1.424 4.997 1.557 2.53.211 5.071-.001 7.605.058 2.956.07 5.9-.068 8.85-.26 2.59-.168 5.762.436 8.202-.459 2.77-1.016 3.553-3.752 3.64-6.835.33-11.733-.3-23.557.171-35.214.13-3.215-.18-6.581-.336-9.852-.13-2.73.236-5.479-2.239-7.371"/>
        <path fill="#FFF" d="M111.879 71.865c-4.452.117-8.92-.185-13.366.005-3.367.145-6.845-.721-10.172.095-4.241 1.04-4.847 4.734-4.847 8.608v6.957l-.002 16.398-.001 9.11c0 2.486-.802 5.493.44 7.805.15.277.319.51.505.708 1.445 1.525 3.94.865 5.986.866l16.431.001 8.732.001v-.038l.002-21.492c.001-8.255.05-16.485.315-24.727.096-3.013-.9-4.379-4.023-4.297"/>
        <path fill="#000" d="M90.552 66.313c-.345-.192-.943-.37-2.023-.251-.417.046-.808.179-1.065.346 0 .275-.06.617.284.828.27.166 1.013.278 1.36.272.42-.008.744-.06 1.104-.218.529-.23.3-.622.34-.977M111.144 120.256c-1.73-.012-19.237.034-21.328.04-5.702.018-4.931-4.12-4.93-4.896.004-1.476.001-1.677 0-2.843V99.809v-2.787-3.163c0-1.874.001-15.757-.014-17.631-.027-3.472 2.972-3.808 4.444-3.81 1.681-.004 3.111.007 4.793.005 3.618-.002 7.237-.002 10.856 0 2.472 0 3.593.006 6.065.005 2.075-.001 4.06.314 4.062 3.646 0 1.211.01 1.446.016 2.657.011 2.33.007 35.865.016 37.952.003.701.11 3.6-3.98 3.573m-.333-52.07c-5.062.003-18.622-.12-22.668-.118-5.355.003-5.151 6.718-5.22 8.573-.026.674-.017 18.484-.008 31.404.004 7.278.01 13.004.008 13.241-.023 5.514 2.73 6.433 6.332 6.43 3.925-.001 15.45-.007 19.376-.01 8.101-.002 8.074-2.271 8.072-7.225-.001-1.595.052-10.172.103-19.286.054-9.17.107-18.881.105-22.57 0-.495.018-.997.037-1.497.129-3.509.178-8.944-6.137-8.941"/>
        <path fill="#000" d="M104.928 69.508c-1.163.017-1.74.085-2.607.057-.843-.028-3.182-.003-4.978.012-.414.004-4.567-.336-3.182.954.399.371 1.377.21 1.872.236 1.237.064 2.931.023 4.43.028 1.651.006 2.557.004 4.517-.001 1.655-.005 1.27-1.306-.052-1.286"/>
        <path fill="#81C8A6" d="M84.674 113.351l-.004.3h.006a1.126 1.126 0 0 1 .004-.227l.008-.073h-.014z"/>
        <path fill="#000" d="M104.369 122.974c-.755-.202-1.732-.226-2.41-.284-.623-.053-2.353-.007-3.681.023-.56.013-3.92-.186-2.547 1.716.327.453 1.151.498 1.578.555.915.122 2.168.044 3.277.054 1.22.011 1.89.007 3.338-.002 1.226-.008 2.062-1.628.445-2.062"/>
        <path fill="#5A5A5A" d="M74.082 29.432a2.837 2.837 0 0 0-4.008.034l-4.268 4.343a2.838 2.838 0 0 0 .035 4.008l6.14 6.033a2.837 2.837 0 0 0 4.008-.035l4.267-4.342a2.837 2.837 0 0 0-.035-4.008l-6.14-6.033zm-3.573 15.916l-6.14-6.033a4.94 4.94 0 0 1-.06-6.977l4.267-4.343a4.94 4.94 0 0 1 6.977-.06l6.14 6.032a4.94 4.94 0 0 1 .06 6.977l-4.266 4.343a4.94 4.94 0 0 1-6.978.06z"/>
        <path fill="#000" d="M73.284 27.799a2.837 2.837 0 0 0-4.007.035l-4.268 4.343a2.837 2.837 0 0 0 .035 4.008l6.14 6.033a2.837 2.837 0 0 0 4.008-.035l4.267-4.343a2.837 2.837 0 0 0-.035-4.008l-6.14-6.033zm-3.572 15.916l-6.14-6.033a4.94 4.94 0 0 1-.06-6.977l4.267-4.343a4.939 4.939 0 0 1 6.977-.06l6.14 6.033a4.94 4.94 0 0 1 .06 6.977l-4.267 4.342a4.94 4.94 0 0 1-6.977.061z"/>
        <g transform="translate(13 21.231)">
            <mask id="b" fill="#fff">
                <use xlink:href="#a"/>
            </mask>
            <path fill="#000" d="M68.752 23.868L45.665 1.182a4.1 4.1 0 0 0-5.798.05L1.176 40.607a4.1 4.1 0 0 0 .05 5.798l31.138 30.598a4.1 4.1 0 0 0 5.798-.05l30.75-31.293a4.102 4.102 0 0 0 1.177-2.9c-.034-5.332-.071-10.664-.11-15.996a4.101 4.101 0 0 0-1.227-2.895" mask="url(#b)"/>
        </g>
        <path fill="#000" d="M78.358 57.769c.033-.054.023-.053.095-.115-.03.026.102-.064.13-.076-.086.036.17-.037.064-.02.03-.005.205.011.143 0 .278.054.567-.08.646-.367.07-.258-.087-.592-.367-.646-.64-.125-1.275.13-1.617.694-.352.58.556 1.107.906.53"/>
        <path fill="#000" d="M73.125 58.977c3.166.018 6.333.043 9.5.084.854.01 1.709.022 2.563.04.316.007 1.11.181 1.403.047-.589.27-1.025-.257-.41-.01.95.381-.842-.918-.055-.047.452.5 1.001.939 1.48 1.417.624.625 1.24 1.26 1.842 1.907 1.169 1.25 3.316 1.143 4.478-.04 1.244-1.266 1.133-3.222-.04-4.476-1.704-1.826-3.636-4.312-6.152-4.9-1.44-.338-3.007-.24-4.476-.261-3.396-.048-6.792-.073-10.188-.093-4.083-.024-4.024 6.307.055 6.332"/>
        <path fill="#FF7900" d="M76.502 42.398l-18.61-18.287c-1.302-1.28-3.573-1.08-5.072.446L16.268 61.753c-1.5 1.526-1.66 3.8-.357 5.08l25.1 24.665c1.301 1.28 3.573 1.08 5.072-.447l29.05-29.562c.718-.73 1.16-1.674 1.229-2.624.34-4.671.677-9.343 1.012-14.014.068-.954-.245-1.837-.872-2.453"/>
        <path fill="#FFF" d="M18.784 65.73c14.172-3.872 28.388-7.566 42.78-10.541 4.059-.84 8.128-1.629 12.206-2.371 1.116-.204 1.755-1.549 1.476-2.577-.319-1.174-1.458-1.68-2.577-1.476-14.426 2.627-28.705 5.919-42.882 9.655-4.04 1.064-8.073 2.156-12.104 3.258-2.612.713-1.508 4.765 1.1 4.052"/>
        <path fill="#FFF" d="M51.726 28.05c-3.179 14.931-5.437 30.034-7.692 45.127L42.075 86.29c-.167 1.12.345 2.253 1.522 2.55 1.015.257 2.382-.393 2.55-1.52 2.268-15.183 4.394-30.397 7.143-45.502a436.888 436.888 0 0 1 2.507-12.739c.561-2.635-3.506-3.683-4.071-1.03"/>
        <path fill="#5A5A5A" d="M93.405 61.795c-.825.84-1.934 1.09-2.476.557-.543-.533-.313-1.646.513-2.486.826-.84 1.934-1.09 2.477-.557.542.533.311 1.646-.514 2.486"/>
        <path fill="#8F8F8F" d="M102.385 52.412a95.779 95.779 0 0 1 9.2-5.952c1.397-.795-.1-2.8-1.484-2.012a95.775 95.775 0 0 0-9.2 5.952c-1.3.95.183 2.963 1.484 2.012M104.213 61.815c2.925.073 5.835.312 8.732.718 1.592.223 1.97-2.248.374-2.472a76.74 76.74 0 0 0-8.732-.718c-1.586-.04-1.98 2.432-.374 2.472M92.966 48.84l-1.546-9.842c-.248-1.583-2.733-1.299-2.483.297l1.546 9.841c.25 1.584 2.734 1.3 2.483-.296M97.698 49.547c-.033-.555.175-1.044.555-1.479.445-.508.323-1.346-.187-1.758-.544-.44-1.313-.322-1.758.188-.816.932-1.167 2.12-1.093 3.345.041.674.748 1.17 1.39 1.093.704-.083 1.134-.713 1.093-1.39M103.41 57.472l3.131-.423c1.591-.215 1.304-2.7-.296-2.483l-3.132.424c-1.59.215-1.303 2.699.297 2.482"/>
        <g transform="translate(84.634 72.229)">
            <mask id="d" fill="#fff">
                <use xlink:href="#c"/>
            </mask>
            <path fill="#FF7900" d="M34.907 25.346c-2.687-.813-5.427 1.006-8.223 1.247-3.477.3-6.946-1.858-10.337-1.031-1.39.34-2.622 1.159-3.999 1.55-2.6.738-5.345-.119-7.975-.74-2.63-.623-5.638-.941-7.82.652v28.464h39.554l-1.2-30.142z" mask="url(#d)"/>
        </g>
    </g>
</svg>
