<svg xmlns="http://www.w3.org/2000/svg" xmlns:xlink="http://www.w3.org/1999/xlink" width="150" height="150" viewBox="0 0 150 150">
    <defs>
        <path id="a" d="M.135.24H43.18V70.8H.135z"/>
        <path id="c" d="M.194.25H33.19v52.52H.194z"/>
        <path id="e" d="M.135 149.682h149.5V.182H.134z"/>
    </defs>
    <g fill="none" fill-rule="evenodd">
        <g transform="translate(0 .068)">
            <path fill="#D6D6D6" d="M139.906 81.943c0 35.89-29.094 64.985-64.984 64.985-35.89 0-64.985-29.095-64.985-64.985S39.032 16.96 74.922 16.96s64.984 29.095 64.984 64.984"/>
            <path fill="#FFF" d="M118.73 55.97c2.486-.94 4.889-2.085 7.374-3.026.913-.346 1.301 1.115.4 1.456-2.487.941-4.889 2.085-7.375 3.027-.913.345-1.301-1.116-.399-1.456"/>
            <path fill="#FFF" d="M126.356 53.52a.32.32 0 0 0-.03.01c-1.231.465-2.468.993-3.664 1.504-1.207.515-2.456 1.047-3.71 1.522-.054.02-.092.049-.104.122a.264.264 0 0 0 .03.173.298.298 0 0 0 .03-.01c1.23-.466 2.467-.994 3.663-1.504 1.208-.515 2.456-1.047 3.71-1.523.054-.02.092-.048.104-.121a.261.261 0 0 0-.03-.173m-7.495 4.585c-.28 0-.544-.093-.765-.273-.377-.31-.568-.84-.483-1.354a1.4 1.4 0 0 1 .896-1.093c1.23-.466 2.467-.993 3.663-1.503 1.207-.516 2.456-1.048 3.711-1.524.451-.17.908-.104 1.256.18.378.31.568.841.484 1.354a1.4 1.4 0 0 1-.897 1.094c-1.23.465-2.467.993-3.662 1.503-1.208.515-2.457 1.048-3.712 1.523-.165.062-.33.093-.491.093M113.135 49.662c1.658-1.682 3.584-3.087 5.524-4.425.803-.555 1.577.742.78 1.293-1.837 1.267-3.65 2.592-5.222 4.184-.684.694-1.767-.358-1.082-1.052"/>
            <path fill="#FFF" d="M119.052 45.727c.003.002-.013.008-.038.025-2.15 1.484-3.896 2.791-5.434 4.35-.043.044-.039.06-.035.074.016.057.082.12.141.137.019.004.038.01.085-.038 1.62-1.641 3.511-3.018 5.314-4.26.054-.038.07-.071.062-.13-.012-.086-.071-.149-.095-.158m-5.343 5.841c-.112 0-.225-.014-.338-.044a1.472 1.472 0 0 1-1.033-1.016c-.127-.462 0-.93.351-1.285 1.7-1.725 3.703-3.183 5.614-4.502.625-.431 1.395-.286 1.831.345.401.581.384 1.48-.338 1.979-1.752 1.208-3.587 2.542-5.134 4.109a1.33 1.33 0 0 1-.953.414M104.964 43.869a28.453 28.453 0 0 0 3.399-4.919c.466-.855 1.704.011 1.242.858a28.472 28.472 0 0 1-3.398 4.919c-.629.73-1.877-.12-1.243-.858"/>
            <path fill="#FFF" d="M105.424 44.296c.024.027.079.07.154.081.074.013.116-.014.154-.058a27.924 27.924 0 0 0 3.323-4.81c.028-.052.039-.1 0-.166a.264.264 0 0 0-.13-.114l-.013.021a29.169 29.169 0 0 1-3.473 5.027.258.258 0 0 0-.015.019m.192 1.337c-.363 0-.719-.137-.987-.367-.563-.485-.622-1.244-.14-1.805a27.898 27.898 0 0 0 3.324-4.81c.355-.652 1.087-.865 1.739-.509.635.346 1.033 1.176.602 1.966a29.177 29.177 0 0 1-3.472 5.027c-.3.348-.687.498-1.066.498"/>
            <path fill="#714F47" d="M19.846 98.958l-.1-7.69c-.03-2.321-.034-4.746 1.197-6.87 1.202-2.075 3.783-5.117 5.661-6.808 2.41-2.17 3.967-3.197 5.248-5.949.405-.871 1.089-1.958 2.161-1.85.541.055.945.426 1.228.813 1.33 1.818.91 4.306-.371 6.249-1.282 1.943-3.296 3.464-5.256 4.956-.952.725-2.633 4.497-2.553 5.493.334 4.21-.637 8.54-2.791 12.44"/>
            <g transform="translate(0 78.881)">
                <mask id="b" fill="#fff">
                    <use xlink:href="#a"/>
                </mask>
                <path fill="#714F47" d="M41.465.82c-1.2-2.388-6.66 3.33-10.72 3.897-2.912.408-7.419 7.373-9.321 9.653-1.903 2.28-2.265 5.826-2.762 8.736-1.158 6.762-.95 13.96-3.406 20.444-1.177 3.108-31.203 48.972-27.453 50.143 3.241 1.012 17.014.962 20.011 2.781 1.82 1.105 2.736 2.32 4.289.353.998-1.264 19.683-46.738 20.473-48.133.972-1.714 1.78-3.107 3.143-4.565 3.369-3.605 6.146-8.29 7.055-13.098.936-4.945.495-7.855-3.908-12.022-2.688-2.543 4.258-14.887 2.599-18.19" mask="url(#b)"/>
            </g>
            <path fill="#62342D" d="M23.321 91.81l4.878-5.935c.424-.517-.312-1.261-.74-.74l-4.878 5.934c-.424.517.312 1.262.74.74M27.293 93.217c2.406-2.208 4.401-4.57 5.628-7.621 1.113-2.768 4.399-2.796 6.19-4.922.43-.512-.306-1.256-.74-.74-1.639 1.944-4.687 2.061-6.004 4.363-.388.679-.593 1.45-.93 2.153a14.188 14.188 0 0 1-1.253 2.097c-1.04 1.456-2.317 2.724-3.631 3.93-.497.456.244 1.195.74.74"/>
            <path fill="#62342D" d="M33.07 95.208a53.386 53.386 0 0 1 2.148-6.42c.802-1.96 1.617-4.259 3.3-5.639.521-.427-.223-1.164-.74-.74-1.679 1.376-2.501 3.554-3.32 5.501a54.278 54.278 0 0 0-2.397 7.02c-.175.651.834.93 1.009.278"/>
            <path fill="#806059" d="M30.108 74.477s-.503 2.086 1.007.72c1.511-1.367 3.207-4.48 2.898-5.406-.308-.925-3.905 4.686-3.905 4.686"/>
            <g transform="translate(116.444 96.912)">
                <mask id="d" fill="#fff">
                    <use xlink:href="#c"/>
                </mask>
                <path fill="#714F47" d="M4.938 3.124C5.374.488 5.816-.43 8.475.767c2.681 1.208 5.72 1.705 8.214 3.319 2.494 1.612 3.892 4.89 5.232 7.52 3.113 6.114 4.449 14.978 8.72 20.44 2.046 2.619 44.94 35.569 41.707 37.8-2.794 1.93-15.96 5.97-18.282 8.598-1.41 1.596-1.924 3.028-3.99 1.611-1.329-.911-32.675-38.785-33.844-39.882-1.437-1.349-2.622-2.438-4.356-3.426-4.288-2.442-5.39-9.19-7.686-13.511-2.361-4.444-5.816-6.501-2.85-11.788C3.153 8.222 4.335 6.77 4.939 3.124" mask="url(#d)"/>
            </g>
            <path fill="#C2796C" d="M84.55 44.295c-.148.062-.595.25.053-.022a4.786 4.786 0 0 1-.053.022"/>
            <path fill="#6FBBBB" d="M88.215 38.879c.014.005.033.009.047.013l-.088-.094c.016.025.03.052.041.08M88.095 38.713l.079.085a.305.305 0 0 0-.08-.085"/>
            <path fill="#141819" d="M81.753 38.9l-.03-.02.03.02zM81.723 38.88"/>
            <path fill="#595959" d="M116.7 58.706c-4.283-1.385-9.427-1.319-15.329-1.314-6.032.005-13.96-.04-19.988-.078-5.826-.037-12.015-.09-17.842-.075-5.187.014-13.966-.06-18.396 1.223-3.95 1.146-5.98 3.717-6.632 5.682-1.32 3.977-.108 8.008-.01 12.002.119 4.921-.084 9.485-.234 14.407-.11 3.662-.11 8.49.202 12.15.264 3.099-.24 5.413.09 8.51.238 2.238-1.095 5.083 3.929 6.782 3.142 1.063 8.172 1.447 12.005 1.582 6.08.214 12.183-.002 18.27.059 7.101.07 14.176-.07 21.26-.264 6.223-.171 13.844.443 19.704-.467 6.653-1.032 8.535-3.81 8.744-6.942.795-11.916-.72-23.925.411-35.764.313-3.266-.432-6.684-.807-10.006-.313-2.772.569-5.564-5.376-7.487"/>
            <path fill="#000" d="M106.786 59.196c-12.16.003-44.735-.122-54.454-.12-12.866.003-12.376 6.823-12.542 8.707-.06.684-.04 18.773-.02 31.894.012 7.392.024 13.208.02 13.448-.056 5.6 6.558 6.534 15.21 6.531 9.431-.001 37.12-.007 46.55-.01 19.461-.003 19.396-2.306 19.391-7.338-.002-1.62.124-10.331.25-19.587.127-9.313.254-19.177.25-22.924 0-.502.043-1.012.088-1.52.31-3.564.428-9.084-14.743-9.08"/>
            <path fill="#FFF" d="M117.353 109.587l.045-6.49.073-11.106h-.01l.028-4.437c.015-2.413.19-14.979.203-17.393.01-1.255-.012-1.499.007-2.753.055-3.454-4.754-3.815-9.786-3.85-5.997-.043-8.714-.068-14.71-.113-8.778-.065-17.554-.13-26.33-.19-4.08-.029-7.546-.065-11.625-.092-3.57-.023-10.785.11-10.83 2.976-.03 1.942-.256 17.225-.288 19.167-.032 2.056-.07 4.11-.103 6.166h-.002l-.222 13.212c-.018 1.208-.033 2.267-.068 3.796-.029 1.286-.821 4.221 11.888 4.31 5.072.036 47.535.292 51.729.335 9.922.1 9.996-2.811 10-3.538"/>
            <path fill="#9DAAC0" d="M54.879 111.738l-.01.017.01-.017"/>
            <path fill="#233143" d="M42.62 87.696l.06.065-.059-.065zM42.921 87.505v-.016l-.004.015.004.001zM74.915 87.12l.002-.016-.006.015.004.001z"/>
            <path fill="#714F47" d="M43.593 93.55c-4.157 2.993-3.386 9.288-9.342 10.762-1.058.262-2.652-.033-3.686-.331-1.244-.358-1.756-1.475-2.53-2.412.316.382-.235 2.78-.297 3.312-.105.899-.26 1.732-.633 2.56-.69 1.534-1.205 2.693-1.124 4.448.152 3.299 1.56 7.254 4.565 8.983 4.444 2.558 7.909-.057 10.004-4.096.48-.923.783-1.893 1.01-2.884.496-2.147.666-4.422 1.293-6.527.96-3.227 1.825-7.073 3.382-10.033 2.033-3.864-.01-5.678-2.642-3.782M111.156 105.035c4.858 1.624 7.122 8.995 13.247 8.633 1.088-.064 2.289.115 3.188-.476 1.081-.712 1.237-1.93 1.7-3.054-.19.459 1.05 2.585 1.267 3.074.366.827.762 1.576 1.364 2.257 1.114 1.26 1.95 2.213 2.393 3.913.835 3.195 6.617 11.515 4.26 14.06-3.483 3.76-10.836 1.095-14.036-2.14-.732-.738-3.993-4.502-4.506-5.38-1.11-1.904-2.483-5.267-3.582-7.169-2.496-4.32-8.23-9.671-9.854-11.713-1.123-1.412 1.482-3.033 4.559-2.005"/>
            <path fill="#806059" d="M107.509 105.567c1.639.756 3.273 1.763 4.133 3.35.185.341.332.719.31 1.106-.024.387-.255.781-.625.897-.384.12-.79-.078-1.133-.285a12.44 12.44 0 0 1-3.85-3.643c-.215-.316-.417-.744-.2-1.059.192-.278.59-.289.928-.272M46.876 95.23l-.428 1.04c-.237.577-.48 1.164-.87 1.651-.391.487-.957.87-1.582.894-.624.023-1.279-.396-1.39-1.01-.083-.468.14-.93.368-1.347.545-1.003 1.037-1.892 1.694-2.827.261-.372.648-.827 1.011-1.1a.934.934 0 0 1 .58-.208c.459.013.814.412.917.634.19.404-.165 1.922-.3 2.272"/>
            <path fill="#595959" d="M57.385 58.3h9.498c1.623 0 1.625-2.522 0-2.522h-9.498c-1.623 0-1.626 2.522 0 2.522M81.513 117.906c1.623 0 1.625-2.522 0-2.522-1.623 0-1.626 2.522 0 2.522"/>
            <path fill="#FF7900" d="M73.95 34.508c.876.96 2.014 1.404 3.415 1.34.976-.046 1.848-.265 2.618-.664a6.71 6.71 0 0 0 1.97-1.528 6.45 6.45 0 0 0 1.24-2.132 6.447 6.447 0 0 0 .363-2.473c-.07-1.487-.582-2.674-1.54-3.567-.956-.89-2.197-1.3-3.725-1.23-.85.04-1.638.27-2.36.687a6.305 6.305 0 0 0-1.84 1.586 7.467 7.467 0 0 0-1.177 2.158c-.281.801-.405 1.582-.37 2.347.063 1.36.534 2.518 1.407 3.476zm15.663-2.806c-.063.472-.132 1.007-.21 1.607-.08.598-.113 1.047-.098 1.342.044.936.425 1.386 1.147 1.352.552-.027 1.138-.244 1.757-.658.619-.408 1.196-1.021 1.733-1.836.536-.81.966-1.862 1.29-3.152.321-1.292.442-2.832.358-4.612-.106-2.294-.615-4.3-1.526-6.023a12.42 12.42 0 0 0-3.711-4.294c-1.564-1.138-3.39-1.98-5.478-2.52-2.09-.54-4.342-.754-6.76-.641-2.676.125-5.074.673-7.199 1.644-2.124.972-3.912 2.287-5.367 3.953-1.454 1.663-2.543 3.596-3.27 5.798-.726 2.204-1.03 4.62-.907 7.253.13 2.76.702 5.213 1.717 7.356 1.013 2.143 2.386 3.941 4.112 5.39 1.727 1.451 3.755 2.528 6.083 3.227 2.332.699 4.855.984 7.57.857 2.422-.114 4.644-.545 6.671-1.299 2.029-.756 3.824-1.762 5.381-3.027l7.003-.327c-2.142 3.29-4.866 5.79-8.168 7.495-3.303 1.707-7.522 2.682-12.658 2.921-3.27.153-6.364-.298-9.284-1.353-2.922-1.055-5.504-2.592-7.746-4.617-2.244-2.02-4.047-4.436-5.412-7.245-1.364-2.808-2.123-5.844-2.275-9.113-.153-3.268.319-6.365 1.416-9.288 1.096-2.923 2.668-5.504 4.71-7.75 2.045-2.241 4.471-4.047 7.279-5.411 2.807-1.366 5.846-2.127 9.115-2.278 3.141-.147 6.154.16 9.04.917 2.884.76 5.45 1.918 7.691 3.47a18.982 18.982 0 0 1 5.471 5.806c1.407 2.319 2.178 4.94 2.315 7.868.126 2.676-.293 5.11-1.256 7.302-.96 2.195-2.2 4.063-3.725 5.6-1.524 1.538-3.222 2.747-5.095 3.62-1.875.875-3.66 1.352-5.358 1.43-.976.048-1.816-.16-2.517-.616-.704-.455-1.138-1.127-1.307-2.012l-.254.012c-.684.883-1.596 1.605-2.74 2.166-1.143.566-2.437.884-3.878.95a9.317 9.317 0 0 1-3.828-.621 9.593 9.593 0 0 1-3.288-2.11c-.958-.933-1.735-2.059-2.325-3.37-.595-1.313-.93-2.796-1.006-4.452a16.133 16.133 0 0 1 .668-5.452c.536-1.773 1.331-3.36 2.394-4.77a12.647 12.647 0 0 1 3.923-3.44c1.556-.88 3.308-1.367 5.26-1.458 1.614-.074 3.104.166 4.47.716 1.365.553 2.612 1.486 3.735 2.793l.4-2.38 5.859-.274-1.922 13.554z"/>
            <path fill="#50BE87" d="M51.637 67.295a2.087 2.087 0 1 1-4.173 0 2.087 2.087 0 0 1 4.173 0"/>
            <path fill="#FFB400" d="M57.48 67.295a2.087 2.087 0 1 1-4.173 0 2.087 2.087 0 0 1 4.173 0"/>
            <path fill="#FF7900" d="M63.323 67.295a2.087 2.087 0 1 1-4.173 0 2.087 2.087 0 0 1 4.173 0"/>
            <mask id="f" fill="#fff">
                <use xlink:href="#e"/>
            </mask>
            <path fill="#D6D6D6" d="M61.988 94.34h36.31V76.31h-36.31zM62.488 101.321a.939.939 0 0 1-.006-1.877l35.309-.25h.006a.939.939 0 0 1 .007 1.876l-35.309.25-.007.001M62.488 106.798a.939.939 0 0 1-.026-1.877l35.309-1.002a.94.94 0 0 1 .053 1.877l-35.309 1.002h-.027" mask="url(#f)"/>
            <path fill="#FFF" d="M47.753 47.611c-.867-3.002-2.478-5.69-4.182-8.285-.534-.814.709-1.672 1.243-.858 1.769 2.696 3.46 5.515 4.36 8.634.27.932-1.152 1.445-1.421.51" mask="url(#f)"/>
            <path fill="#FFF" d="M44.24 38.766h-.003a.226.226 0 0 0-.16.113c-.011.021-.022.043.017.104 1.95 2.968 3.42 5.543 4.26 8.455.009.03.018.044.02.047.013.002.102-.01.166-.069.043-.04.052-.076.033-.14-.83-2.873-2.312-5.461-4.283-8.464-.027-.042-.04-.046-.05-.046m4.145 9.967c-.107 0-.215-.013-.32-.039-.445-.11-.779-.442-.913-.91-.798-2.76-2.218-5.24-4.104-8.115a1.326 1.326 0 0 1-.09-1.353c.23-.457.704-.771 1.208-.8.475-.025.9.195 1.171.61 1.76 2.68 3.515 5.601 4.439 8.802.142.494.023.985-.327 1.349a1.495 1.495 0 0 1-1.064.456M39.56 53.159c-1.446-2.55-3.558-4.679-4.816-7.339-.414-.876.902-1.615 1.32-.734 1.258 2.66 3.37 4.788 4.814 7.339.481.848-.839 1.581-1.319.734" mask="url(#f)"/>
            <path fill="#FFF" d="M35.47 45.31a.28.28 0 0 0-.15.096c-.036.049-.039.086-.01.147.68 1.436 1.608 2.7 2.591 4.036.762 1.037 1.55 2.108 2.203 3.26v.001c.034.06.053.053.073.059a.225.225 0 0 0 .172-.095c.007-.013.015-.027-.015-.08-.617-1.09-1.384-2.132-2.124-3.14-.975-1.325-1.982-2.695-2.713-4.24-.016-.034-.027-.044-.027-.044m4.707 8.851h-.011a1.314 1.314 0 0 1-1.151-.694c-.617-1.088-1.383-2.13-2.123-3.136-.975-1.326-1.983-2.698-2.714-4.243-.376-.797.06-1.585.7-1.887.69-.327 1.427-.067 1.751.617.68 1.436 1.607 2.698 2.59 4.034.762 1.038 1.55 2.11 2.204 3.264.246.434.248.92.005 1.332a1.473 1.473 0 0 1-1.25.713M29.334 59.85c-.746-.615.132-1.845.885-1.224.91.752 1.723 1.609 2.69 2.293.794.562-.09 1.787-.885 1.223-.966-.684-1.78-1.54-2.69-2.292" mask="url(#f)"/>
            <path fill="#FFF" d="M29.733 59.368c.36.297.705.61 1.04.913.538.489 1.048.95 1.613 1.35.055.04.074.031.092.023.056-.026.11-.1.116-.16.001-.014.003-.03-.047-.064-.629-.445-1.191-.956-1.735-1.45-.323-.291-.656-.593-.992-.871a.146.146 0 0 0-.044-.028.279.279 0 0 0-.095.151c-.013.06 0 .093.052.136m2.718 3.546a1.36 1.36 0 0 1-.789-.26c-.626-.444-1.188-.953-1.73-1.445-.324-.294-.659-.597-.997-.876-.678-.56-.617-1.459-.167-2.004.487-.59 1.265-.668 1.85-.185.358.296.702.608 1.035.91.54.49 1.05.952 1.617 1.354.407.287.615.726.57 1.202a1.473 1.473 0 0 1-.84 1.182 1.312 1.312 0 0 1-.549.122" mask="url(#f)"/>
        </g>
        <path fill="#FF7900" d="M82.818 72.28l2.928-12.659c.097-.587-.247-1.136-.719-1.15l-13.483-.392c-.47-.014-.843.508-.786 1.098l2.21 12.824c.058.59-.316 1.112-.785 1.098l-2.382-.07c-.66-.018-1.038.962-.615 1.597l7.667 11.515c.288.432.81.452 1.128.043l8.566-11.042c.47-.606.153-1.62-.513-1.64l-2.497-.072c-.473-.014-.816-.563-.72-1.15"/>
    </g>
</svg>
