<svg xmlns="http://www.w3.org/2000/svg" xmlns:xlink="http://www.w3.org/1999/xlink" width="150" height="150" viewBox="0 0 150 150">
    <defs>
        <path id="a" d="M.03.157H70.93v27.726H.03z"/>
        <path id="c" d="M.047.065h2.367v.833H.047z"/>
        <path id="e" d="M.045.074h2.101v2.412H.045z"/>
        <path id="g" d="M.029.247h1.853v1.18H.03z"/>
        <path id="i" d="M24.935.264L6.833 2.183A7.552 7.552 0 0 0 .12 10.488l3.358 31.697a7.552 7.552 0 0 0 8.306 6.715l18.102-1.919a7.552 7.552 0 0 0 6.714-8.305L33.241 6.979A7.553 7.553 0 0 0 24.935.264z"/>
    </defs>
    <g fill="none" fill-rule="evenodd">
        <path fill="#D6D6D6" d="M148.773 77.438c0 37.915-30.737 68.652-68.652 68.652-37.916 0-68.652-30.737-68.652-68.652 0-37.915 30.736-68.652 68.652-68.652 37.915 0 68.652 30.737 68.652 68.652"/>
        <path fill="#C2796C" d="M66.84 43.418c.19.08.766.322-.068-.029l.068.029"/>
        <path fill="#6FBBBB" d="M62.118 36.439c-.019.006-.043.01-.06.016l.113-.12a.51.51 0 0 0-.053.104M62.273 36.226l-.102.109a.386.386 0 0 1 .102-.11"/>
        <path fill="#141819" d="M70.444 36.465l.038-.026-.038.026zM70.482 36.44"/>
        <path fill="#FFF" d="M49.827 45.244c-1.505-2.938-3.72-5.4-6.01-7.746-.719-.736.397-1.877 1.115-1.14 2.38 2.437 4.702 5.018 6.266 8.07.468.913-.902 1.731-1.37.816"/>
        <path fill="#FFF" d="M44.402 36.782h-.007a.238.238 0 0 0-.144.15c-.007.024-.014.05.039.104 2.621 2.685 4.666 5.057 6.126 7.907a.153.153 0 0 0 .03.045c.015-.001.103-.03.158-.105.037-.05.038-.09.006-.153-1.526-2.977-3.858-5.562-6.151-7.91-.031-.033-.047-.038-.057-.038m6.037 9.524c-.023 0-.046 0-.068-.002-.485-.025-.898-.301-1.133-.759-1.384-2.701-3.357-4.986-5.895-7.585a1.4 1.4 0 0 1-.366-1.385c.147-.521.575-.943 1.09-1.074.486-.123.974.02 1.339.395 2.365 2.423 4.775 5.097 6.38 8.231a1.433 1.433 0 0 1-.065 1.465 1.56 1.56 0 0 1-1.282.714M45.84 57.997c-2.51-1.812-5.476-2.927-7.855-4.928-.783-.66.156-1.948.944-1.285 2.38 2 5.344 3.115 7.855 4.928.835.602-.11 1.888-.944 1.285"/>
        <path fill="#FFF" d="M38.457 52.26a.295.295 0 0 0-.1.158c-.014.062 0 .099.054.145 1.285 1.08 2.732 1.885 4.265 2.736 1.188.66 2.416 1.343 3.551 2.162.057.042.077.033.095.025a.238.238 0 0 0 .124-.168c.002-.015.003-.032-.05-.07-1.072-.774-2.266-1.438-3.421-2.08-1.52-.844-3.09-1.716-4.472-2.879a.15.15 0 0 0-.046-.03m7.838 6.557c-.292 0-.583-.095-.843-.283-1.071-.773-2.264-1.436-3.418-2.077-1.52-.845-3.092-1.718-4.475-2.88-.711-.6-.64-1.55-.158-2.12.52-.619 1.341-.694 1.954-.179 1.284 1.08 2.73 1.884 4.262 2.735 1.19.66 2.418 1.343 3.554 2.164.427.308.643.773.59 1.277a1.554 1.554 0 0 1-.897 1.24 1.382 1.382 0 0 1-.57.123M39.874 67.063c-.987-.263-.685-1.83.311-1.565 1.205.322 2.363.786 3.593 1.018 1.01.19.7 1.755-.311 1.564-1.23-.232-2.388-.696-3.593-1.017"/>
        <path fill="#FFF" d="M40.044 66.424c.477.127.946.276 1.4.42.734.231 1.426.45 2.145.586.071.014.085-.003.098-.019a.238.238 0 0 0 .041-.204c-.005-.015-.01-.03-.073-.041-.799-.151-1.563-.393-2.302-.627a30.628 30.628 0 0 0-1.338-.402c-.038-.01-.055-.007-.055-.007a.296.296 0 0 0-.025.187c.014.062.041.09.11.107m3.59 2.334c-.095 0-.192-.01-.291-.028-.797-.15-1.56-.392-2.299-.625-.44-.14-.894-.284-1.341-.403-.899-.24-1.236-1.13-1.043-1.851.208-.781.92-1.198 1.695-.992.475.127.943.275 1.396.419.734.232 1.428.452 2.148.588.517.097.91.426 1.077.903a1.557 1.557 0 0 1-.287 1.505c-.27.315-.644.484-1.055.484M111.05 61.236c2.401-1.456 4.677-3.107 7.078-4.563.882-.534 1.566.908.694 1.436-2.4 1.456-4.676 3.107-7.077 4.563-.882.534-1.566-.908-.695-1.436"/>
        <path fill="#FFF" d="M118.5 57.223a.318.318 0 0 0-.03.016c-1.188.721-2.372 1.508-3.517 2.268-1.154.767-2.348 1.56-3.56 2.295-.051.031-.086.068-.085.146.001.077.038.146.065.174a.251.251 0 0 0 .029-.015c1.19-.722 2.373-1.508 3.517-2.268 1.155-.768 2.349-1.56 3.56-2.295.052-.032.086-.068.085-.147a.278.278 0 0 0-.064-.174zm-7.14 6.227a1.26 1.26 0 0 1-.611-.158c-.452-.248-.752-.764-.763-1.313a1.479 1.479 0 0 1 .722-1.309c1.188-.72 2.37-1.505 3.513-2.265 1.156-.768 2.351-1.562 3.564-2.297.434-.264.922-.283 1.338-.055.452.248.752.764.764 1.313a1.478 1.478 0 0 1-.722 1.309c-1.188.72-2.37 1.506-3.514 2.265-1.155.768-2.35 1.562-3.563 2.298a1.401 1.401 0 0 1-.728.212zM106.833 48.5c1.507-1.99 3.332-3.726 5.18-5.394.765-.69 1.754.562.995 1.247-1.75 1.58-3.469 3.216-4.897 5.1-.62.82-1.9-.132-1.278-.953"/>
        <path fill="#FFF" d="M112.491 43.566c.004.002-.012.01-.035.031-2.048 1.849-3.699 3.458-5.096 5.302-.04.053-.033.069-.027.083a.237.237 0 0 0 .167.123c.02.002.041.005.084-.05 1.47-1.941 3.263-3.643 4.981-5.193.052-.047.064-.083.047-.144-.024-.088-.094-.146-.12-.152m-4.976 6.863a1.554 1.554 0 0 1-1.402-.934c-.196-.466-.126-.974.192-1.394 1.546-2.04 3.443-3.842 5.263-5.485.596-.539 1.423-.492 1.966.11.5.553.605 1.496-.084 2.118-1.93 1.742-3.487 3.26-4.813 5.01a1.392 1.392 0 0 1-1.122.575M73.176 33.105c.096-2.709-.065-5.427.175-8.13.091-1.025 1.678-.86 1.587.166-.24 2.703-.08 5.422-.176 8.13-.036 1.029-1.623.859-1.586-.166M99.815 37.202a30.065 30.065 0 0 0 2.394-5.845c.288-.987 1.761-.373 1.476.605a30.073 30.073 0 0 1-2.394 5.844c-.483.897-1.964.301-1.476-.604"/>
        <path fill="#FFF" d="M100.386 37.539c.03.023.096.06.177.049.08-.004.117-.041.146-.095a29.496 29.496 0 0 0 2.34-5.716c.018-.06.018-.11-.036-.171a.282.282 0 0 0-.16-.088 30.802 30.802 0 0 1-2.466 6.02zm.165 1.372c-.268 0-.534-.067-.766-.192-.691-.372-.923-1.142-.552-1.83a29.485 29.485 0 0 0 2.341-5.717c.22-.75.925-1.137 1.68-.918.732.214 1.332.98 1.066 1.893a30.832 30.832 0 0 1-2.446 5.973 1.47 1.47 0 0 1-1.323.791z"/>
        <path fill="#714F47" d="M95.369 95.527c-2.65-.788-6.28-.427-8.6-1.958-6.882-4.54-13.542-9.412-19.481-14.904a869.12 869.12 0 0 1-3.706 6.455c-1.48 2.543-3.185 4.973-4.691 7.501-1.246 2.091-.894 4.186-2.699 6.097-2.303 2.438-6.645 2.955-8.608 5.448-1.308 1.661-.888 3.651-1.14 5.695-1.162 9.413-15.874 19.022-4.72 27.466 4.443 3.364 9.94 5.49 15.063 7.58 4.141 1.69 8.59 1.858 10.8-2.494 1.883-3.705 2.075-7.72 5.3-10.743 2.903-2.72 7.12-3.445 9.995-6.039 4.1-3.697 7.407-8.986 10.2-13.714 2.483-4.204 5.543-8.926 5.312-14.028-.063-1.387-1.786-1.992-3.025-2.362"/>
        <g transform="translate(2 120.588)">
            <mask id="b" fill="#fff">
                <use xlink:href="#a"/>
            </mask>
            <path fill="#000" d="M70.64 20.24C69.99 19.097 41.266.366 37.631.16c-2.416-.136-4.807 3.636-5.899 4.942-4.411 5.282-47.094 56.533-48.135 67.12h56.134C50.26 62.566 65.73 32.22 70.181 23.725c.824-1.573.958-2.608.458-3.486" mask="url(#b)"/>
        </g>
        <path fill="#FF7900" d="M39.553 123.607a.85.85 0 0 0-.622-1.015.85.85 0 0 0-1.015.622 5.98 5.98 0 0 1-.099.364c-.015.034-.062.158-.078.192a3.392 3.392 0 0 1-.16.286c-.239.391-.043.932.344 1.14.422.225.901.047 1.14-.345.235-.385.385-.807.49-1.244M43.14 126.635a.835.835 0 0 0 .071-.966c-.233-.38-.775-.533-1.157-.279a1.107 1.107 0 0 0-.407.44 1.42 1.42 0 0 0-.066.178.834.834 0 0 0-.07.966c.232.38.775.532 1.157.278.167-.112.321-.254.407-.44a1.42 1.42 0 0 0 .066-.177M40.86 130.44l.02-.02-.005.004c.27-.274.354-.687.138-1.04-.23-.375-.78-.538-1.157-.277-.438.302-.6.759-.718 1.255a.85.85 0 0 0 .621 1.015.85.85 0 0 0 1.015-.622c.026-.106.054-.211.087-.315M47.537 129.661c.243-.39.04-.934-.344-1.14-.424-.226-.897-.045-1.14.344-.282.454-.523.813-.86 1.218-.293.352-.31.862.04 1.19.32.3.896.313 1.19-.04.411-.496.773-1.026 1.114-1.572M44.528 132.586a.851.851 0 0 0-1.026.668 2.158 2.158 0 0 1-.12.227l-.023.038a1.391 1.391 0 0 1-.055.062c-.336.267-.456.732-.22 1.115.231.378.776.535 1.156.278.459-.31.77-.844.91-1.373.117-.443-.183-.91-.622-1.015M50.643 133.85l.001-.002c.037-.087.078-.173.118-.26.104-.225.207-.455.271-.696.117-.444-.184-.91-.621-1.015a.852.852 0 0 0-1.016.622 2.211 2.211 0 0 1-.024.085v.002c-.037.088-.079.174-.118.26a4.288 4.288 0 0 0-.271.696c-.117.444.183.91.621 1.015a.852.852 0 0 0 1.015-.622l.024-.084M49.08 138.192c.238-.392.043-.933-.345-1.14-.42-.225-.9-.047-1.14.344a7.272 7.272 0 0 0-.83 1.98c-.266 1.053 1.371 1.445 1.638.392.141-.56.37-1.075.676-1.576M55.093 136.388l.001-.001c.037-.089.078-.175.118-.26.104-.226.208-.457.271-.697.117-.444-.183-.91-.622-1.015a.852.852 0 0 0-1.015.622 1.049 1.049 0 0 1-.024.084v.002c-.037.088-.079.174-.118.26a4.268 4.268 0 0 0-.271.697c-.118.443.183.91.621 1.015a.853.853 0 0 0 1.015-.623l.024-.084M52.884 141.497c.12-.443-.186-.91-.622-1.015a.852.852 0 0 0-1.015.622c-.005.023-.013.044-.02.066l-.014.033c-.041.092-.091.182-.14.271-.11.2-.234.394-.355.59-.243.388-.04.933.344 1.139.424.227.897.045 1.14-.345.268-.43.548-.866.682-1.361M58.184 138.791a.85.85 0 0 0-.622-1.015.85.85 0 0 0-1.015.623l-.222.925a.85.85 0 0 0 .622 1.015.85.85 0 0 0 1.015-.622l.222-.926zM56.538 145.31c.034-.068.073-.134.115-.2.101-.163.174-.346.224-.533.12-.442-.185-.91-.622-1.014a.852.852 0 0 0-1.015.622v.001a2.696 2.696 0 0 1-.116.2 2.013 2.013 0 0 0-.224.533c-.119.443.186.91.622 1.014a.852.852 0 0 0 1.015-.62v-.002z"/>
        <g transform="translate(52.53 147.572)">
            <mask id="d" fill="#fff">
                <use xlink:href="#c"/>
            </mask>
            <path fill="#FF7900" d="M2.408.89c-.032-.458-.385-.834-.86-.825-.441.01-.855.402-.824.86.006.086.007.17.005.256l-.002.008c-.011.07-.031.14-.05.209.051-.18-.11.139-.07.115-.024.028-.047.056-.073.082a.69.69 0 0 0-.023.025.852.852 0 0 0-.342 1.195c.235.383.773.53 1.158.279A2.398 2.398 0 0 0 2.407.889" mask="url(#d)"/>
        </g>
        <path fill="#FF7900" d="M64.441 139.273c-.027-.458-.388-.833-.859-.824-.445.008-.85.401-.824.859.004.045.005.09.005.134v.007l-.01.039c-.008.042-.02.084-.032.126l-.003.01a.66.66 0 0 0-.015.033c-.09.206-.214.397-.333.587-.243.39-.04.934.344 1.14.424.226.897.045 1.14-.344.335-.538.626-1.114.587-1.767M61.907 144.554c.283-1.05-1.354-1.44-1.637-.393-.164.603-.6 1.132-.868 1.694-.198.413-.075.915.343 1.14.39.208.942.07 1.14-.345.337-.704.815-1.333 1.022-2.096M67.929 143.69c.288-.357.313-.86-.04-1.19-.317-.297-.9-.318-1.19.04-.538.664-.906 1.417-1.263 2.189-.192.415-.078.913.344 1.14.386.206.947.072 1.14-.345.29-.628.57-1.293 1.009-1.834M50.58 146.123a1.386 1.386 0 0 0-.217-.62.85.85 0 0 0-1.158-.279.85.85 0 0 0-.338 1.036.85.85 0 0 0 .624 1 .85.85 0 0 0 1.015-.622c.04-.165.088-.344.073-.515M35.085 127.165a.719.719 0 0 0-.859.526 6.682 6.682 0 0 1-.118.443c-.013.03-.028.059-.044.087-.28.228-.383.615-.183.94.194.318.659.456.979.235.47-.324.623-.843.751-1.373a.72.72 0 0 0-.526-.858M37.521 133.867c.1-.375-.156-.77-.526-.858a.72.72 0 0 0-.858.526l-.009.027c-.001-.003-.03.07-.043.094l-.025.041-.048.07a9.871 9.871 0 0 0-.484.678c-.209.328-.032.792.29.964.362.194.757.037.965-.29.216-.34.604-.745.738-1.252M41.252 136.86c-.403-.216-.864-.046-1.093.33-.119.195-.225.397-.337.595a.817.817 0 0 1-.29.328.816.816 0 0 0-.266 1.11c.224.365.741.506 1.11.266.591-.388.85-.954 1.206-1.537.228-.375.042-.894-.33-1.092M45.483 144.46c.023-.323-.176-.634-.337-.897a.814.814 0 0 0-1.11-.267.815.815 0 0 0-.266 1.11l.038.061-.1.162c-.233.373-.04.895.329 1.092.406.218.86.044 1.093-.33.185-.297.327-.574.353-.931M28.176 143.752a.85.85 0 0 0-.622-1.015.85.85 0 0 0-1.015.621 5.92 5.92 0 0 1-.1.365c-.014.033-.061.157-.078.192a3.51 3.51 0 0 1-.159.286c-.24.39-.043.932.344 1.139.421.225.9.048 1.14-.344.234-.385.384-.808.49-1.244M31.763 146.78a.834.834 0 0 0 .07-.967c-.232-.38-.775-.532-1.157-.278a1.107 1.107 0 0 0-.407.44 1.46 1.46 0 0 0-.066.177.834.834 0 0 0-.07.966c.233.38.775.533 1.157.278.167-.111.322-.254.407-.44.028-.06.048-.119.066-.177M40.685 143.77l.001-.002c.037-.088.078-.174.118-.26.104-.226.208-.456.271-.697.117-.444-.184-.91-.621-1.015a.852.852 0 0 0-1.015.622 2.21 2.21 0 0 1-.025.085v.002c-.037.088-.079.174-.118.26a4.288 4.288 0 0 0-.271.696c-.117.444.183.91.622 1.015a.851.851 0 0 0 1.014-.622l.024-.084"/>
        <g transform="translate(37.185 145.985)">
            <mask id="f" fill="#fff">
                <use xlink:href="#e"/>
            </mask>
            <path fill="#FF7900" d="M1.73 2.071l.001-.002c.037-.088.078-.174.118-.26.105-.226.208-.456.272-.697.117-.444-.184-.91-.622-1.015A.852.852 0 0 0 .484.719a1.735 1.735 0 0 1-.025.085v.002C.422.894.38.98.34 1.066a4.302 4.302 0 0 0-.271.697c-.117.443.184.909.622 1.014a.852.852 0 0 0 1.014-.622c.007-.028.016-.056.025-.084" mask="url(#f)"/>
        </g>
        <path fill="#FF7900" d="M33.805 143.47v-.002c.037-.088.078-.174.118-.26.105-.226.208-.456.272-.697.117-.444-.184-.91-.622-1.015a.852.852 0 0 0-1.015.622 1.814 1.814 0 0 1-.024.085l-.001.002c-.037.088-.078.174-.118.26a4.29 4.29 0 0 0-.27.697c-.118.443.182.91.62 1.014a.852.852 0 0 0 1.016-.622c.006-.028.015-.056.024-.084M32.94 137.21l.001-.003c.037-.087.078-.174.118-.26a4.33 4.33 0 0 0 .272-.697c.117-.443-.184-.909-.622-1.015a.852.852 0 0 0-1.015.623 1.736 1.736 0 0 1-.025.084v.002c-.037.088-.078.174-.118.26a4.277 4.277 0 0 0-.27.697c-.118.443.182.91.62 1.015a.852.852 0 0 0 1.015-.622c.007-.029.016-.057.025-.085M28.29 139.858v-.003c.038-.087.079-.173.119-.26.104-.225.207-.456.271-.697.117-.443-.184-.909-.622-1.014a.852.852 0 0 0-1.015.622 1.735 1.735 0 0 1-.024.085v.001c-.037.088-.079.175-.118.26a4.308 4.308 0 0 0-.272.697c-.116.443.184.91.622 1.015a.852.852 0 0 0 1.015-.622c.007-.028.015-.057.024-.084M30.456 133.711l.001-.002c.037-.087.078-.174.118-.26.104-.225.207-.456.271-.697.117-.443-.184-.909-.622-1.015a.852.852 0 0 0-1.015.622 1.924 1.924 0 0 1-.024.085v.002c-.037.088-.079.174-.118.26a4.29 4.29 0 0 0-.271.697c-.117.443.183.91.621 1.014a.852.852 0 0 0 1.015-.622l.024-.084"/>
        <g transform="translate(22.37 147.043)">
            <mask id="h" fill="#fff">
                <use xlink:href="#g"/>
            </mask>
            <path fill="#FF7900" d="M1.337.266a.718.718 0 0 0-.858.526 6.896 6.896 0 0 1-.119.443.985.985 0 0 1-.044.087c-.28.228-.383.615-.183.94.194.318.659.456.979.235.47-.324.624-.843.751-1.373a.72.72 0 0 0-.526-.858" mask="url(#h)"/>
        </g>
        <path fill="#714F47" d="M105.06 86.727c.714.073 1.438.347 2.141.875.327.245-6.005 11.35-8.801 9.018-3.548-2.964 3.145-10.246 6.66-9.893"/>
        <path fill="#714F47" d="M98.765 78.029c-1.636.671-3.548 1.934-4.569 1.359-1.47-.831 2.639-3.952 3.379-4.662 1.212-1.162 2.61-2.235 3.746-3.481.72-.79 1.594-1.968.892-3.05-.735-1.136-2.02-.135-2.855.371-4.113 2.488-7.897 5.537-11.698 8.468-2.031 1.567-4.157 3.089-6.227 4.586-1.431 1.035-2.842 2.624-4.623 2.187-1.306-.32-2.844-1.96-3.8-.117-.552 1.065-.804 2.411-.992 3.769-.166 1.207-.28 2.424-.51 3.461-.378 1.72-.167 3.451.06 5.174.252 1.916-.86 7.945-.86 7.945.816 2.773.663 5.287 3.886 5.623 2.733.286 5.906-.535 8.218-2.03 1.354-.875 1.593-1.952 3.325-1.601 1.414.285 2.705 1.392 4.217 1.135 1.238-.211 2.107-2.114 2.778-3.066 1.676-2.38 6.575-7.118 5.271-10.265-1.118-2.7-1.68-2.781-.491-5.862 1.009-2.613 3.786-5.11 3.764-8.07-.02-2.618-1.338-2.52-2.911-1.874M98.976 61.25c-.461.573-.867 1.15-1.191 1.67-.78 1.25-1.128 3.643-2.788 4.113-1.764.496-2.616-2.751-2.902-3.983-.675-2.898 2.002-4.93 4.248-6.288 2.478-1.498 4.737-1.082 6.004 1.532-1.184.564-2.399 1.748-3.371 2.956"/>
        <path fill="#714F47" d="M99.854 77.858l-.747 1.333c.024.3.726 3.888.958 3.794 1.945-.788 3.99-3.247 3.183-5.389-.358-.956-2.132-3.307-3.304-2.022-.581.638.267 1.636-.09 2.284"/>
        <path fill="#838080" d="M91.551 48.585c-2.153-1.275-4.514-.922-7.232-.594-2.779.335-6.437.72-9.22 1.008-2.688.279-5.547.56-8.23.896-2.387.299-6.441.698-8.316 2.34-1.672 1.463-2.274 4.377-2.32 6.553-.094 4.406.986 8.733 1.548 13.08.691 5.357 1.189 10.34 1.757 15.714.422 3.996 1.047 9.257 1.664 13.228.523 3.363.59 5.913 1.144 9.27.399 2.426.152 5.599 2.687 7.176 1.586.986 3.953 1.13 5.736 1.067 2.828-.1 5.612-.668 8.425-.936 3.28-.31 6.522-.85 9.761-1.45 2.845-.527 6.435-.275 9.017-1.586 2.932-1.49 3.44-4.62 3.13-8.044-1.176-13.029-3.428-26.034-4.438-38.997-.279-3.576-1.064-7.26-1.666-10.86-.504-3.004-.46-6.095-3.447-7.865"/>
        <path fill="#FFF" d="M88.712 53.592c-4.911.715-9.896.967-14.792 1.763-3.708.602-7.671.1-11.245 1.441-4.558 1.709-4.743 5.876-4.235 10.164l.914 7.701c.718 6.05 1.435 12.1 2.154 18.149l1.196 10.083c.326 2.751-.166 6.185 1.513 8.581.201.287.42.523.652.717 1.8 1.498 4.475.44 6.74.171l18.185-2.157 9.665-1.147a325423.812 325423.812 0 0 0-2.827-23.83c-1.085-9.136-2.112-18.251-2.902-27.408-.29-3.348-1.571-4.729-5.018-4.228"/>
        <path fill="#1B2734" d="M64.378 50.25c-.407-.167-1.092-.285-2.272-.012-.455.105-.87.304-1.133.524.036.304.015.69.423.879.32.147 1.158.174 1.54.122.464-.064.817-.164 1.195-.386.554-.325.25-.728.247-1.127"/>
        <path fill="#000" d="M61.852 50.166c-.595.161-1.027.795-.134.9h.001c1.137.135 1.666-.586 1.267-.88-.18-.132-.548-.178-1.134-.02M94.258 107.248c-1.915.214-21.286 2.565-23.6 2.847-6.308.77-6-3.911-6.1-4.77-.189-1.635-.219-1.857-.373-3.148l-1.676-14.11h.001l-.366-3.084-.416-3.5c-.247-2.074-2.07-17.44-2.333-19.513-.487-3.839 2.788-4.605 4.417-4.801 1.861-.225 3.445-.4 5.306-.623 4.004-.479 8.01-.954 12.015-1.428 2.737-.323 3.978-.465 6.714-.791 2.296-.274 4.535-.186 4.974 3.502.16 1.34.203 1.598.368 2.938.318 2.576 4.722 39.694 5.005 42.003.096.776.596 3.97-3.936 4.478M87.047 49.66c-5.602.669-20.626 2.315-25.104 2.849-5.927.707-4.818 8.112-4.651 10.174.06.749 2.41 20.46 4.118 34.759.962 8.054 1.72 14.391 1.75 14.654.698 6.106 3.866 6.76 7.852 6.285 4.345-.518 17.1-2.04 21.445-2.557 8.966-1.068 8.637-3.576 7.984-9.059-.21-1.765-1.28-11.265-2.42-21.359-1.146-10.156-2.364-20.912-2.85-24.995-.065-.546-.111-1.105-.157-1.66-.318-3.902-.978-9.924-7.967-9.09"/>
        <path fill="#000" d="M80.71 51.897c-1.286.172-1.915.323-2.879.406-.936.08-3.522.414-5.507.667-.459.059-5.1.229-3.396 1.475.49.357 1.55.05 2.102.014 1.378-.092 3.247-.36 4.907-.55 1.828-.211 2.83-.333 5-.596 1.83-.222 1.232-1.611-.228-1.416"/>
        <path fill="#81C8A6" d="M64.055 103.084c.011.112.022.222.035.333h.006a1.277 1.277 0 0 1-.026-.252v-.082l-.015.001"/>
        <path fill="#838080" d="M87.118 111.147c-.862-.125-1.947-.024-2.705.002-.697.023-2.605.301-4.071.509-.617.088-4.363.31-2.594 2.234.422.459 1.34.4 1.82.407 1.028.014 2.405-.236 3.634-.37 1.351-.15 2.092-.242 3.695-.442 1.355-.17 2.068-2.073.22-2.34"/>
        <path fill="#714F47" d="M93.556 66.738a4.667 4.667 0 0 1 .03-2.51c2.654.248 10.974 1.645 8.603 6.07-1.98 3.695-7.955-.914-8.633-3.56M94.448 76.046a4.67 4.67 0 0 1 .03-2.51c2.653.247 10.973 1.645 8.603 6.069-1.98 3.696-7.956-.914-8.633-3.559"/>
        <path fill="#66413E" d="M97.583 65.981c-.968 1.77-2.916-.471-3.614-1.39-.275-.362-.842.064-.565.428.626.822 1.374 1.622 2.302 2.1.422.217.925.322 1.39.191.534-.149.88-.578 1.136-1.046.22-.401-.432-.68-.649-.283M97.947 75.872c-.797.949-2.38-.347-2.978-.964-.313-.324-.882.098-.565.426.949.98 2.919 2.382 4.099.977.294-.35-.263-.788-.556-.439"/>
        <path fill="#714F47" d="M62.042 68.476c-1.061 3.057-3.343 5.434-5.596 7.707-1.71 1.723-4.435 3.266-5.794 5.317-.5 4.998-2.874 9.719-5.976 13.713-.224.606-.364 1.23-.367 1.88 0 .127.001.257.004.387.097 5.172.032 13.049.336 18.23 3.834 1.997 4.047 2.224 7.363 4.193.454-.288.673-2.878 1.108-3.199 1.333-.983 2.422-2.207 3.849-3.069.868-.524 2.095-.832 2.77-1.632 1.723-2.034.58-6.275.475-8.699-.17-3.934.466-8.072-.002-11.972-.368-3.066-.046-5.321 1.729-8.056.16-.247.417-.466.691-.68.315-.247.65-.489.886-.763 1.027-1.196 1.665-2.88 1.866-4.475.352-2.778-.03-7.832-3.342-8.882"/>
        <path fill="#66413E" d="M63.13 72.805c-.23.87-.827 1.565-1.69 1.839-.815.257-1.692-.08-2.23-.71-.296-.345-.864.08-.566.428.72.842 1.807 1.258 2.899.982 1.19-.301 1.98-1.276 2.287-2.432.117-.442-.584-.542-.7-.107"/>
        <path fill="#FF7900" d="M85.38 103.362a7.367 7.367 0 1 1-10.42-10.419 7.367 7.367 0 1 1 10.42 10.419"/>
        <path fill="#D6D6D6" d="M68.709 77.396a.992.992 0 0 1-.136-1.974l17.41-2.424a.992.992 0 0 1 .273 1.965l-17.41 2.424c-.046.006-.092.01-.137.01M68.929 82.244a.992.992 0 0 1-.136-1.974l17.41-2.424a.992.992 0 0 1 .274 1.965l-17.41 2.424c-.046.006-.093.01-.138.01"/>
        <path fill="#FFF" d="M77.806 93.038c.605-.016 1.908 1.749 1.95 2.152.042.404-1.261 1.076-1.278 1.345-.017.27 3.32 3.733 3.632 3.767.31.033.857-1.455 1.278-1.48.42-.025 2.185 1.833 2.286 2.152.101.32-1.547 2.69-4.506 1.01-1.802-1.025-4.268-3.573-4.699-5.835-.277-1.452 1.1-3.104 1.337-3.11"/>
        <path fill="#FF7900" d="M82.08 64.284l1.684-13.622c.037-.628-.384-1.166-.882-1.13l-14.21 1.073c-.495.037-.83.627-.705 1.24l3.734 13.231c.125.613-.21 1.203-.705 1.24l-2.51.19c-.696.052-.985 1.123-.47 1.744l9.323 11.254c.35.423.901.386 1.19-.078l7.785-12.545c.427-.688-.018-1.719-.72-1.666l-2.632.199c-.498.037-.919-.502-.882-1.13M85.06 46.141L66.958 48.06a7.552 7.552 0 0 1-8.306-6.714L55.293 9.648a7.552 7.552 0 0 1 6.715-8.306L80.11-.576a7.553 7.553 0 0 1 8.306 6.715l3.358 31.697a7.552 7.552 0 0 1-6.714 8.305"/>
        <g transform="translate(55.175 -.84)">
            <mask id="j" fill="#fff">
                <use xlink:href="#i"/>
            </mask>
            <path fill="#000" d="M36.84 27.128C18.832 29.036 17.979 20.987-.03 22.895l3.315 31.29 36.02-3.816-2.463-23.241z" mask="url(#j)"/>
        </g>
    </g>
</svg>
